<?xml version="1.0" encoding="utf-8"?>
<!-- Generator: Adobe Illustrator 27.7.0, SVG Export Plug-In . SVG Version: 6.00 Build 0)  -->
<svg version="1.1" id="Layer_1" xmlns="http://www.w3.org/2000/svg" xmlns:xlink="http://www.w3.org/1999/xlink" x="0px" y="0px"
	 viewBox="0 0 124.2 96.5" style="enable-background:new 0 0 124.2 96.5;" xml:space="preserve">
<style type="text/css">
	.st0{fill:#5380B7;}
	.st1{fill:none;stroke:#5380B7;stroke-width:6.1415;stroke-miterlimit:10;}
</style>
<g>
	<path class="st0" d="M41.7,30.3l-10.4,3.2v28.4l10.4,3.2v6.6l-17.9-5.5c-1.5-0.4-2.5-1.8-2.5-3.3V32.5c0-1.5,1-2.9,2.5-3.3
		l17.9-5.5V30.3z"/>
	<path class="st0" d="M65.1,39.8V19l9.9,3v51.4l-9.9,3V56.5L57,76.4l0,0l-9.9-3V22.1l9.9-3v40.7L65.1,39.8z"/>
	<path class="st0" d="M99,43.4l-4.1,4.8l4.4,5.9c1,1.3,1.5,2.9,1.5,4.6v4.2c0,1.5-1,2.9-2.5,3.3l-17.9,5.5v-6.6l10.4-3.2v-5.7
		l-6.4-9.6l6.4-7.4V33l-10.4-3.2v-6.2l17.9,5.5c1.5,0.4,2.5,1.8,2.5,3.3v5.9C100.9,40.2,100.2,42,99,43.4z"/>
	<path class="st1" d="M61.1,7.7L107.9,22c2.1,0.6,3.5,2.6,3.5,4.8v41.6c0,2.2-1.4,4.1-3.5,4.8L61.1,87.5L14.3,73.2
		c-2.1-0.6-3.5-2.6-3.5-4.8V26.8c0-2.2,1.4-4.1,3.5-4.8L61.1,7.7z"/>
</g>
</svg>
