<svg xmlns="http://www.w3.org/2000/svg" width="261" height="260" viewBox="0 0 261 260" fill="none"> <rect x="260" width="1" height="260" fill="#C8C6CD"/> <path d="M6.859 58.195C7.853 58.195 8.707 58.265 9.421 58.405C10.135 58.545 10.779 58.797 11.353 59.161C11.927 59.511 12.354 60.015 12.634 60.673C12.928 61.331 13.075 62.143 13.075 63.109C13.075 64.075 12.928 64.887 12.634 65.545C12.354 66.203 11.927 66.714 11.353 67.078C10.779 67.428 10.135 67.673 9.421 67.813C8.707 67.953 7.853 68.023 6.859 68.023H4.528V73H2.491V58.195H6.859ZM6.922 66.259C7.594 66.259 8.154 66.224 8.602 66.154C9.05 66.07 9.47 65.923 9.862 65.713C10.268 65.503 10.562 65.188 10.744 64.768C10.94 64.334 11.038 63.781 11.038 63.109C11.038 62.437 10.94 61.891 10.744 61.471C10.562 61.037 10.268 60.715 9.862 60.505C9.47 60.295 9.05 60.155 8.602 60.085C8.154 60.001 7.594 59.959 6.922 59.959H4.528V66.259H6.922ZM14.5808 70.102C14.5808 68.31 15.7708 67.274 18.1508 66.994L22.1618 66.574C22.0778 64.866 21.1468 64.012 19.3688 64.012C18.5708 64.012 17.9128 64.215 17.3948 64.621C16.8768 65.013 16.6178 65.622 16.6178 66.448H14.6438C14.6438 65.272 15.0708 64.292 15.9248 63.508C16.7788 62.724 17.9268 62.332 19.3688 62.332C20.8388 62.332 22.0078 62.759 22.8758 63.613C23.7578 64.467 24.1988 65.622 24.1988 67.078V71.236H25.7318V73H23.7788C23.3728 73 23.0508 72.888 22.8128 72.664C22.5888 72.44 22.4768 72.118 22.4768 71.698V71.215L22.7918 70.102H22.2458C21.7278 72.174 20.3558 73.21 18.1298 73.21C17.4018 73.21 16.7858 73.105 16.2818 72.895C15.7778 72.685 15.4138 72.405 15.1898 72.055C14.9658 71.705 14.8048 71.376 14.7068 71.068C14.6228 70.76 14.5808 70.438 14.5808 70.102ZM16.6178 69.808C16.6178 70.34 16.7788 70.746 17.1008 71.026C17.4368 71.306 17.8778 71.446 18.4238 71.446C19.5438 71.446 20.4468 71.124 21.1328 70.48C21.8188 69.822 22.1618 68.996 22.1618 68.002L18.5078 68.38C17.8498 68.464 17.3668 68.611 17.0588 68.821C16.7648 69.031 16.6178 69.36 16.6178 69.808ZM27.4441 68.926H29.4181C29.4181 69.962 29.6141 70.676 30.0061 71.068C30.3981 71.46 31.0841 71.656 32.0641 71.656C32.8901 71.656 33.4781 71.516 33.8281 71.236C34.1781 70.942 34.3531 70.487 34.3531 69.871C34.3531 68.807 33.7511 68.275 32.5471 68.275H31.2031V66.721H32.5471C33.1211 66.721 33.5271 66.602 33.7651 66.364C34.0171 66.126 34.1431 65.769 34.1431 65.293C34.1431 64.831 33.9821 64.481 33.6601 64.243C33.3521 64.005 32.7921 63.886 31.9801 63.886C31.0561 63.886 30.4331 64.033 30.1111 64.327C29.7891 64.621 29.6281 65.118 29.6281 65.818H27.6541C27.6541 64.698 28.0111 63.837 28.7251 63.235C29.4531 62.633 30.5381 62.332 31.9801 62.332C33.2961 62.332 34.3111 62.591 35.0251 63.109C35.7531 63.613 36.1171 64.271 36.1171 65.083C36.1171 66.357 35.4101 67.064 33.9961 67.204V67.771C34.6961 67.855 35.2561 68.086 35.6761 68.464C36.1101 68.842 36.3271 69.388 36.3271 70.102C36.3271 71.054 35.9491 71.81 35.1931 72.37C34.4511 72.93 33.4081 73.21 32.0641 73.21C28.9841 73.21 27.4441 71.782 27.4441 68.926ZM38.6873 62.542H40.7243V63.886L40.3673 65.209H40.9343C41.1863 64.355 41.6623 63.662 42.3623 63.13C43.0623 62.598 43.9863 62.332 45.1343 62.332C46.6323 62.332 47.8223 62.843 48.7043 63.865C49.6003 64.887 50.0483 66.189 50.0483 67.771C50.0483 69.353 49.6003 70.655 48.7043 71.677C47.8223 72.699 46.6323 73.21 45.1343 73.21C43.9863 73.21 43.0623 72.944 42.3623 72.412C41.6623 71.88 41.1863 71.18 40.9343 70.312H40.3673L40.7243 71.656V76.843H38.6873V62.542ZM41.7323 65.02C41.0603 65.622 40.7243 66.539 40.7243 67.771C40.7243 69.003 41.0603 69.927 41.7323 70.543C42.4183 71.145 43.3213 71.446 44.4413 71.446C45.5333 71.446 46.4013 71.145 47.0453 70.543C47.6893 69.927 48.0113 69.003 48.0113 67.771C48.0113 66.539 47.6893 65.622 47.0453 65.02C46.4013 64.404 45.5333 64.096 44.4413 64.096C43.3213 64.096 42.4183 64.404 41.7323 65.02ZM52.1921 70.102C52.1921 68.31 53.3821 67.274 55.7621 66.994L59.7731 66.574C59.6891 64.866 58.7581 64.012 56.9801 64.012C56.1821 64.012 55.5241 64.215 55.0061 64.621C54.4881 65.013 54.2291 65.622 54.2291 66.448H52.2551C52.2551 65.272 52.6821 64.292 53.5361 63.508C54.3901 62.724 55.5381 62.332 56.9801 62.332C58.4501 62.332 59.6191 62.759 60.4871 63.613C61.3691 64.467 61.8101 65.622 61.8101 67.078V71.236H63.3431V73H61.3901C60.9841 73 60.6621 72.888 60.4241 72.664C60.2001 72.44 60.0881 72.118 60.0881 71.698V71.215L60.4031 70.102H59.8571C59.3391 72.174 57.9671 73.21 55.7411 73.21C55.0131 73.21 54.3971 73.105 53.8931 72.895C53.3891 72.685 53.0251 72.405 52.8011 72.055C52.5771 71.705 52.4161 71.376 52.3181 71.068C52.2341 70.76 52.1921 70.438 52.1921 70.102ZM54.2291 69.808C54.2291 70.34 54.3901 70.746 54.7121 71.026C55.0481 71.306 55.4891 71.446 56.0351 71.446C57.1551 71.446 58.0581 71.124 58.7441 70.48C59.4301 69.822 59.7731 68.996 59.7731 68.002L56.1191 68.38C55.4611 68.464 54.9781 68.611 54.6701 68.821C54.3761 69.031 54.2291 69.36 54.2291 69.808ZM64.4197 66.133C64.4197 64.103 64.8537 62.556 65.7217 61.492C66.6037 60.428 67.9967 59.623 69.9007 59.077C71.1187 58.713 71.9167 58.426 72.2947 58.216C72.6867 57.992 72.9317 57.684 73.0297 57.292H75.4447C75.3747 57.726 75.2277 58.111 75.0037 58.447C74.7797 58.769 74.5487 59.028 74.3107 59.224C74.0867 59.406 73.7087 59.595 73.1767 59.791C72.6587 59.987 72.2387 60.127 71.9167 60.211C71.6087 60.295 71.0767 60.435 70.3207 60.631C68.8927 60.981 67.8357 61.478 67.1497 62.122C66.4637 62.766 66.0507 63.683 65.9107 64.873L65.3647 66.196H65.9107C66.1487 65.02 66.6947 64.082 67.5487 63.382C68.4027 62.682 69.4527 62.332 70.6987 62.332C72.2947 62.332 73.5337 62.822 74.4157 63.802C75.3117 64.782 75.7597 66.056 75.7597 67.624C75.7597 69.304 75.2767 70.655 74.3107 71.677C73.3587 72.699 71.9517 73.21 70.0897 73.21C68.2557 73.21 66.8487 72.608 65.8687 71.404C64.9027 70.2 64.4197 68.443 64.4197 66.133ZM66.4567 67.834C66.4567 68.856 66.7647 69.717 67.3807 70.417C68.0107 71.103 68.9137 71.446 70.0897 71.446C71.2937 71.446 72.1967 71.117 72.7987 70.459C73.4147 69.801 73.7227 68.87 73.7227 67.666C73.7227 66.532 73.4497 65.657 72.9037 65.041C72.3577 64.411 71.5247 64.096 70.4047 64.096C69.1867 64.096 68.2207 64.432 67.5067 65.104C66.8067 65.762 66.4567 66.672 66.4567 67.834ZM77.9294 70.102C77.9294 68.31 79.1194 67.274 81.4994 66.994L85.5104 66.574C85.4264 64.866 84.4954 64.012 82.7174 64.012C81.9194 64.012 81.2614 64.215 80.7434 64.621C80.2254 65.013 79.9664 65.622 79.9664 66.448H77.9924C77.9924 65.272 78.4194 64.292 79.2734 63.508C80.1274 62.724 81.2754 62.332 82.7174 62.332C84.1874 62.332 85.3564 62.759 86.2244 63.613C87.1064 64.467 87.5474 65.622 87.5474 67.078V71.236H89.0804V73H87.1274C86.7214 73 86.3994 72.888 86.1614 72.664C85.9374 72.44 85.8254 72.118 85.8254 71.698V71.215L86.1404 70.102H85.5944C85.0764 72.174 83.7044 73.21 81.4784 73.21C80.7504 73.21 80.1344 73.105 79.6304 72.895C79.1264 72.685 78.7624 72.405 78.5384 72.055C78.3144 71.705 78.1534 71.376 78.0554 71.068C77.9714 70.76 77.9294 70.438 77.9294 70.102ZM79.9664 69.808C79.9664 70.34 80.1274 70.746 80.4494 71.026C80.7854 71.306 81.2264 71.446 81.7724 71.446C82.8924 71.446 83.7954 71.124 84.4814 70.48C85.1674 69.822 85.5104 68.996 85.5104 68.002L81.8564 68.38C81.1984 68.464 80.7154 68.611 80.4074 68.821C80.1134 69.031 79.9664 69.36 79.9664 69.808ZM98.6241 62.542V64.306H94.6761V73H92.6391V64.306H88.6911V62.542H98.6241ZM105.044 65.377C108.11 65.377 109.643 66.651 109.643 69.199C109.643 71.733 108.11 73 105.044 73H100.97V62.542H103.007V65.377H105.044ZM111.134 73V62.542H113.171V73H111.134ZM103.007 71.236H104.834C105.8 71.236 106.5 71.11 106.934 70.858C107.382 70.592 107.606 70.039 107.606 69.199C107.606 68.345 107.382 67.792 106.934 67.54C106.5 67.274 105.8 67.141 104.834 67.141H103.007V71.236ZM116.145 73V62.542H120.135C121.521 62.542 122.578 62.724 123.306 63.088C124.034 63.452 124.398 64.103 124.398 65.041C124.398 65.811 124.188 66.364 123.768 66.7C123.348 67.022 122.858 67.204 122.298 67.246V67.792C124.216 67.82 125.175 68.639 125.175 70.249C125.175 72.083 123.754 73 120.912 73H116.145ZM118.119 66.805H120.135C121.017 66.805 121.619 66.728 121.941 66.574C122.263 66.406 122.424 66.007 122.424 65.377C122.424 64.845 122.256 64.502 121.92 64.348C121.584 64.18 120.989 64.096 120.135 64.096H118.119V66.805ZM118.119 71.446H120.912C121.738 71.446 122.326 71.348 122.676 71.152C123.026 70.956 123.201 70.564 123.201 69.976C123.201 69.332 123.026 68.905 122.676 68.695C122.326 68.471 121.738 68.359 120.912 68.359H118.119V71.446ZM127.087 70.102C127.087 68.31 128.277 67.274 130.657 66.994L134.668 66.574C134.584 64.866 133.653 64.012 131.875 64.012C131.077 64.012 130.419 64.215 129.901 64.621C129.383 65.013 129.124 65.622 129.124 66.448H127.15C127.15 65.272 127.577 64.292 128.431 63.508C129.285 62.724 130.433 62.332 131.875 62.332C133.345 62.332 134.514 62.759 135.382 63.613C136.264 64.467 136.705 65.622 136.705 67.078V71.236H138.238V73H136.285C135.879 73 135.557 72.888 135.319 72.664C135.095 72.44 134.983 72.118 134.983 71.698V71.215L135.298 70.102H134.752C134.234 72.174 132.862 73.21 130.636 73.21C129.908 73.21 129.292 73.105 128.788 72.895C128.284 72.685 127.92 72.405 127.696 72.055C127.472 71.705 127.311 71.376 127.213 71.068C127.129 70.76 127.087 70.438 127.087 70.102ZM129.124 69.808C129.124 70.34 129.285 70.746 129.607 71.026C129.943 71.306 130.384 71.446 130.93 71.446C132.05 71.446 132.953 71.124 133.639 70.48C134.325 69.822 134.668 68.996 134.668 68.002L131.014 68.38C130.356 68.464 129.873 68.611 129.565 68.821C129.271 69.031 129.124 69.36 129.124 69.808ZM139.33 67.624C139.33 65.972 139.799 64.677 140.737 63.739C141.689 62.801 142.935 62.332 144.475 62.332C146.001 62.332 147.219 62.787 148.129 63.697C149.039 64.593 149.494 65.832 149.494 67.414V68.17H141.304C141.346 69.164 141.64 69.969 142.186 70.585C142.746 71.201 143.6 71.509 144.748 71.509C146.428 71.509 147.45 70.781 147.814 69.325H149.851C149.641 70.333 149.116 71.236 148.276 72.034C147.45 72.818 146.274 73.21 144.748 73.21C142.942 73.21 141.584 72.685 140.674 71.635C139.778 70.585 139.33 69.248 139.33 67.624ZM141.304 66.742H147.52C147.52 65.958 147.254 65.307 146.722 64.789C146.204 64.271 145.455 64.012 144.475 64.012C143.495 64.012 142.718 64.278 142.144 64.81C141.584 65.328 141.304 65.972 141.304 66.742ZM152.054 73V62.542H156.128L158.27 72.433H158.837L160.979 62.542H165.074V73H163.037V64.285L163.373 63.088H162.827L160.58 73H156.527L154.301 63.088H153.734L154.091 64.285V73H152.054ZM2.491 98V87.542H6.565L8.707 97.433H9.274L11.416 87.542H15.511V98H13.474V89.285L13.81 88.088H13.264L11.017 98H6.964L4.738 88.088H4.171L4.528 89.285V98H2.491ZM18.0671 92.75C18.0671 91.168 18.5851 89.873 19.6211 88.865C20.6571 87.843 22.0081 87.332 23.6741 87.332C25.3261 87.332 26.6701 87.843 27.7061 88.865C28.7421 89.873 29.2601 91.168 29.2601 92.75C29.2601 94.346 28.7421 95.655 27.7061 96.677C26.6701 97.699 25.3261 98.21 23.6741 98.21C22.0081 98.21 20.6571 97.706 19.6211 96.698C18.5851 95.676 18.0671 94.36 18.0671 92.75ZM20.1041 92.75C20.1041 93.842 20.4191 94.731 21.0491 95.417C21.6791 96.103 22.5541 96.446 23.6741 96.446C24.7801 96.446 25.6411 96.103 26.2571 95.417C26.8871 94.731 27.2021 93.842 27.2021 92.75C27.2021 91.672 26.8871 90.797 26.2571 90.125C25.6411 89.439 24.7801 89.096 23.6741 89.096C22.5541 89.096 21.6791 89.439 21.0491 90.125C20.4191 90.797 20.1041 91.672 20.1041 92.75ZM41.9067 96.236V100.793H39.8697V98H32.1627V100.793H30.1257V96.236H31.5117C32.0717 95.186 32.4707 93.996 32.7087 92.666C32.9467 91.322 33.0657 89.614 33.0657 87.542H40.5207V96.236H41.9067ZM33.5487 96.236H38.4837V89.306H35.0817C34.9557 92.246 34.4447 94.556 33.5487 96.236ZM43.4148 92.624C43.4148 90.972 43.8838 89.677 44.8218 88.739C45.7738 87.801 47.0198 87.332 48.5598 87.332C50.0858 87.332 51.3038 87.787 52.2138 88.697C53.1238 89.593 53.5788 90.832 53.5788 92.414V93.17H45.3888C45.4308 94.164 45.7248 94.969 46.2708 95.585C46.8308 96.201 47.6848 96.509 48.8328 96.509C50.5128 96.509 51.5348 95.781 51.8988 94.325H53.9358C53.7258 95.333 53.2008 96.236 52.3608 97.034C51.5348 97.818 50.3588 98.21 48.8328 98.21C47.0268 98.21 45.6688 97.685 44.7588 96.635C43.8628 95.585 43.4148 94.248 43.4148 92.624ZM45.3888 91.742H51.6048C51.6048 90.958 51.3388 90.307 50.8068 89.789C50.2888 89.271 49.5398 89.012 48.5598 89.012C47.5798 89.012 46.8028 89.278 46.2288 89.81C45.6688 90.328 45.3888 90.972 45.3888 91.742ZM64.6451 87.542V98H62.5871V89.306H58.8701C58.8561 90.342 58.8281 91.203 58.7861 91.889C58.7581 92.575 58.6951 93.282 58.5971 94.01C58.5131 94.724 58.3731 95.305 58.1771 95.753C57.9951 96.187 57.7571 96.593 57.4631 96.971C57.1831 97.335 56.8191 97.601 56.3711 97.769C55.9371 97.923 55.4191 98 54.8171 98V96.236C55.7271 96.236 56.2871 95.634 56.4971 94.43C56.7211 93.226 56.8331 90.93 56.8331 87.542H64.6451ZM71.6773 90.377C74.7433 90.377 76.2763 91.651 76.2763 94.199C76.2763 96.733 74.7433 98 71.6773 98H67.6033V87.542H69.6403V90.377H71.6773ZM69.6403 96.236H71.4673C72.4333 96.236 73.1333 96.11 73.5673 95.858C74.0153 95.592 74.2393 95.039 74.2393 94.199C74.2393 93.345 74.0153 92.792 73.5673 92.54C73.1333 92.274 72.4333 92.141 71.4673 92.141H69.6403V96.236ZM96.0887 98H94.0307V89.243L94.3877 88.088H93.8207L89.6627 98H85.5887V87.542H87.6257V96.257L87.2687 97.433H87.8357L91.9937 87.542H96.0887V98ZM104.959 92.75C104.959 91.168 105.449 89.873 106.429 88.865C107.409 87.843 108.725 87.332 110.377 87.332C111.623 87.332 112.743 87.689 113.737 88.403C114.731 89.117 115.284 90.174 115.396 91.574H113.338C113.212 90.72 112.883 90.097 112.351 89.705C111.819 89.299 111.161 89.096 110.377 89.096C109.271 89.096 108.431 89.439 107.857 90.125C107.283 90.797 106.996 91.672 106.996 92.75C106.996 93.842 107.283 94.731 107.857 95.417C108.431 96.103 109.271 96.446 110.377 96.446C111.161 96.446 111.819 96.25 112.351 95.858C112.883 95.452 113.212 94.822 113.338 93.968H115.396C115.284 95.368 114.731 96.425 113.737 97.139C112.743 97.853 111.623 98.21 110.377 98.21C108.725 98.21 107.409 97.699 106.429 96.677C105.449 95.655 104.959 94.346 104.959 92.75ZM116.069 98L120.017 93.044V92.477L116.069 87.542H118.484L121.508 91.574L124.553 87.542H126.968L123.02 92.477V93.044L126.968 98H124.553L121.508 93.947L118.484 98H116.069ZM127.64 92.624C127.64 90.972 128.109 89.677 129.047 88.739C129.999 87.801 131.245 87.332 132.785 87.332C134.311 87.332 135.529 87.787 136.439 88.697C137.349 89.593 137.804 90.832 137.804 92.414V93.17H129.614C129.656 94.164 129.95 94.969 130.496 95.585C131.056 96.201 131.91 96.509 133.058 96.509C134.738 96.509 135.76 95.781 136.124 94.325H138.161C137.951 95.333 137.426 96.236 136.586 97.034C135.76 97.818 134.584 98.21 133.058 98.21C131.252 98.21 129.894 97.685 128.984 96.635C128.088 95.585 127.64 94.248 127.64 92.624ZM129.614 91.742H135.83C135.83 90.958 135.564 90.307 135.032 89.789C134.514 89.271 133.765 89.012 132.785 89.012C131.805 89.012 131.028 89.278 130.454 89.81C129.894 90.328 129.614 90.972 129.614 91.742ZM140.365 98V87.542H144.439L146.581 97.433H147.148L149.29 87.542H153.385V98H151.348V89.285L151.684 88.088H151.138L148.891 98H144.838L142.612 88.088H142.045L142.402 89.285V98H140.365ZM164.719 87.542H166.987L162.388 97.79V100.772C162.388 101.724 161.884 102.179 160.876 102.137L156.613 101.948V100.184L160.33 100.331V97.79L155.731 87.542H157.978L161.086 95.186V96.173H161.632V95.186L164.719 87.542ZM11.542 112.542V123H9.505V114.306H4.528V123H2.491V112.542H11.542ZM14.5291 112.542H16.5661V113.886L16.2091 115.209H16.7761C17.0281 114.355 17.5041 113.662 18.2041 113.13C18.9041 112.598 19.8281 112.332 20.9761 112.332C22.4741 112.332 23.6641 112.843 24.5461 113.865C25.4421 114.887 25.8901 116.189 25.8901 117.771C25.8901 119.353 25.4421 120.655 24.5461 121.677C23.6641 122.699 22.4741 123.21 20.9761 123.21C19.8281 123.21 18.9041 122.944 18.2041 122.412C17.5041 121.88 17.0281 121.18 16.7761 120.312H16.2091L16.5661 121.656V126.843H14.5291V112.542ZM17.5741 115.02C16.9021 115.622 16.5661 116.539 16.5661 117.771C16.5661 119.003 16.9021 119.927 17.5741 120.543C18.2601 121.145 19.1631 121.446 20.2831 121.446C21.3751 121.446 22.2431 121.145 22.8871 120.543C23.5311 119.927 23.8531 119.003 23.8531 117.771C23.8531 116.539 23.5311 115.622 22.8871 115.02C22.2431 114.404 21.3751 114.096 20.2831 114.096C19.1631 114.096 18.2601 114.404 17.5741 115.02ZM28.0339 117.75C28.0339 116.168 28.5519 114.873 29.5879 113.865C30.6239 112.843 31.9749 112.332 33.6409 112.332C35.2929 112.332 36.6369 112.843 37.6729 113.865C38.7089 114.873 39.2269 116.168 39.2269 117.75C39.2269 119.346 38.7089 120.655 37.6729 121.677C36.6369 122.699 35.2929 123.21 33.6409 123.21C31.9749 123.21 30.6239 122.706 29.5879 121.698C28.5519 120.676 28.0339 119.36 28.0339 117.75ZM30.0709 117.75C30.0709 118.842 30.3859 119.731 31.0159 120.417C31.6459 121.103 32.5209 121.446 33.6409 121.446C34.7469 121.446 35.6079 121.103 36.2239 120.417C36.8539 119.731 37.1689 118.842 37.1689 117.75C37.1689 116.672 36.8539 115.797 36.2239 115.125C35.6079 114.439 34.7469 114.096 33.6409 114.096C32.5209 114.096 31.6459 114.439 31.0159 115.125C30.3859 115.797 30.0709 116.672 30.0709 117.75ZM51.9148 123H49.8568V114.243L50.2138 113.088H49.6468L45.4888 123H41.4148V112.542H43.4518V121.257L43.0948 122.433H43.6618L47.8198 112.542H51.9148V123ZM54.2478 118.926H56.2218C56.2218 119.962 56.4178 120.676 56.8098 121.068C57.2018 121.46 57.8878 121.656 58.8678 121.656C59.6938 121.656 60.2818 121.516 60.6318 121.236C60.9818 120.942 61.1568 120.487 61.1568 119.871C61.1568 118.807 60.5548 118.275 59.3508 118.275H58.0068V116.721H59.3508C59.9248 116.721 60.3308 116.602 60.5688 116.364C60.8208 116.126 60.9468 115.769 60.9468 115.293C60.9468 114.831 60.7858 114.481 60.4638 114.243C60.1558 114.005 59.5958 113.886 58.7838 113.886C57.8598 113.886 57.2368 114.033 56.9148 114.327C56.5928 114.621 56.4318 115.118 56.4318 115.818H54.4578C54.4578 114.698 54.8148 113.837 55.5288 113.235C56.2568 112.633 57.3418 112.332 58.7838 112.332C60.0998 112.332 61.1148 112.591 61.8288 113.109C62.5568 113.613 62.9208 114.271 62.9208 115.083C62.9208 116.357 62.2138 117.064 60.7998 117.204V117.771C61.4998 117.855 62.0598 118.086 62.4798 118.464C62.9138 118.842 63.1308 119.388 63.1308 120.102C63.1308 121.054 62.7528 121.81 61.9968 122.37C61.2548 122.93 60.2118 123.21 58.8678 123.21C55.7878 123.21 54.2478 121.782 54.2478 118.926ZM65.491 123V112.542H69.481C70.867 112.542 71.924 112.724 72.652 113.088C73.38 113.452 73.744 114.103 73.744 115.041C73.744 115.811 73.534 116.364 73.114 116.7C72.694 117.022 72.204 117.204 71.644 117.246V117.792C73.562 117.82 74.521 118.639 74.521 120.249C74.521 122.083 73.1 123 70.258 123H65.491ZM67.465 116.805H69.481C70.363 116.805 70.965 116.728 71.287 116.574C71.609 116.406 71.77 116.007 71.77 115.377C71.77 114.845 71.602 114.502 71.266 114.348C70.93 114.18 70.335 114.096 69.481 114.096H67.465V116.805ZM67.465 121.446H70.258C71.084 121.446 71.672 121.348 72.022 121.152C72.372 120.956 72.547 120.564 72.547 119.976C72.547 119.332 72.372 118.905 72.022 118.695C71.672 118.471 71.084 118.359 70.258 118.359H67.465V121.446ZM76.4323 117.75C76.4323 116.168 76.9503 114.873 77.9863 113.865C79.0223 112.843 80.3733 112.332 82.0393 112.332C83.6913 112.332 85.0353 112.843 86.0713 113.865C87.1073 114.873 87.6253 116.168 87.6253 117.75C87.6253 119.346 87.1073 120.655 86.0713 121.677C85.0353 122.699 83.6913 123.21 82.0393 123.21C80.3733 123.21 79.0223 122.706 77.9863 121.698C76.9503 120.676 76.4323 119.36 76.4323 117.75ZM78.4693 117.75C78.4693 118.842 78.7843 119.731 79.4143 120.417C80.0443 121.103 80.9193 121.446 82.0393 121.446C83.1453 121.446 84.0063 121.103 84.6223 120.417C85.2523 119.731 85.5673 118.842 85.5673 117.75C85.5673 116.672 85.2523 115.797 84.6223 115.125C84.0063 114.439 83.1453 114.096 82.0393 114.096C80.9193 114.096 80.0443 114.439 79.4143 115.125C78.7843 115.797 78.4693 116.672 78.4693 117.75ZM100.272 121.236V125.793H98.2349V123H90.5279V125.793H88.4909V121.236H89.8769C90.4369 120.186 90.8359 118.996 91.0739 117.666C91.3119 116.322 91.4309 114.614 91.4309 112.542H98.8859V121.236H100.272ZM91.9139 121.236H96.8489V114.306H93.4469C93.3209 117.246 92.8099 119.556 91.9139 121.236ZM101.78 117.75C101.78 116.168 102.27 114.873 103.25 113.865C104.23 112.843 105.546 112.332 107.198 112.332C108.444 112.332 109.564 112.689 110.558 113.403C111.552 114.117 112.105 115.174 112.217 116.574H110.159C110.033 115.72 109.704 115.097 109.172 114.705C108.64 114.299 107.982 114.096 107.198 114.096C106.092 114.096 105.252 114.439 104.678 115.125C104.104 115.797 103.817 116.672 103.817 117.75C103.817 118.842 104.104 119.731 104.678 120.417C105.252 121.103 106.092 121.446 107.198 121.446C107.982 121.446 108.64 121.25 109.172 120.858C109.704 120.452 110.033 119.822 110.159 118.968H112.217C112.105 120.368 111.552 121.425 110.558 122.139C109.564 122.853 108.444 123.21 107.198 123.21C105.546 123.21 104.23 122.699 103.25 121.677C102.27 120.655 101.78 119.346 101.78 117.75ZM123.028 112.542V114.306H119.08V123H117.043V114.306H113.095V112.542H123.028ZM124.964 123V112.542H128.954C130.34 112.542 131.397 112.724 132.125 113.088C132.853 113.452 133.217 114.103 133.217 115.041C133.217 115.811 133.007 116.364 132.587 116.7C132.167 117.022 131.677 117.204 131.117 117.246V117.792C133.035 117.82 133.994 118.639 133.994 120.249C133.994 122.083 132.573 123 129.731 123H124.964ZM126.938 116.805H128.954C129.836 116.805 130.438 116.728 130.76 116.574C131.082 116.406 131.243 116.007 131.243 115.377C131.243 114.845 131.075 114.502 130.739 114.348C130.403 114.18 129.808 114.096 128.954 114.096H126.938V116.805ZM126.938 121.446H129.731C130.557 121.446 131.145 121.348 131.495 121.152C131.845 120.956 132.02 120.564 132.02 119.976C132.02 119.332 131.845 118.905 131.495 118.695C131.145 118.471 130.557 118.359 129.731 118.359H126.938V121.446ZM135.905 120.102C135.905 118.31 137.095 117.274 139.475 116.994L143.486 116.574C143.402 114.866 142.471 114.012 140.693 114.012C139.895 114.012 139.237 114.215 138.719 114.621C138.201 115.013 137.942 115.622 137.942 116.448H135.968C135.968 115.272 136.395 114.292 137.249 113.508C138.103 112.724 139.251 112.332 140.693 112.332C142.163 112.332 143.332 112.759 144.2 113.613C145.082 114.467 145.523 115.622 145.523 117.078V121.236H147.056V123H145.103C144.697 123 144.375 122.888 144.137 122.664C143.913 122.44 143.801 122.118 143.801 121.698V121.215L144.116 120.102H143.57C143.052 122.174 141.68 123.21 139.454 123.21C138.726 123.21 138.11 123.105 137.606 122.895C137.102 122.685 136.738 122.405 136.514 122.055C136.29 121.705 136.129 121.376 136.031 121.068C135.947 120.76 135.905 120.438 135.905 120.102ZM137.942 119.808C137.942 120.34 138.103 120.746 138.425 121.026C138.761 121.306 139.202 121.446 139.748 121.446C140.868 121.446 141.771 121.124 142.457 120.48C143.143 119.822 143.486 118.996 143.486 118.002L139.832 118.38C139.174 118.464 138.691 118.611 138.383 118.821C138.089 119.031 137.942 119.36 137.942 119.808Z" fill="#181818"/> <path d="M8.686 1.985C10.73 1.985 12.319 2.692 13.453 4.106C14.587 5.506 15.154 7.333 15.154 9.587C15.154 11.855 14.587 13.696 13.453 15.11C12.319 16.51 10.73 17.21 8.686 17.21C6.628 17.21 5.032 16.51 3.898 15.11C2.764 13.696 2.197 11.855 2.197 9.587C2.197 7.333 2.764 5.506 3.898 4.106C5.032 2.692 6.628 1.985 8.686 1.985ZM8.686 3.749C7.258 3.749 6.159 4.281 5.389 5.345C4.633 6.395 4.255 7.809 4.255 9.587C4.255 10.833 4.444 11.911 4.822 12.821L11.542 4.841C10.786 4.113 9.834 3.749 8.686 3.749ZM8.686 15.446C10.114 15.446 11.206 14.921 11.962 13.871C12.718 12.807 13.096 11.379 13.096 9.587C13.096 8.313 12.907 7.228 12.529 6.332L5.809 14.354C6.565 15.082 7.524 15.446 8.686 15.446ZM17.1423 8.642C18.4863 8.096 19.4523 7.284 20.0403 6.206C20.6283 5.128 20.9363 3.791 20.9643 2.195H25.0593V17H23.0223V4.085L23.3583 2.762H22.8123C22.7423 3.7 22.6233 4.526 22.4553 5.24C22.3013 5.954 22.0423 6.668 21.6783 7.382C21.3283 8.082 20.8243 8.691 20.1663 9.209C19.5223 9.727 18.7383 10.133 17.8143 10.427L17.1423 8.642Z" fill="#C8C6CD"/> <path fill-rule="evenodd" clip-rule="evenodd" d="M1 227.235L14.673 206.412L22.0989 199L49.0913 204.412L63 231.118L49.0913 252.059L41.7833 259L14.673 253.824L1 227.235ZM25.0466 221.941L24.9287 223.117L25.2823 225.823L26.1074 228.529L27.5219 230.647L29.6435 233L32.3546 234.764L34.9477 235.823L36.48 236.176H38.366L38.9553 236.059L39.0732 234.529L38.9553 232.764L38.1302 230.294L37.0694 228.294L35.7728 226.412L34.1226 224.764L32.1188 223.47L29.2899 222.294L27.2861 221.941L25.7538 221.823L25.0466 221.941Z" fill="url(#paint0_linear_635_691)"/> <path d="M14.673 206.412L1 227.235L14.673 253.824L41.7833 259M14.673 206.412L41.7833 212.059M14.673 206.412L22.0989 199L49.0913 204.412M41.7833 212.059L55.1027 238.647M41.7833 212.059L49.0913 204.412M55.1027 238.647L41.7833 259M55.1027 238.647L63 231.118M41.7833 259L49.0913 252.059L63 231.118M49.0913 204.412L63 231.118" stroke="#939195"/> <ellipse rx="11.7868" ry="9.74592" transform="matrix(0.707778 0.706435 -0.707778 0.706435 28.216 232.663)" stroke="#939195"/> <path d="M25.085 221.914C24.5881 225.343 25.9088 229.277 28.91 232.273C31.8145 235.172 35.5997 236.5 38.9553 236.133" stroke="#939195"/> <defs> <linearGradient id="paint0_linear_635_691" x1="62.4606" y1="204.919" x2="-0.96613" y2="238.159" gradientUnits="userSpaceOnUse"> <stop offset="0.273341" stop-color="#C8C6CD"/> <stop offset="1" stop-color="#C8C6CD" stop-opacity="0"/> </linearGradient> </defs> </svg>