<svg xmlns="http://www.w3.org/2000/svg" width="260" height="260" viewBox="0 0 260 260" fill="none"> <rect x="259" width="1" height="260" fill="#C8C6CD"/> <path d="M1.281 65.587C1.281 63.375 1.911 61.555 3.171 60.127C4.445 58.699 6.167 57.985 8.337 57.985C10.255 57.985 11.809 58.517 12.999 59.581C14.203 60.631 14.917 62.073 15.141 63.907H13.104C12.936 62.577 12.439 61.555 11.613 60.841C10.787 60.113 9.695 59.749 8.337 59.749C6.741 59.749 5.502 60.281 4.62 61.345C3.752 62.395 3.318 63.809 3.318 65.587C3.318 67.365 3.752 68.786 4.62 69.85C5.488 70.914 6.727 71.446 8.337 71.446C9.695 71.446 10.787 71.082 11.613 70.354C12.439 69.626 12.936 68.597 13.104 67.267H15.141C14.917 69.115 14.203 70.571 12.999 71.635C11.809 72.685 10.255 73.21 8.337 73.21C6.167 73.21 4.445 72.496 3.171 71.068C1.911 69.64 1.281 67.813 1.281 65.587ZM27.2208 62.542V64.306H23.2728V73H21.2358V64.306H17.2878V62.542H27.2208ZM29.156 62.542H31.193V63.886L30.836 65.209H31.403C31.655 64.355 32.131 63.662 32.831 63.13C33.531 62.598 34.455 62.332 35.603 62.332C37.101 62.332 38.291 62.843 39.173 63.865C40.069 64.887 40.517 66.189 40.517 67.771C40.517 69.353 40.069 70.655 39.173 71.677C38.291 72.699 37.101 73.21 35.603 73.21C34.455 73.21 33.531 72.944 32.831 72.412C32.131 71.88 31.655 71.18 31.403 70.312H30.836L31.193 71.656V76.843H29.156V62.542ZM32.201 65.02C31.529 65.622 31.193 66.539 31.193 67.771C31.193 69.003 31.529 69.927 32.201 70.543C32.887 71.145 33.79 71.446 34.91 71.446C36.002 71.446 36.87 71.145 37.514 70.543C38.158 69.927 38.48 69.003 38.48 67.771C38.48 66.539 38.158 65.622 37.514 65.02C36.87 64.404 36.002 64.096 34.91 64.096C33.79 64.096 32.887 64.404 32.201 65.02ZM42.6608 67.75C42.6608 66.168 43.1788 64.873 44.2148 63.865C45.2508 62.843 46.6018 62.332 48.2678 62.332C49.9198 62.332 51.2638 62.843 52.2998 63.865C53.3358 64.873 53.8538 66.168 53.8538 67.75C53.8538 69.346 53.3358 70.655 52.2998 71.677C51.2638 72.699 49.9198 73.21 48.2678 73.21C46.6018 73.21 45.2508 72.706 44.2148 71.698C43.1788 70.676 42.6608 69.36 42.6608 67.75ZM44.6978 67.75C44.6978 68.842 45.0128 69.731 45.6428 70.417C46.2728 71.103 47.1478 71.446 48.2678 71.446C49.3738 71.446 50.2348 71.103 50.8508 70.417C51.4808 69.731 51.7958 68.842 51.7958 67.75C51.7958 66.672 51.4808 65.797 50.8508 65.125C50.2348 64.439 49.3738 64.096 48.2678 64.096C47.1478 64.096 46.2728 64.439 45.6428 65.125C45.0128 65.797 44.6978 66.672 44.6978 67.75ZM66.5418 73H64.4838V64.243L64.8408 63.088H64.2738L60.1158 73H56.0418V62.542H58.0788V71.257L57.7218 72.433H58.2888L62.4468 62.542H66.5418V73ZM69.0848 73V62.542H73.1588L75.3008 72.433H75.8678L78.0098 62.542H82.1048V73H80.0678V64.285L80.4038 63.088H79.8578L77.6108 73H73.5578L71.3318 63.088H70.7648L71.1218 64.285V73H69.0848ZM9.219 87.542H11.277V98H9.219V93.632H3.528V98H1.491V87.542H3.528V91.868H9.219V87.542ZM13.6218 92.624C13.6218 90.972 14.0908 89.677 15.0288 88.739C15.9808 87.801 17.2268 87.332 18.7668 87.332C20.2928 87.332 21.5108 87.787 22.4208 88.697C23.3308 89.593 23.7858 90.832 23.7858 92.414V93.17H15.5958C15.6378 94.164 15.9318 94.969 16.4778 95.585C17.0378 96.201 17.8918 96.509 19.0398 96.509C20.7198 96.509 21.7418 95.781 22.1058 94.325H24.1428C23.9328 95.333 23.4078 96.236 22.5678 97.034C21.7418 97.818 20.5658 98.21 19.0398 98.21C17.2338 98.21 15.8758 97.685 14.9658 96.635C14.0698 95.585 13.6218 94.248 13.6218 92.624ZM15.5958 91.742H21.8118C21.8118 90.958 21.5458 90.307 21.0138 89.789C20.4958 89.271 19.7468 89.012 18.7668 89.012C17.7868 89.012 17.0098 89.278 16.4358 89.81C15.8758 90.328 15.5958 90.972 15.5958 91.742ZM25.9265 92.75C25.9265 91.168 26.4445 89.873 27.4805 88.865C28.5165 87.843 29.8675 87.332 31.5335 87.332C33.1855 87.332 34.5295 87.843 35.5655 88.865C36.6015 89.873 37.1195 91.168 37.1195 92.75C37.1195 94.346 36.6015 95.655 35.5655 96.677C34.5295 97.699 33.1855 98.21 31.5335 98.21C29.8675 98.21 28.5165 97.706 27.4805 96.698C26.4445 95.676 25.9265 94.36 25.9265 92.75ZM27.9635 92.75C27.9635 93.842 28.2785 94.731 28.9085 95.417C29.5385 96.103 30.4135 96.446 31.5335 96.446C32.6395 96.446 33.5005 96.103 34.1165 95.417C34.7465 94.731 35.0615 93.842 35.0615 92.75C35.0615 91.672 34.7465 90.797 34.1165 90.125C33.5005 89.439 32.6395 89.096 31.5335 89.096C30.4135 89.096 29.5385 89.439 28.9085 90.125C28.2785 90.797 27.9635 91.672 27.9635 92.75ZM39.446 91.133C39.446 89.103 39.88 87.556 40.748 86.492C41.63 85.428 43.023 84.623 44.927 84.077C46.145 83.713 46.943 83.426 47.321 83.216C47.713 82.992 47.958 82.684 48.056 82.292H50.471C50.401 82.726 50.254 83.111 50.03 83.447C49.806 83.769 49.575 84.028 49.337 84.224C49.113 84.406 48.735 84.595 48.203 84.791C47.685 84.987 47.265 85.127 46.943 85.211C46.635 85.295 46.103 85.435 45.347 85.631C43.919 85.981 42.862 86.478 42.176 87.122C41.49 87.766 41.077 88.683 40.937 89.873L40.391 91.196H40.937C41.175 90.02 41.721 89.082 42.575 88.382C43.429 87.682 44.479 87.332 45.725 87.332C47.321 87.332 48.56 87.822 49.442 88.802C50.338 89.782 50.786 91.056 50.786 92.624C50.786 94.304 50.303 95.655 49.337 96.677C48.385 97.699 46.978 98.21 45.116 98.21C43.282 98.21 41.875 97.608 40.895 96.404C39.929 95.2 39.446 93.443 39.446 91.133ZM41.483 92.834C41.483 93.856 41.791 94.717 42.407 95.417C43.037 96.103 43.94 96.446 45.116 96.446C46.32 96.446 47.223 96.117 47.825 95.459C48.441 94.801 48.749 93.87 48.749 92.666C48.749 91.532 48.476 90.657 47.93 90.041C47.384 89.411 46.551 89.096 45.431 89.096C44.213 89.096 43.247 89.432 42.533 90.104C41.833 90.762 41.483 91.672 41.483 92.834ZM52.3356 98L56.2836 93.044V92.477L52.3356 87.542H54.7506L57.7746 91.574L60.8196 87.542H63.2346L59.2866 92.477V93.044L63.2346 98H60.8196L57.7746 93.947L54.7506 98H52.3356ZM63.9069 92.75C63.9069 91.168 64.4249 89.873 65.4609 88.865C66.4969 87.843 67.8479 87.332 69.5139 87.332C71.1659 87.332 72.5099 87.843 73.5459 88.865C74.5819 89.873 75.0999 91.168 75.0999 92.75C75.0999 94.346 74.5819 95.655 73.5459 96.677C72.5099 97.699 71.1659 98.21 69.5139 98.21C67.8479 98.21 66.4969 97.706 65.4609 96.698C64.4249 95.676 63.9069 94.36 63.9069 92.75ZM65.9439 92.75C65.9439 93.842 66.2589 94.731 66.8889 95.417C67.5189 96.103 68.3939 96.446 69.5139 96.446C70.6199 96.446 71.4809 96.103 72.0969 95.417C72.7269 94.731 73.0419 93.842 73.0419 92.75C73.0419 91.672 72.7269 90.797 72.0969 90.125C71.4809 89.439 70.6199 89.096 69.5139 89.096C68.3939 89.096 67.5189 89.439 66.8889 90.125C66.2589 90.797 65.9439 91.672 65.9439 92.75ZM87.7465 96.236V100.793H85.7095V98H78.0025V100.793H75.9655V96.236H77.3515C77.9115 95.186 78.3105 93.996 78.5485 92.666C78.7865 91.322 78.9055 89.614 78.9055 87.542H86.3605V96.236H87.7465ZM79.3885 96.236H84.3235V89.306H80.9215C80.7955 92.246 80.2845 94.556 79.3885 96.236ZM100.38 98H98.3217V89.243L98.6787 88.088H98.1117L93.9537 98H89.8797V87.542H91.9167V96.257L91.5597 97.433H92.1267L96.2847 87.542H100.38V98ZM102.923 98V87.542H106.997L109.139 97.433H109.706L111.848 87.542H115.943V98H113.906V89.285L114.242 88.088H113.696L111.449 98H107.396L105.17 88.088H104.603L104.96 89.285V98H102.923ZM127.277 87.542H129.545L124.946 97.79V100.772C124.946 101.724 124.442 102.179 123.434 102.137L119.171 101.948V100.184L122.888 100.331V97.79L118.289 87.542H120.536L123.644 95.186V96.173H124.19V95.186L127.277 87.542ZM141.062 87.332C142.686 87.332 143.939 87.843 144.821 88.865C145.703 89.873 146.144 91.168 146.144 92.75C146.144 94.332 145.703 95.641 144.821 96.677C143.939 97.699 142.686 98.21 141.062 98.21C139.578 98.21 138.402 97.79 137.534 96.95C136.666 96.11 136.148 95.004 135.98 93.632H133.712V98H131.675V87.542H133.712V91.868H135.98C136.148 90.51 136.666 89.418 137.534 88.592C138.402 87.752 139.578 87.332 141.062 87.332ZM141.062 96.446C142.112 96.446 142.882 96.11 143.372 95.438C143.862 94.766 144.107 93.87 144.107 92.75C144.107 91.644 143.862 90.762 143.372 90.104C142.882 89.432 142.112 89.096 141.062 89.096C140.012 89.096 139.235 89.432 138.731 90.104C138.227 90.762 137.975 91.644 137.975 92.75C137.975 93.87 138.22 94.766 138.71 95.438C139.214 96.11 139.998 96.446 141.062 96.446ZM1.071 117.75C1.071 116.168 1.589 114.873 2.625 113.865C3.661 112.843 5.012 112.332 6.678 112.332C8.33 112.332 9.674 112.843 10.71 113.865C11.746 114.873 12.264 116.168 12.264 117.75C12.264 119.346 11.746 120.655 10.71 121.677C9.674 122.699 8.33 123.21 6.678 123.21C5.012 123.21 3.661 122.706 2.625 121.698C1.589 120.676 1.071 119.36 1.071 117.75ZM3.108 117.75C3.108 118.842 3.423 119.731 4.053 120.417C4.683 121.103 5.558 121.446 6.678 121.446C7.784 121.446 8.645 121.103 9.261 120.417C9.891 119.731 10.206 118.842 10.206 117.75C10.206 116.672 9.891 115.797 9.261 115.125C8.645 114.439 7.784 114.096 6.678 114.096C5.558 114.096 4.683 114.439 4.053 115.125C3.423 115.797 3.108 116.672 3.108 117.75ZM14.0319 117.75C14.0319 116.168 14.5219 114.873 15.5019 113.865C16.4819 112.843 17.7979 112.332 19.4499 112.332C20.6959 112.332 21.8159 112.689 22.8099 113.403C23.8039 114.117 24.3569 115.174 24.4689 116.574H22.4109C22.2849 115.72 21.9559 115.097 21.4239 114.705C20.8919 114.299 20.2339 114.096 19.4499 114.096C18.3439 114.096 17.5039 114.439 16.9299 115.125C16.3559 115.797 16.0689 116.672 16.0689 117.75C16.0689 118.842 16.3559 119.731 16.9299 120.417C17.5039 121.103 18.3439 121.446 19.4499 121.446C20.2339 121.446 20.8919 121.25 21.4239 120.858C21.9559 120.452 22.2849 119.822 22.4109 118.968H24.4689C24.3569 120.368 23.8039 121.425 22.8099 122.139C21.8159 122.853 20.6959 123.21 19.4499 123.21C17.7979 123.21 16.4819 122.699 15.5019 121.677C14.5219 120.655 14.0319 119.346 14.0319 117.75ZM34.4026 112.542H36.4606V123H34.4026V118.632H28.7116V123H26.6746V112.542H28.7116V116.868H34.4026V112.542ZM39.0105 120.102C39.0105 118.31 40.2005 117.274 42.5805 116.994L46.5915 116.574C46.5075 114.866 45.5765 114.012 43.7985 114.012C43.0005 114.012 42.3425 114.215 41.8245 114.621C41.3065 115.013 41.0475 115.622 41.0475 116.448H39.0735C39.0735 115.272 39.5005 114.292 40.3545 113.508C41.2085 112.724 42.3565 112.332 43.7985 112.332C45.2685 112.332 46.4375 112.759 47.3055 113.613C48.1875 114.467 48.6285 115.622 48.6285 117.078V121.236H50.1615V123H48.2085C47.8025 123 47.4805 122.888 47.2425 122.664C47.0185 122.44 46.9065 122.118 46.9065 121.698V121.215L47.2215 120.102H46.6755C46.1575 122.174 44.7855 123.21 42.5595 123.21C41.8315 123.21 41.2155 123.105 40.7115 122.895C40.2075 122.685 39.8435 122.405 39.6195 122.055C39.3955 121.705 39.2345 121.376 39.1365 121.068C39.0525 120.76 39.0105 120.438 39.0105 120.102ZM41.0475 119.808C41.0475 120.34 41.2085 120.746 41.5305 121.026C41.8665 121.306 42.3075 121.446 42.8535 121.446C43.9735 121.446 44.8765 121.124 45.5625 120.48C46.2485 119.822 46.5915 118.996 46.5915 118.002L42.9375 118.38C42.2795 118.464 41.7965 118.611 41.4885 118.821C41.1945 119.031 41.0475 119.36 41.0475 119.808ZM51.2536 117.75C51.2536 116.168 51.7436 114.873 52.7236 113.865C53.7036 112.843 55.0196 112.332 56.6716 112.332C57.9176 112.332 59.0376 112.689 60.0316 113.403C61.0256 114.117 61.5786 115.174 61.6906 116.574H59.6326C59.5066 115.72 59.1776 115.097 58.6456 114.705C58.1136 114.299 57.4556 114.096 56.6716 114.096C55.5656 114.096 54.7256 114.439 54.1516 115.125C53.5776 115.797 53.2906 116.672 53.2906 117.75C53.2906 118.842 53.5776 119.731 54.1516 120.417C54.7256 121.103 55.5656 121.446 56.6716 121.446C57.4556 121.446 58.1136 121.25 58.6456 120.858C59.1776 120.452 59.5066 119.822 59.6326 118.968H61.6906C61.5786 120.368 61.0256 121.425 60.0316 122.139C59.0376 122.853 57.9176 123.21 56.6716 123.21C55.0196 123.21 53.7036 122.699 52.7236 121.677C51.7436 120.655 51.2536 119.346 51.2536 117.75ZM72.502 112.542V114.306H68.554V123H66.517V114.306H62.569V112.542H72.502ZM83.5723 123H81.2413L77.8183 118.59C77.5943 118.618 77.4123 118.632 77.2723 118.632H76.4743V123H74.4373V112.542H76.4743V116.826H77.3353L79.9393 113.319C80.3173 112.801 80.8703 112.542 81.5983 112.542H83.2993V114.306H81.5983L79.2883 117.372L83.5723 123ZM93.6644 112.542H95.9324L91.3334 122.79V125.772C91.3334 126.724 90.8294 127.179 89.8214 127.137L85.5584 126.948V125.184L89.2754 125.331V122.79L84.6764 112.542H86.9234L90.0314 120.186V121.173H90.5774V120.186L93.6644 112.542Z" fill="#181818"/> <path d="M7.686 1.985C9.73 1.985 11.319 2.692 12.453 4.106C13.587 5.506 14.154 7.333 14.154 9.587C14.154 11.855 13.587 13.696 12.453 15.11C11.319 16.51 9.73 17.21 7.686 17.21C5.628 17.21 4.032 16.51 2.898 15.11C1.764 13.696 1.197 11.855 1.197 9.587C1.197 7.333 1.764 5.506 2.898 4.106C4.032 2.692 5.628 1.985 7.686 1.985ZM7.686 3.749C6.258 3.749 5.159 4.281 4.389 5.345C3.633 6.395 3.255 7.809 3.255 9.587C3.255 10.833 3.444 11.911 3.822 12.821L10.542 4.841C9.786 4.113 8.834 3.749 7.686 3.749ZM7.686 15.446C9.114 15.446 10.206 14.921 10.962 13.871C11.718 12.807 12.096 11.379 12.096 9.587C12.096 8.313 11.907 7.228 11.529 6.332L4.809 14.354C5.565 15.082 6.524 15.446 7.686 15.446ZM16.2878 9.251C16.2878 6.759 16.8758 4.925 18.0518 3.749C19.2418 2.573 20.8098 1.985 22.7558 1.985C24.4078 1.985 25.7238 2.419 26.7038 3.287C27.6838 4.155 28.1738 5.38 28.1738 6.962C28.1738 8.138 27.8938 9.188 27.3338 10.112C26.7738 11.022 25.9758 11.799 24.9398 12.443C23.9038 13.073 22.7418 13.598 21.4538 14.018C20.1658 14.424 18.6958 14.76 17.0438 15.026V15.593L18.4508 15.236H28.1738V17H16.4978V13.409C16.9038 13.353 17.3238 13.283 17.7578 13.199C18.1918 13.101 18.8218 12.954 19.6478 12.758C20.4738 12.548 21.2298 12.282 21.9158 11.96C22.6018 11.624 23.2808 11.232 23.9528 10.784C24.6248 10.336 25.1568 9.776 25.5488 9.104C25.9408 8.432 26.1368 7.704 26.1368 6.92C26.1368 5.898 25.8498 5.114 25.2758 4.568C24.7158 4.022 23.8898 3.749 22.7978 3.749C21.3698 3.749 20.2638 4.176 19.4798 5.03C18.7098 5.884 18.3248 7.291 18.3248 9.251H16.2878Z" fill="#C8C6CD"/> <path d="M5 239.904V218.096L30.6051 203L37.1019 206.774L43.5987 215.548L50.0955 214.322L56.5924 218.096V239.904L30.6051 255L5 239.904Z" fill="url(#paint0_linear_635_737)"/> <path d="M5 218.096V239.904L30.6051 255M5 218.096L30.6051 203L37.1019 206.774M5 218.096L11.4013 221.822M30.6051 255V233M30.6051 255L56.5924 239.904V218.096M30.6051 233L56.5924 218.096M30.6051 233L24 229.5M56.5924 218.096L50.0955 214.322M17.8025 230.548L24 229.5M17.8025 230.548L11.4013 221.822M17.8025 230.548L43.5987 215.548M43.5987 215.548L37.1019 206.774M43.5987 215.548L50.0955 214.322M24 229.5L50.0955 214.322M11.4013 221.822L37.1019 206.774" stroke="#939195"/> <defs> <linearGradient id="paint0_linear_635_737" x1="60.2229" y1="245.828" x2="51.4763" y2="194.241" gradientUnits="userSpaceOnUse"> <stop offset="0.0509945" stop-color="#C8C6CD"/> <stop offset="0.969286" stop-color="#C8C6CD" stop-opacity="0"/> </linearGradient> </defs> </svg>