<svg xmlns="http://www.w3.org/2000/svg" width="260" height="260" viewBox="0 0 260 260" fill="none"> <rect x="259" width="1" height="260" fill="#C8C6CD"/> <path d="M1.281 67.351H3.318C3.318 68.835 3.647 69.892 4.305 70.522C4.977 71.138 6.048 71.446 7.518 71.446C9.968 71.446 11.193 70.508 11.193 68.632C11.193 66.952 10.29 66.112 8.484 66.112H6.426V64.348H8.484C10.15 64.348 10.983 63.634 10.983 62.206C10.983 60.568 9.828 59.749 7.518 59.749C6.09 59.749 5.068 60.015 4.452 60.547C3.836 61.079 3.528 61.919 3.528 63.067H1.491C1.491 61.387 2.009 60.12 3.045 59.266C4.095 58.412 5.586 57.985 7.518 57.985C9.268 57.985 10.619 58.342 11.571 59.056C12.537 59.77 13.02 60.729 13.02 61.933C13.02 62.843 12.768 63.536 12.264 64.012C11.76 64.488 11.018 64.803 10.038 64.957V65.524C11.088 65.706 11.879 66.049 12.411 66.553C12.957 67.043 13.23 67.834 13.23 68.926C13.23 70.27 12.719 71.32 11.697 72.076C10.689 72.832 9.296 73.21 7.518 73.21C3.36 73.21 1.281 71.257 1.281 67.351ZM15.5905 70.102C15.5905 68.31 16.7805 67.274 19.1605 66.994L23.1715 66.574C23.0875 64.866 22.1565 64.012 20.3785 64.012C19.5805 64.012 18.9225 64.215 18.4045 64.621C17.8865 65.013 17.6275 65.622 17.6275 66.448H15.6535C15.6535 65.272 16.0805 64.292 16.9345 63.508C17.7885 62.724 18.9365 62.332 20.3785 62.332C21.8485 62.332 23.0175 62.759 23.8855 63.613C24.7675 64.467 25.2085 65.622 25.2085 67.078V71.236H26.7415V73H24.7885C24.3825 73 24.0605 72.888 23.8225 72.664C23.5985 72.44 23.4865 72.118 23.4865 71.698V71.215L23.8015 70.102H23.2555C22.7375 72.174 21.3655 73.21 19.1395 73.21C18.4115 73.21 17.7955 73.105 17.2915 72.895C16.7875 72.685 16.4235 72.405 16.1995 72.055C15.9755 71.705 15.8145 71.376 15.7165 71.068C15.6325 70.76 15.5905 70.438 15.5905 70.102ZM17.6275 69.808C17.6275 70.34 17.7885 70.746 18.1105 71.026C18.4465 71.306 18.8875 71.446 19.4335 71.446C20.5535 71.446 21.4565 71.124 22.1425 70.48C22.8285 69.822 23.1715 68.996 23.1715 68.002L19.5175 68.38C18.8595 68.464 18.3765 68.611 18.0685 68.821C17.7745 69.031 17.6275 69.36 17.6275 69.808ZM37.7373 73H35.4063L31.9833 68.59C31.7593 68.618 31.5773 68.632 31.4373 68.632H30.6393V73H28.6023V62.542H30.6393V66.826H31.5003L34.1043 63.319C34.4823 62.801 35.0353 62.542 35.7633 62.542H37.4643V64.306H35.7633L33.4533 67.372L37.7373 73ZM47.8295 62.542H50.0975L45.4985 72.79V75.772C45.4985 76.724 44.9945 77.179 43.9865 77.137L39.7235 76.948V75.184L43.4405 75.331V72.79L38.8415 62.542H41.0885L44.1965 70.186V71.173H44.7425V70.186L47.8295 62.542ZM61.2783 62.542V73H59.2413V64.306H54.2643V73H52.2273V62.542H61.2783ZM63.8454 70.102C63.8454 68.31 65.0354 67.274 67.4154 66.994L71.4264 66.574C71.3424 64.866 70.4114 64.012 68.6334 64.012C67.8354 64.012 67.1774 64.215 66.6594 64.621C66.1414 65.013 65.8824 65.622 65.8824 66.448H63.9084C63.9084 65.272 64.3354 64.292 65.1894 63.508C66.0434 62.724 67.1914 62.332 68.6334 62.332C70.1034 62.332 71.2724 62.759 72.1404 63.613C73.0224 64.467 73.4634 65.622 73.4634 67.078V71.236H74.9964V73H73.0434C72.6374 73 72.3154 72.888 72.0774 72.664C71.8534 72.44 71.7414 72.118 71.7414 71.698V71.215L72.0564 70.102H71.5104C70.9924 72.174 69.6204 73.21 67.3944 73.21C66.6664 73.21 66.0504 73.105 65.5464 72.895C65.0424 72.685 64.6784 72.405 64.4544 72.055C64.2304 71.705 64.0694 71.376 63.9714 71.068C63.8874 70.76 63.8454 70.438 63.8454 70.102ZM65.8824 69.808C65.8824 70.34 66.0434 70.746 66.3654 71.026C66.7014 71.306 67.1424 71.446 67.6884 71.446C68.8084 71.446 69.7114 71.124 70.3974 70.48C71.0834 69.822 71.4264 68.996 71.4264 68.002L67.7724 68.38C67.1144 68.464 66.6314 68.611 66.3234 68.821C66.0294 69.031 65.8824 69.36 65.8824 69.808ZM76.0886 67.624C76.0886 65.972 76.5576 64.677 77.4956 63.739C78.4476 62.801 79.6936 62.332 81.2336 62.332C82.7596 62.332 83.9776 62.787 84.8876 63.697C85.7976 64.593 86.2526 65.832 86.2526 67.414V68.17H78.0626C78.1046 69.164 78.3986 69.969 78.9446 70.585C79.5046 71.201 80.3586 71.509 81.5066 71.509C83.1866 71.509 84.2086 70.781 84.5726 69.325H86.6096C86.3996 70.333 85.8746 71.236 85.0346 72.034C84.2086 72.818 83.0326 73.21 81.5066 73.21C79.7006 73.21 78.3426 72.685 77.4326 71.635C76.5366 70.585 76.0886 69.248 76.0886 67.624ZM78.0626 66.742H84.2786C84.2786 65.958 84.0126 65.307 83.4806 64.789C82.9626 64.271 82.2136 64.012 81.2336 64.012C80.2536 64.012 79.4766 64.278 78.9026 64.81C78.3426 65.328 78.0626 65.972 78.0626 66.742ZM88.8133 73V62.542H92.8873L95.0293 72.433H95.5963L97.7383 62.542H101.833V73H99.7963V64.285L100.132 63.088H99.5863L97.3393 73H93.2863L91.0603 63.088H90.4933L90.8503 64.285V73H88.8133ZM111.136 67.75C111.136 66.168 111.626 64.873 112.606 63.865C113.586 62.843 114.902 62.332 116.554 62.332C117.8 62.332 118.92 62.689 119.914 63.403C120.908 64.117 121.461 65.174 121.573 66.574H119.515C119.389 65.72 119.06 65.097 118.528 64.705C117.996 64.299 117.338 64.096 116.554 64.096C115.448 64.096 114.608 64.439 114.034 65.125C113.46 65.797 113.173 66.672 113.173 67.75C113.173 68.842 113.46 69.731 114.034 70.417C114.608 71.103 115.448 71.446 116.554 71.446C117.338 71.446 117.996 71.25 118.528 70.858C119.06 70.452 119.389 69.822 119.515 68.968H121.573C121.461 70.368 120.908 71.425 119.914 72.139C118.92 72.853 117.8 73.21 116.554 73.21C114.902 73.21 113.586 72.699 112.606 71.677C111.626 70.655 111.136 69.346 111.136 67.75ZM128.202 65.377C131.268 65.377 132.801 66.651 132.801 69.199C132.801 71.733 131.268 73 128.202 73H124.128V62.542H126.165V65.377H128.202ZM134.292 73V62.542H136.329V73H134.292ZM126.165 71.236H127.992C128.958 71.236 129.658 71.11 130.092 70.858C130.54 70.592 130.764 70.039 130.764 69.199C130.764 68.345 130.54 67.792 130.092 67.54C129.658 67.274 128.958 67.141 127.992 67.141H126.165V71.236ZM139.304 62.542H141.341V63.886L140.984 65.209H141.551C141.803 64.355 142.279 63.662 142.979 63.13C143.679 62.598 144.603 62.332 145.751 62.332C147.249 62.332 148.439 62.843 149.321 63.865C150.217 64.887 150.665 66.189 150.665 67.771C150.665 69.353 150.217 70.655 149.321 71.677C148.439 72.699 147.249 73.21 145.751 73.21C144.603 73.21 143.679 72.944 142.979 72.412C142.279 71.88 141.803 71.18 141.551 70.312H140.984L141.341 71.656V76.843H139.304V62.542ZM142.349 65.02C141.677 65.622 141.341 66.539 141.341 67.771C141.341 69.003 141.677 69.927 142.349 70.543C143.035 71.145 143.938 71.446 145.058 71.446C146.15 71.446 147.018 71.145 147.662 70.543C148.306 69.927 148.628 69.003 148.628 67.771C148.628 66.539 148.306 65.622 147.662 65.02C147.018 64.404 146.15 64.096 145.058 64.096C143.938 64.096 143.035 64.404 142.349 65.02ZM157.302 65.377C160.368 65.377 161.901 66.651 161.901 69.199C161.901 71.733 160.368 73 157.302 73H153.228V62.542H155.265V65.377H157.302ZM155.265 71.236H157.092C158.058 71.236 158.758 71.11 159.192 70.858C159.64 70.592 159.864 70.039 159.864 69.199C159.864 68.345 159.64 67.792 159.192 67.54C158.758 67.274 158.058 67.141 157.092 67.141H155.265V71.236ZM164.047 67.624C164.047 65.972 164.516 64.677 165.454 63.739C166.406 62.801 167.652 62.332 169.192 62.332C170.718 62.332 171.936 62.787 172.846 63.697C173.756 64.593 174.211 65.832 174.211 67.414V68.17H166.021C166.063 69.164 166.357 69.969 166.903 70.585C167.463 71.201 168.317 71.509 169.465 71.509C171.145 71.509 172.167 70.781 172.531 69.325H174.568C174.358 70.333 173.833 71.236 172.993 72.034C172.167 72.818 170.991 73.21 169.465 73.21C167.659 73.21 166.301 72.685 165.391 71.635C164.495 70.585 164.047 69.248 164.047 67.624ZM166.021 66.742H172.237C172.237 65.958 171.971 65.307 171.439 64.789C170.921 64.271 170.172 64.012 169.192 64.012C168.212 64.012 167.435 64.278 166.861 64.81C166.301 65.328 166.021 65.972 166.021 66.742ZM11.991 98H9.933V89.243L10.29 88.088H9.723L5.565 98H1.491V87.542H3.528V96.257L3.171 97.433H3.738L7.896 87.542H11.991V98ZM30.332 87.542V98H28.295V89.306H23.318V98H21.281V87.542H30.332ZM33.3191 87.542H35.3561V88.886L34.9991 90.209H35.5661C35.8181 89.355 36.2941 88.662 36.9941 88.13C37.6941 87.598 38.6181 87.332 39.7661 87.332C41.2641 87.332 42.4541 87.843 43.3361 88.865C44.2321 89.887 44.6801 91.189 44.6801 92.771C44.6801 94.353 44.2321 95.655 43.3361 96.677C42.4541 97.699 41.2641 98.21 39.7661 98.21C38.6181 98.21 37.6941 97.944 36.9941 97.412C36.2941 96.88 35.8181 96.18 35.5661 95.312H34.9991L35.3561 96.656V101.843H33.3191V87.542ZM36.3641 90.02C35.6921 90.622 35.3561 91.539 35.3561 92.771C35.3561 94.003 35.6921 94.927 36.3641 95.543C37.0501 96.145 37.9531 96.446 39.0731 96.446C40.1651 96.446 41.0331 96.145 41.6771 95.543C42.3211 94.927 42.6431 94.003 42.6431 92.771C42.6431 91.539 42.3211 90.622 41.6771 90.02C41.0331 89.404 40.1651 89.096 39.0731 89.096C37.9531 89.096 37.0501 89.404 36.3641 90.02ZM46.8239 92.75C46.8239 91.168 47.3419 89.873 48.3779 88.865C49.4139 87.843 50.7649 87.332 52.4309 87.332C54.0829 87.332 55.4269 87.843 56.4629 88.865C57.4989 89.873 58.0169 91.168 58.0169 92.75C58.0169 94.346 57.4989 95.655 56.4629 96.677C55.4269 97.699 54.0829 98.21 52.4309 98.21C50.7649 98.21 49.4139 97.706 48.3779 96.698C47.3419 95.676 46.8239 94.36 46.8239 92.75ZM48.8609 92.75C48.8609 93.842 49.1759 94.731 49.8059 95.417C50.4359 96.103 51.3109 96.446 52.4309 96.446C53.5369 96.446 54.3979 96.103 55.0139 95.417C55.6439 94.731 55.9589 93.842 55.9589 92.75C55.9589 91.672 55.6439 90.797 55.0139 90.125C54.3979 89.439 53.5369 89.096 52.4309 89.096C51.3109 89.096 50.4359 89.439 49.8059 90.125C49.1759 90.797 48.8609 91.672 48.8609 92.75ZM60.2049 98V87.542H64.1949C65.5809 87.542 66.6379 87.724 67.3659 88.088C68.0939 88.452 68.4579 89.103 68.4579 90.041C68.4579 90.811 68.2479 91.364 67.8279 91.7C67.4079 92.022 66.9179 92.204 66.3579 92.246V92.792C68.2759 92.82 69.2349 93.639 69.2349 95.249C69.2349 97.083 67.8139 98 64.9719 98H60.2049ZM62.1789 91.805H64.1949C65.0769 91.805 65.6789 91.728 66.0009 91.574C66.3229 91.406 66.4839 91.007 66.4839 90.377C66.4839 89.845 66.3159 89.502 65.9799 89.348C65.6439 89.18 65.0489 89.096 64.1949 89.096H62.1789V91.805ZM62.1789 96.446H64.9719C65.7979 96.446 66.3859 96.348 66.7359 96.152C67.0859 95.956 67.2609 95.564 67.2609 94.976C67.2609 94.332 67.0859 93.905 66.7359 93.695C66.3859 93.471 65.7979 93.359 64.9719 93.359H62.1789V96.446ZM71.1462 92.75C71.1462 91.168 71.6642 89.873 72.7002 88.865C73.7362 87.843 75.0872 87.332 76.7532 87.332C78.4052 87.332 79.7492 87.843 80.7852 88.865C81.8212 89.873 82.3392 91.168 82.3392 92.75C82.3392 94.346 81.8212 95.655 80.7852 96.677C79.7492 97.699 78.4052 98.21 76.7532 98.21C75.0872 98.21 73.7362 97.706 72.7002 96.698C71.6642 95.676 71.1462 94.36 71.1462 92.75ZM73.1832 92.75C73.1832 93.842 73.4982 94.731 74.1282 95.417C74.7582 96.103 75.6332 96.446 76.7532 96.446C77.8592 96.446 78.7202 96.103 79.3362 95.417C79.9662 94.731 80.2812 93.842 80.2812 92.75C80.2812 91.672 79.9662 90.797 79.3362 90.125C78.7202 89.439 77.8592 89.096 76.7532 89.096C75.6332 89.096 74.7582 89.439 74.1282 90.125C73.4982 90.797 73.1832 91.672 73.1832 92.75ZM94.9858 96.236V100.793H92.9488V98H85.2418V100.793H83.2048V96.236H84.5908C85.1508 95.186 85.5498 93.996 85.7878 92.666C86.0258 91.322 86.1448 89.614 86.1448 87.542H93.5998V96.236H94.9858ZM86.6278 96.236H91.5628V89.306H88.1608C88.0348 92.246 87.5238 94.556 86.6278 96.236ZM107.619 98H105.561V89.243L105.918 88.088H105.351L101.193 98H97.1189V87.542H99.1559V96.257L98.7989 97.433H99.3659L103.524 87.542H107.619V98ZM110.162 98V87.542H114.236L116.378 97.433H116.945L119.087 87.542H123.182V98H121.145V89.285L121.481 88.088H120.935L118.688 98H114.635L112.409 88.088H111.842L112.199 89.285V98H110.162ZM10.626 123H8.295L4.872 118.59C4.648 118.618 4.466 118.632 4.326 118.632H3.528V123H1.491V112.542H3.528V116.826H4.389L6.993 113.319C7.371 112.801 7.924 112.542 8.652 112.542H10.353V114.306H8.652L6.342 117.372L10.626 123ZM11.7146 117.75C11.7146 116.168 12.2326 114.873 13.2686 113.865C14.3046 112.843 15.6556 112.332 17.3216 112.332C18.9736 112.332 20.3176 112.843 21.3536 113.865C22.3896 114.873 22.9076 116.168 22.9076 117.75C22.9076 119.346 22.3896 120.655 21.3536 121.677C20.3176 122.699 18.9736 123.21 17.3216 123.21C15.6556 123.21 14.3046 122.706 13.2686 121.698C12.2326 120.676 11.7146 119.36 11.7146 117.75ZM13.7516 117.75C13.7516 118.842 14.0666 119.731 14.6966 120.417C15.3266 121.103 16.2016 121.446 17.3216 121.446C18.4276 121.446 19.2886 121.103 19.9046 120.417C20.5346 119.731 20.8496 118.842 20.8496 117.75C20.8496 116.672 20.5346 115.797 19.9046 115.125C19.2886 114.439 18.4276 114.096 17.3216 114.096C16.2016 114.096 15.3266 114.439 14.6966 115.125C14.0666 115.797 13.7516 116.672 13.7516 117.75ZM32.8235 112.542H34.8815V123H32.8235V118.632H27.1325V123H25.0955V112.542H27.1325V116.868H32.8235V112.542ZM47.1544 112.542V114.306H43.2064V123H41.1694V114.306H37.2214V112.542H47.1544ZM49.0896 112.542H51.1266V113.886L50.7696 115.209H51.3366C51.5886 114.355 52.0646 113.662 52.7646 113.13C53.4646 112.598 54.3886 112.332 55.5366 112.332C57.0346 112.332 58.2246 112.843 59.1066 113.865C60.0026 114.887 60.4506 116.189 60.4506 117.771C60.4506 119.353 60.0026 120.655 59.1066 121.677C58.2246 122.699 57.0346 123.21 55.5366 123.21C54.3886 123.21 53.4646 122.944 52.7646 122.412C52.0646 121.88 51.5886 121.18 51.3366 120.312H50.7696L51.1266 121.656V126.843H49.0896V112.542ZM52.1346 115.02C51.4626 115.622 51.1266 116.539 51.1266 117.771C51.1266 119.003 51.4626 119.927 52.1346 120.543C52.8206 121.145 53.7236 121.446 54.8436 121.446C55.9356 121.446 56.8036 121.145 57.4476 120.543C58.0916 119.927 58.4136 119.003 58.4136 117.771C58.4136 116.539 58.0916 115.622 57.4476 115.02C56.8036 114.404 55.9356 114.096 54.8436 114.096C53.7236 114.096 52.8206 114.404 52.1346 115.02ZM62.5944 117.75C62.5944 116.168 63.1124 114.873 64.1484 113.865C65.1844 112.843 66.5354 112.332 68.2014 112.332C69.8534 112.332 71.1974 112.843 72.2334 113.865C73.2694 114.873 73.7874 116.168 73.7874 117.75C73.7874 119.346 73.2694 120.655 72.2334 121.677C71.1974 122.699 69.8534 123.21 68.2014 123.21C66.5354 123.21 65.1844 122.706 64.1484 121.698C63.1124 120.676 62.5944 119.36 62.5944 117.75ZM64.6314 117.75C64.6314 118.842 64.9464 119.731 65.5764 120.417C66.2064 121.103 67.0814 121.446 68.2014 121.446C69.3074 121.446 70.1684 121.103 70.7844 120.417C71.4144 119.731 71.7294 118.842 71.7294 117.75C71.7294 116.672 71.4144 115.797 70.7844 115.125C70.1684 114.439 69.3074 114.096 68.2014 114.096C67.0814 114.096 66.2064 114.439 65.5764 115.125C64.9464 115.797 64.6314 116.672 64.6314 117.75ZM84.481 112.542V123H82.423V114.306H78.706C78.692 115.342 78.664 116.203 78.622 116.889C78.594 117.575 78.531 118.282 78.433 119.01C78.349 119.724 78.209 120.305 78.013 120.753C77.831 121.187 77.593 121.593 77.299 121.971C77.019 122.335 76.655 122.601 76.207 122.769C75.773 122.923 75.255 123 74.653 123V121.236C75.563 121.236 76.123 120.634 76.333 119.43C76.557 118.226 76.669 115.93 76.669 112.542H84.481ZM91.5132 115.377C94.5792 115.377 96.1122 116.651 96.1122 119.199C96.1122 121.733 94.5792 123 91.5132 123H87.4392V112.542H89.4762V115.377H91.5132ZM89.4762 121.236H91.3032C92.2692 121.236 92.9692 121.11 93.4032 120.858C93.8512 120.592 94.0752 120.039 94.0752 119.199C94.0752 118.345 93.8512 117.792 93.4032 117.54C92.9692 117.274 92.2692 117.141 91.3032 117.141H89.4762V121.236ZM114.56 123H112.229L108.806 118.59C108.582 118.618 108.4 118.632 108.26 118.632H107.462V123H105.425V112.542H107.462V116.826H108.323L110.927 113.319C111.305 112.801 111.858 112.542 112.586 112.542H114.287V114.306H112.586L110.276 117.372L114.56 123ZM116.079 120.102C116.079 118.31 117.269 117.274 119.649 116.994L123.66 116.574C123.576 114.866 122.645 114.012 120.867 114.012C120.069 114.012 119.411 114.215 118.893 114.621C118.375 115.013 118.116 115.622 118.116 116.448H116.142C116.142 115.272 116.569 114.292 117.423 113.508C118.277 112.724 119.425 112.332 120.867 112.332C122.337 112.332 123.506 112.759 124.374 113.613C125.256 114.467 125.697 115.622 125.697 117.078V121.236H127.23V123H125.277C124.871 123 124.549 122.888 124.311 122.664C124.087 122.44 123.975 122.118 123.975 121.698V121.215L124.29 120.102H123.744C123.226 122.174 121.854 123.21 119.628 123.21C118.9 123.21 118.284 123.105 117.78 122.895C117.276 122.685 116.912 122.405 116.688 122.055C116.464 121.705 116.303 121.376 116.205 121.068C116.121 120.76 116.079 120.438 116.079 120.102ZM118.116 119.808C118.116 120.34 118.277 120.746 118.599 121.026C118.935 121.306 119.376 121.446 119.922 121.446C121.042 121.446 121.945 121.124 122.631 120.48C123.317 119.822 123.66 118.996 123.66 118.002L120.006 118.38C119.348 118.464 118.865 118.611 118.557 118.821C118.263 119.031 118.116 119.36 118.116 119.808ZM135.881 112.542H137.918V123H135.881V119.22L129.413 119.64C128.405 119.696 127.901 119.199 127.901 118.149V112.542H129.938V117.855L135.881 117.456V112.542ZM140.483 117.624C140.483 115.972 140.952 114.677 141.89 113.739C142.842 112.801 144.088 112.332 145.628 112.332C147.154 112.332 148.372 112.787 149.282 113.697C150.192 114.593 150.647 115.832 150.647 117.414V118.17H142.457C142.499 119.164 142.793 119.969 143.339 120.585C143.899 121.201 144.753 121.509 145.901 121.509C147.581 121.509 148.603 120.781 148.967 119.325H151.004C150.794 120.333 150.269 121.236 149.429 122.034C148.603 122.818 147.427 123.21 145.901 123.21C144.095 123.21 142.737 122.685 141.827 121.635C140.931 120.585 140.483 119.248 140.483 117.624ZM142.457 116.742H148.673C148.673 115.958 148.407 115.307 147.875 114.789C147.357 114.271 146.608 114.012 145.628 114.012C144.648 114.012 143.871 114.278 143.297 114.81C142.737 115.328 142.457 115.972 142.457 116.742ZM152.788 117.75C152.788 116.168 153.278 114.873 154.258 113.865C155.238 112.843 156.554 112.332 158.206 112.332C159.452 112.332 160.572 112.689 161.566 113.403C162.56 114.117 163.113 115.174 163.225 116.574H161.167C161.041 115.72 160.712 115.097 160.18 114.705C159.648 114.299 158.99 114.096 158.206 114.096C157.1 114.096 156.26 114.439 155.686 115.125C155.112 115.797 154.825 116.672 154.825 117.75C154.825 118.842 155.112 119.731 155.686 120.417C156.26 121.103 157.1 121.446 158.206 121.446C158.99 121.446 159.648 121.25 160.18 120.858C160.712 120.452 161.041 119.822 161.167 118.968H163.225C163.113 120.368 162.56 121.425 161.566 122.139C160.572 122.853 159.452 123.21 158.206 123.21C156.554 123.21 155.238 122.699 154.258 121.677C153.278 120.655 152.788 119.346 152.788 117.75ZM174.036 112.542V114.306H170.088V123H168.051V114.306H164.103V112.542H174.036ZM175.971 123V112.542H179.961C181.347 112.542 182.404 112.724 183.132 113.088C183.86 113.452 184.224 114.103 184.224 115.041C184.224 115.811 184.014 116.364 183.594 116.7C183.174 117.022 182.684 117.204 182.124 117.246V117.792C184.042 117.82 185.001 118.639 185.001 120.249C185.001 122.083 183.58 123 180.738 123H175.971ZM177.945 116.805H179.961C180.843 116.805 181.445 116.728 181.767 116.574C182.089 116.406 182.25 116.007 182.25 115.377C182.25 114.845 182.082 114.502 181.746 114.348C181.41 114.18 180.815 114.096 179.961 114.096H177.945V116.805ZM177.945 121.446H180.738C181.564 121.446 182.152 121.348 182.502 121.152C182.852 120.956 183.027 120.564 183.027 119.976C183.027 119.332 182.852 118.905 182.502 118.695C182.152 118.471 181.564 118.359 180.738 118.359H177.945V121.446ZM186.913 120.102C186.913 118.31 188.103 117.274 190.483 116.994L194.494 116.574C194.41 114.866 193.479 114.012 191.701 114.012C190.903 114.012 190.245 114.215 189.727 114.621C189.209 115.013 188.95 115.622 188.95 116.448H186.976C186.976 115.272 187.403 114.292 188.257 113.508C189.111 112.724 190.259 112.332 191.701 112.332C193.171 112.332 194.34 112.759 195.208 113.613C196.09 114.467 196.531 115.622 196.531 117.078V121.236H198.064V123H196.111C195.705 123 195.383 122.888 195.145 122.664C194.921 122.44 194.809 122.118 194.809 121.698V121.215L195.124 120.102H194.578C194.06 122.174 192.688 123.21 190.462 123.21C189.734 123.21 189.118 123.105 188.614 122.895C188.11 122.685 187.746 122.405 187.522 122.055C187.298 121.705 187.137 121.376 187.039 121.068C186.955 120.76 186.913 120.438 186.913 120.102ZM188.95 119.808C188.95 120.34 189.111 120.746 189.433 121.026C189.769 121.306 190.21 121.446 190.756 121.446C191.876 121.446 192.779 121.124 193.465 120.48C194.151 119.822 194.494 118.996 194.494 118.002L190.84 118.38C190.182 118.464 189.699 118.611 189.391 118.821C189.097 119.031 188.95 119.36 188.95 119.808Z" fill="#181818"/> <path d="M7.686 1.985C9.73 1.985 11.319 2.692 12.453 4.106C13.587 5.506 14.154 7.333 14.154 9.587C14.154 11.855 13.587 13.696 12.453 15.11C11.319 16.51 9.73 17.21 7.686 17.21C5.628 17.21 4.032 16.51 2.898 15.11C1.764 13.696 1.197 11.855 1.197 9.587C1.197 7.333 1.764 5.506 2.898 4.106C4.032 2.692 5.628 1.985 7.686 1.985ZM7.686 3.749C6.258 3.749 5.159 4.281 4.389 5.345C3.633 6.395 3.255 7.809 3.255 9.587C3.255 10.833 3.444 11.911 3.822 12.821L10.542 4.841C9.786 4.113 8.834 3.749 7.686 3.749ZM7.686 15.446C9.114 15.446 10.206 14.921 10.962 13.871C11.718 12.807 12.096 11.379 12.096 9.587C12.096 8.313 11.907 7.228 11.529 6.332L4.809 14.354C5.565 15.082 6.524 15.446 7.686 15.446ZM16.3508 11.351H18.3878C18.3878 12.835 18.7168 13.892 19.3748 14.522C20.0468 15.138 21.1248 15.446 22.6088 15.446C25.0448 15.446 26.2628 14.508 26.2628 12.632C26.2628 10.952 25.3668 10.112 23.5748 10.112H21.5168V8.348H23.5748C25.2268 8.348 26.0528 7.634 26.0528 6.206C26.0528 4.568 24.9048 3.749 22.6088 3.749C21.1808 3.749 20.1518 4.015 19.5218 4.547C18.9058 5.079 18.5978 5.919 18.5978 7.067H16.5608C16.5608 5.387 17.0858 4.12 18.1358 3.266C19.1858 2.412 20.6768 1.985 22.6088 1.985C24.3588 1.985 25.7098 2.342 26.6618 3.056C27.6138 3.77 28.0898 4.729 28.0898 5.933C28.0898 6.843 27.8378 7.536 27.3338 8.012C26.8298 8.488 26.0878 8.803 25.1078 8.957V9.524C26.1578 9.706 26.9488 10.049 27.4808 10.553C28.0268 11.043 28.2998 11.834 28.2998 12.926C28.2998 14.27 27.7958 15.32 26.7878 16.076C25.7798 16.832 24.3868 17.21 22.6088 17.21C18.4368 17.21 16.3508 15.257 16.3508 11.351Z" fill="#C8C6CD"/> <path d="M31.4286 259C39.9495 259 46.8571 255.212 46.8571 250.538V207.462C46.8571 202.788 39.9495 199 31.4286 199C22.9076 199 16 202.788 16 207.462V250.538C16 255.212 22.9076 259 31.4286 259Z" fill="url(#paint0_linear_635_748)"/> <path d="M16 207.462V250.538C16 255.212 22.9076 259 31.4286 259C39.9495 259 46.8571 255.212 46.8571 250.538V207.462M16 207.462C16 212.135 22.9076 215.923 31.4286 215.923C39.9495 215.923 46.8571 212.135 46.8571 207.462M16 207.462C16 202.788 22.9076 199 31.4286 199C39.9495 199 46.8571 202.788 46.8571 207.462" stroke="#939195"/> <defs> <linearGradient id="paint0_linear_635_748" x1="47" y1="254" x2="48.8723" y2="200.143" gradientUnits="userSpaceOnUse"> <stop offset="0.104725" stop-color="#C8C6CD"/> <stop offset="1" stop-color="#C8C6CD" stop-opacity="0"/> </linearGradient> </defs> </svg>