<svg xmlns="http://www.w3.org/2000/svg" width="260" height="260" viewBox="0 0 260 260" fill="none"> <path fill-rule="evenodd" clip-rule="evenodd" d="M1 209.019L5.85171 201.63L8.48669 199L18.0646 200.92L23 210.397L18.0646 217.827L15.4715 220.29L5.85171 218.454L1 209.019ZM9.53304 207.141L9.49121 207.558L9.61669 208.518L9.90946 209.478L10.4114 210.23L11.1642 211.065L12.1262 211.691L13.0463 212.066L13.5901 212.192H14.2593L14.4684 212.15L14.5102 211.607L14.4684 210.981L14.1756 210.104L13.7992 209.395L13.3391 208.727L12.7536 208.142L12.0425 207.683L11.0387 207.266L10.3277 207.141L9.78399 207.099L9.53304 207.141Z" fill="url(#paint0_linear_635_708)"/> <path d="M5.85171 201.63L1 209.019L5.85171 218.454L15.4715 220.29M5.85171 201.63L15.4715 203.634M5.85171 201.63L8.48669 199L18.0646 200.92M15.4715 203.634L20.1977 213.068M15.4715 203.634L18.0646 200.92M20.1977 213.068L15.4715 220.29M20.1977 213.068L23 210.397M15.4715 220.29L18.0646 217.827L23 210.397M18.0646 200.92L23 210.397" stroke="#939195"/> <ellipse rx="4.18242" ry="3.45823" transform="matrix(0.707778 0.706435 -0.707778 0.706435 10.6571 210.945)" stroke="#939195"/> <path d="M9.5459 207.131C9.36961 208.348 9.83823 209.744 10.9032 210.806C11.9338 211.835 13.2769 212.306 14.4676 212.176" stroke="#939195"/> <path fill-rule="evenodd" clip-rule="evenodd" d="M20 228.019L24.8517 220.63L27.4867 218L37.0646 219.92L42 229.397L37.0646 236.827L34.4715 239.29L24.8517 237.454L20 228.019ZM28.5321 226.14L28.4902 226.558L28.6157 227.518L28.9085 228.478L29.4104 229.23L30.1632 230.064L31.1252 230.691L32.0454 231.066L32.5891 231.192H33.2583L33.4674 231.15L33.5092 230.607L33.4674 229.981L33.1746 229.104L32.7982 228.395L32.3381 227.727L31.7526 227.142L31.0416 226.683L30.0378 226.266L29.3267 226.14L28.783 226.099L28.5321 226.14Z" fill="url(#paint1_linear_635_708)"/> <path d="M24.8517 220.63L20 228.019L24.8517 237.454L34.4715 239.29M24.8517 220.63L34.4715 222.634M24.8517 220.63L27.4867 218L37.0646 219.92M34.4715 222.634L39.1977 232.068M34.4715 222.634L37.0646 219.92M39.1977 232.068L34.4715 239.29M39.1977 232.068L42 229.397M34.4715 239.29L37.0646 236.827L42 229.397M37.0646 219.92L42 229.397" stroke="#939195"/> <ellipse rx="4.18242" ry="3.45823" transform="matrix(0.707778 0.706435 -0.707778 0.706435 29.6571 229.945)" stroke="#939195"/> <path d="M28.5469 226.131C28.3706 227.348 28.8392 228.744 29.9041 229.806C30.9348 230.835 32.2779 231.306 33.4686 231.176" stroke="#939195"/> <path fill-rule="evenodd" clip-rule="evenodd" d="M39 248.019L43.8517 240.63L46.4867 238L56.0646 239.92L61 249.397L56.0646 256.827L53.4715 259.29L43.8517 257.454L39 248.019ZM47.5321 246.14L47.4902 246.558L47.6157 247.518L47.9085 248.478L48.4104 249.23L49.1632 250.064L50.1252 250.691L51.0454 251.066L51.5891 251.192H52.2583L52.4674 251.15L52.5092 250.607L52.4674 249.981L52.1746 249.104L51.7982 248.395L51.3381 247.727L50.7526 247.142L50.0416 246.683L49.0378 246.266L48.3267 246.14L47.783 246.099L47.5321 246.14Z" fill="url(#paint2_linear_635_708)"/> <path d="M43.8517 240.63L39 248.019L43.8517 257.454L53.4715 259.29M43.8517 240.63L53.4715 242.634M43.8517 240.63L46.4867 238L56.0646 239.92M53.4715 242.634L58.1977 252.068M53.4715 242.634L56.0646 239.92M58.1977 252.068L53.4715 259.29M58.1977 252.068L61 249.397M53.4715 259.29L56.0646 256.827L61 249.397M56.0646 239.92L61 249.397" stroke="#939195"/> <ellipse rx="4.18242" ry="3.45823" transform="matrix(0.707778 0.706435 -0.707778 0.706435 48.6571 249.945)" stroke="#939195"/> <path d="M47.5469 246.131C47.3706 247.348 47.8392 248.744 48.9041 249.806C49.9348 250.835 51.2779 251.306 52.4686 251.176" stroke="#939195"/> <path d="M13.062 58.195V73H11.025V59.959H3.528V73H1.491V58.195H13.062ZM15.99 62.542H18.027V63.886L17.67 65.209H18.237C18.489 64.355 18.965 63.662 19.665 63.13C20.365 62.598 21.289 62.332 22.437 62.332C23.935 62.332 25.125 62.843 26.007 63.865C26.903 64.887 27.351 66.189 27.351 67.771C27.351 69.353 26.903 70.655 26.007 71.677C25.125 72.699 23.935 73.21 22.437 73.21C21.289 73.21 20.365 72.944 19.665 72.412C18.965 71.88 18.489 71.18 18.237 70.312H17.67L18.027 71.656V76.843H15.99V62.542ZM19.035 65.02C18.363 65.622 18.027 66.539 18.027 67.771C18.027 69.003 18.363 69.927 19.035 70.543C19.721 71.145 20.624 71.446 21.744 71.446C22.836 71.446 23.704 71.145 24.348 70.543C24.992 69.927 25.314 69.003 25.314 67.771C25.314 66.539 24.992 65.622 24.348 65.02C23.704 64.404 22.836 64.096 21.744 64.096C20.624 64.096 19.721 64.404 19.035 65.02ZM29.4948 67.75C29.4948 66.168 30.0128 64.873 31.0488 63.865C32.0848 62.843 33.4358 62.332 35.1018 62.332C36.7538 62.332 38.0978 62.843 39.1338 63.865C40.1698 64.873 40.6878 66.168 40.6878 67.75C40.6878 69.346 40.1698 70.655 39.1338 71.677C38.0978 72.699 36.7538 73.21 35.1018 73.21C33.4358 73.21 32.0848 72.706 31.0488 71.698C30.0128 70.676 29.4948 69.36 29.4948 67.75ZM31.5318 67.75C31.5318 68.842 31.8468 69.731 32.4768 70.417C33.1068 71.103 33.9818 71.446 35.1018 71.446C36.2078 71.446 37.0688 71.103 37.6848 70.417C38.3148 69.731 38.6298 68.842 38.6298 67.75C38.6298 66.672 38.3148 65.797 37.6848 65.125C37.0688 64.439 36.2078 64.096 35.1018 64.096C33.9818 64.096 33.1068 64.439 32.4768 65.125C31.8468 65.797 31.5318 66.672 31.5318 67.75ZM53.3758 73H51.3178V64.243L51.6748 63.088H51.1078L46.9498 73H42.8758V62.542H44.9128V71.257L44.5558 72.433H45.1228L49.2808 62.542H53.3758V73ZM55.7087 68.926H57.6827C57.6827 69.962 57.8787 70.676 58.2707 71.068C58.6627 71.46 59.3487 71.656 60.3287 71.656C61.1547 71.656 61.7427 71.516 62.0927 71.236C62.4427 70.942 62.6177 70.487 62.6177 69.871C62.6177 68.807 62.0157 68.275 60.8117 68.275H59.4677V66.721H60.8117C61.3857 66.721 61.7917 66.602 62.0297 66.364C62.2817 66.126 62.4077 65.769 62.4077 65.293C62.4077 64.831 62.2467 64.481 61.9247 64.243C61.6167 64.005 61.0567 63.886 60.2447 63.886C59.3207 63.886 58.6977 64.033 58.3757 64.327C58.0537 64.621 57.8927 65.118 57.8927 65.818H55.9187C55.9187 64.698 56.2757 63.837 56.9897 63.235C57.7177 62.633 58.8027 62.332 60.2447 62.332C61.5607 62.332 62.5757 62.591 63.2897 63.109C64.0177 63.613 64.3817 64.271 64.3817 65.083C64.3817 66.357 63.6747 67.064 62.2607 67.204V67.771C62.9607 67.855 63.5207 68.086 63.9407 68.464C64.3747 68.842 64.5917 69.388 64.5917 70.102C64.5917 71.054 64.2137 71.81 63.4577 72.37C62.7157 72.93 61.6727 73.21 60.3287 73.21C57.2487 73.21 55.7087 71.782 55.7087 68.926ZM66.9519 73V62.542H70.9419C72.3279 62.542 73.3849 62.724 74.1129 63.088C74.8409 63.452 75.2049 64.103 75.2049 65.041C75.2049 65.811 74.9949 66.364 74.5749 66.7C74.1549 67.022 73.6649 67.204 73.1049 67.246V67.792C75.0229 67.82 75.9819 68.639 75.9819 70.249C75.9819 72.083 74.5609 73 71.7189 73H66.9519ZM68.9259 66.805H70.9419C71.8239 66.805 72.4259 66.728 72.7479 66.574C73.0699 66.406 73.2309 66.007 73.2309 65.377C73.2309 64.845 73.0629 64.502 72.7269 64.348C72.3909 64.18 71.7959 64.096 70.9419 64.096H68.9259V66.805ZM68.9259 71.446H71.7189C72.5449 71.446 73.1329 71.348 73.4829 71.152C73.8329 70.956 74.0079 70.564 74.0079 69.976C74.0079 69.332 73.8329 68.905 73.4829 68.695C73.1329 68.471 72.5449 68.359 71.7189 68.359H68.9259V71.446ZM77.8933 67.75C77.8933 66.168 78.4113 64.873 79.4473 63.865C80.4833 62.843 81.8343 62.332 83.5003 62.332C85.1523 62.332 86.4963 62.843 87.5323 63.865C88.5683 64.873 89.0863 66.168 89.0863 67.75C89.0863 69.346 88.5683 70.655 87.5323 71.677C86.4963 72.699 85.1523 73.21 83.5003 73.21C81.8343 73.21 80.4833 72.706 79.4473 71.698C78.4113 70.676 77.8933 69.36 77.8933 67.75ZM79.9303 67.75C79.9303 68.842 80.2453 69.731 80.8753 70.417C81.5053 71.103 82.3803 71.446 83.5003 71.446C84.6063 71.446 85.4673 71.103 86.0833 70.417C86.7133 69.731 87.0283 68.842 87.0283 67.75C87.0283 66.672 86.7133 65.797 86.0833 65.125C85.4673 64.439 84.6063 64.096 83.5003 64.096C82.3803 64.096 81.5053 64.439 80.8753 65.125C80.2453 65.797 79.9303 66.672 79.9303 67.75ZM101.733 71.236V75.793H99.6959V73H91.9889V75.793H89.9519V71.236H91.3379C91.8979 70.186 92.2969 68.996 92.5349 67.666C92.7729 66.322 92.8919 64.614 92.8919 62.542H100.347V71.236H101.733ZM93.3749 71.236H98.3099V64.306H94.9079C94.7819 67.246 94.2709 69.556 93.3749 71.236ZM114.366 73H112.308V64.243L112.665 63.088H112.098L107.94 73H103.866V62.542H105.903V71.257L105.546 72.433H106.113L110.271 62.542H114.366V73ZM116.909 73V62.542H120.983L123.125 72.433H123.692L125.834 62.542H129.929V73H127.892V64.285L128.228 63.088H127.682L125.435 73H121.382L119.156 63.088H118.589L118.946 64.285V73H116.909ZM10.794 87.542V89.306H6.846V98H4.809V89.306H0.861V87.542H10.794ZM11.4685 92.624C11.4685 90.972 11.9375 89.677 12.8755 88.739C13.8275 87.801 15.0735 87.332 16.6135 87.332C18.1395 87.332 19.3575 87.787 20.2675 88.697C21.1775 89.593 21.6325 90.832 21.6325 92.414V93.17H13.4425C13.4845 94.164 13.7785 94.969 14.3245 95.585C14.8845 96.201 15.7385 96.509 16.8865 96.509C18.5665 96.509 19.5885 95.781 19.9525 94.325H21.9895C21.7795 95.333 21.2545 96.236 20.4145 97.034C19.5885 97.818 18.4125 98.21 16.8865 98.21C15.0805 98.21 13.7225 97.685 12.8125 96.635C11.9165 95.585 11.4685 94.248 11.4685 92.624ZM13.4425 91.742H19.6585C19.6585 90.958 19.3925 90.307 18.8605 89.789C18.3425 89.271 17.5935 89.012 16.6135 89.012C15.6335 89.012 14.8565 89.278 14.2825 89.81C13.7225 90.328 13.4425 90.972 13.4425 91.742ZM23.7731 92.75C23.7731 91.168 24.2631 89.873 25.2431 88.865C26.2231 87.843 27.5391 87.332 29.1911 87.332C30.4371 87.332 31.5571 87.689 32.5511 88.403C33.5451 89.117 34.0981 90.174 34.2101 91.574H32.1521C32.0261 90.72 31.6971 90.097 31.1651 89.705C30.6331 89.299 29.9751 89.096 29.1911 89.096C28.0851 89.096 27.2451 89.439 26.6711 90.125C26.0971 90.797 25.8101 91.672 25.8101 92.75C25.8101 93.842 26.0971 94.731 26.6711 95.417C27.2451 96.103 28.0851 96.446 29.1911 96.446C29.9751 96.446 30.6331 96.25 31.1651 95.858C31.6971 95.452 32.0261 94.822 32.1521 93.968H34.2101C34.0981 95.368 33.5451 96.425 32.5511 97.139C31.5571 97.853 30.4371 98.21 29.1911 98.21C27.5391 98.21 26.2231 97.699 25.2431 96.677C24.2631 95.655 23.7731 94.346 23.7731 92.75ZM45.0215 87.542V89.306H41.0735V98H39.0365V89.306H35.0885V87.542H45.0215ZM45.696 92.75C45.696 91.168 46.214 89.873 47.25 88.865C48.286 87.843 49.637 87.332 51.303 87.332C52.955 87.332 54.299 87.843 55.335 88.865C56.371 89.873 56.889 91.168 56.889 92.75C56.889 94.346 56.371 95.655 55.335 96.677C54.299 97.699 52.955 98.21 51.303 98.21C49.637 98.21 48.286 97.706 47.25 96.698C46.214 95.676 45.696 94.36 45.696 92.75ZM47.733 92.75C47.733 93.842 48.048 94.731 48.678 95.417C49.308 96.103 50.183 96.446 51.303 96.446C52.409 96.446 53.27 96.103 53.886 95.417C54.516 94.731 54.831 93.842 54.831 92.75C54.831 91.672 54.516 90.797 53.886 90.125C53.27 89.439 52.409 89.096 51.303 89.096C50.183 89.096 49.308 89.439 48.678 90.125C48.048 90.797 47.733 91.672 47.733 92.75ZM59.0769 98V87.542H63.0669C64.4529 87.542 65.5099 87.724 66.2379 88.088C66.9659 88.452 67.3299 89.103 67.3299 90.041C67.3299 90.811 67.1199 91.364 66.6999 91.7C66.2799 92.022 65.7899 92.204 65.2299 92.246V92.792C67.1479 92.82 68.1069 93.639 68.1069 95.249C68.1069 97.083 66.6859 98 63.8439 98H59.0769ZM61.0509 91.805H63.0669C63.9489 91.805 64.5509 91.728 64.8729 91.574C65.1949 91.406 65.3559 91.007 65.3559 90.377C65.3559 89.845 65.1879 89.502 64.8519 89.348C64.5159 89.18 63.9209 89.096 63.0669 89.096H61.0509V91.805ZM61.0509 96.446H63.8439C64.6699 96.446 65.2579 96.348 65.6079 96.152C65.9579 95.956 66.1329 95.564 66.1329 94.976C66.1329 94.332 65.9579 93.905 65.6079 93.695C65.2579 93.471 64.6699 93.359 63.8439 93.359H61.0509V96.446ZM78.3861 87.542H80.6541L76.0551 97.79V100.772C76.0551 101.724 75.5511 102.179 74.5431 102.137L70.2801 101.948V100.184L73.9971 100.331V97.79L69.3981 87.542H71.6451L74.7531 95.186V96.173H75.2991V95.186L78.3861 87.542ZM92.171 87.332C93.795 87.332 95.048 87.843 95.93 88.865C96.812 89.873 97.253 91.168 97.253 92.75C97.253 94.332 96.812 95.641 95.93 96.677C95.048 97.699 93.795 98.21 92.171 98.21C90.687 98.21 89.511 97.79 88.643 96.95C87.775 96.11 87.257 95.004 87.089 93.632H84.821V98H82.784V87.542H84.821V91.868H87.089C87.257 90.51 87.775 89.418 88.643 88.592C89.511 87.752 90.687 87.332 92.171 87.332ZM92.171 96.446C93.221 96.446 93.991 96.11 94.481 95.438C94.971 94.766 95.216 93.87 95.216 92.75C95.216 91.644 94.971 90.762 94.481 90.104C93.991 89.432 93.221 89.096 92.171 89.096C91.121 89.096 90.344 89.432 89.84 90.104C89.336 90.762 89.084 91.644 89.084 92.75C89.084 93.87 89.329 94.766 89.819 95.438C90.323 96.11 91.107 96.446 92.171 96.446ZM115.604 87.542V98H113.567V89.306H108.59V98H106.553V87.542H115.604ZM118.171 95.102C118.171 93.31 119.361 92.274 121.741 91.994L125.752 91.574C125.668 89.866 124.737 89.012 122.959 89.012C122.161 89.012 121.503 89.215 120.985 89.621C120.467 90.013 120.208 90.622 120.208 91.448H118.234C118.234 90.272 118.661 89.292 119.515 88.508C120.369 87.724 121.517 87.332 122.959 87.332C124.429 87.332 125.598 87.759 126.466 88.613C127.348 89.467 127.789 90.622 127.789 92.078V96.236H129.322V98H127.369C126.963 98 126.641 97.888 126.403 97.664C126.179 97.44 126.067 97.118 126.067 96.698V96.215L126.382 95.102H125.836C125.318 97.174 123.946 98.21 121.72 98.21C120.992 98.21 120.376 98.105 119.872 97.895C119.368 97.685 119.004 97.405 118.78 97.055C118.556 96.705 118.395 96.376 118.297 96.068C118.213 95.76 118.171 95.438 118.171 95.102ZM120.208 94.808C120.208 95.34 120.369 95.746 120.691 96.026C121.027 96.306 121.468 96.446 122.014 96.446C123.134 96.446 124.037 96.124 124.723 95.48C125.409 94.822 125.752 93.996 125.752 93.002L122.098 93.38C121.44 93.464 120.957 93.611 120.649 93.821C120.355 94.031 120.208 94.36 120.208 94.808ZM131.182 87.542H133.219V88.886L132.862 90.209H133.429C133.681 89.355 134.157 88.662 134.857 88.13C135.557 87.598 136.481 87.332 137.629 87.332C139.127 87.332 140.317 87.843 141.199 88.865C142.095 89.887 142.543 91.189 142.543 92.771C142.543 94.353 142.095 95.655 141.199 96.677C140.317 97.699 139.127 98.21 137.629 98.21C136.481 98.21 135.557 97.944 134.857 97.412C134.157 96.88 133.681 96.18 133.429 95.312H132.862L133.219 96.656V101.843H131.182V87.542ZM134.227 90.02C133.555 90.622 133.219 91.539 133.219 92.771C133.219 94.003 133.555 94.927 134.227 95.543C134.913 96.145 135.816 96.446 136.936 96.446C138.028 96.446 138.896 96.145 139.54 95.543C140.184 94.927 140.506 94.003 140.506 92.771C140.506 91.539 140.184 90.622 139.54 90.02C138.896 89.404 138.028 89.096 136.936 89.096C135.816 89.096 134.913 89.404 134.227 90.02ZM153.159 87.542V89.306H149.211V98H147.174V89.306H143.226V87.542H153.159ZM165.595 98H163.537V89.243L163.894 88.088H163.327L159.169 98H155.095V87.542H157.132V96.257L156.775 97.433H157.342L161.5 87.542H165.595V98ZM177.524 87.332C179.148 87.332 180.401 87.843 181.283 88.865C182.165 89.873 182.606 91.168 182.606 92.75C182.606 94.332 182.165 95.641 181.283 96.677C180.401 97.699 179.148 98.21 177.524 98.21C176.04 98.21 174.864 97.79 173.996 96.95C173.128 96.11 172.61 95.004 172.442 93.632H170.174V98H168.137V87.542H170.174V91.868H172.442C172.61 90.51 173.128 89.418 173.996 88.592C174.864 87.752 176.04 87.332 177.524 87.332ZM177.524 96.446C178.574 96.446 179.344 96.11 179.834 95.438C180.324 94.766 180.569 93.87 180.569 92.75C180.569 91.644 180.324 90.762 179.834 90.104C179.344 89.432 178.574 89.096 177.524 89.096C176.474 89.096 175.697 89.432 175.193 90.104C174.689 90.762 174.437 91.644 174.437 92.75C174.437 93.87 174.682 94.766 175.172 95.438C175.676 96.11 176.46 96.446 177.524 96.446Z" fill="#181818"/> <path d="M7.686 1.985C9.73 1.985 11.319 2.692 12.453 4.106C13.587 5.506 14.154 7.333 14.154 9.587C14.154 11.855 13.587 13.696 12.453 15.11C11.319 16.51 9.73 17.21 7.686 17.21C5.628 17.21 4.032 16.51 2.898 15.11C1.764 13.696 1.197 11.855 1.197 9.587C1.197 7.333 1.764 5.506 2.898 4.106C4.032 2.692 5.628 1.985 7.686 1.985ZM7.686 3.749C6.258 3.749 5.159 4.281 4.389 5.345C3.633 6.395 3.255 7.809 3.255 9.587C3.255 10.833 3.444 11.911 3.822 12.821L10.542 4.841C9.786 4.113 8.834 3.749 7.686 3.749ZM7.686 15.446C9.114 15.446 10.206 14.921 10.962 13.871C11.718 12.807 12.096 11.379 12.096 9.587C12.096 8.313 11.907 7.228 11.529 6.332L4.809 14.354C5.565 15.082 6.524 15.446 7.686 15.446ZM28.2158 12.128V13.892H26.3678V17H24.3098V13.892H16.4978V10.217C18.2618 9.559 19.7248 8.537 20.8868 7.151C22.0628 5.765 22.7488 4.113 22.9448 2.195H25.0028C24.4848 6.773 21.8318 10.014 17.0438 11.918V12.464L18.4508 12.128H24.3098V7.172H26.3678V12.128H28.2158Z" fill="#C8C6CD"/> <defs> <linearGradient id="paint0_linear_635_708" x1="22.8086" y1="201.1" x2="0.302341" y2="212.895" gradientUnits="userSpaceOnUse"> <stop offset="0.273341" stop-color="#C8C6CD"/> <stop offset="1" stop-color="#C8C6CD" stop-opacity="0"/> </linearGradient> <linearGradient id="paint1_linear_635_708" x1="41.8086" y1="220.1" x2="19.3023" y2="231.895" gradientUnits="userSpaceOnUse"> <stop offset="0.273341" stop-color="#C8C6CD"/> <stop offset="1" stop-color="#C8C6CD" stop-opacity="0"/> </linearGradient> <linearGradient id="paint2_linear_635_708" x1="60.8086" y1="240.1" x2="38.3023" y2="251.895" gradientUnits="userSpaceOnUse"> <stop offset="0.273341" stop-color="#C8C6CD"/> <stop offset="1" stop-color="#C8C6CD" stop-opacity="0"/> </linearGradient> </defs> </svg>