<svg xmlns="http://www.w3.org/2000/svg" width="260" height="260" viewBox="0 0 260 260" fill="none"> <path d="M1.281 65.587C1.281 63.375 1.911 61.555 3.171 60.127C4.445 58.699 6.167 57.985 8.337 57.985C10.255 57.985 11.809 58.517 12.999 59.581C14.203 60.631 14.917 62.073 15.141 63.907H13.104C12.936 62.577 12.439 61.555 11.613 60.841C10.787 60.113 9.695 59.749 8.337 59.749C6.741 59.749 5.502 60.281 4.62 61.345C3.752 62.395 3.318 63.809 3.318 65.587C3.318 67.365 3.752 68.786 4.62 69.85C5.488 70.914 6.727 71.446 8.337 71.446C9.695 71.446 10.787 71.082 11.613 70.354C12.439 69.626 12.936 68.597 13.104 67.267H15.141C14.917 69.115 14.203 70.571 12.999 71.635C11.809 72.685 10.255 73.21 8.337 73.21C6.167 73.21 4.445 72.496 3.171 71.068C1.911 69.64 1.281 67.813 1.281 65.587ZM16.9235 67.75C16.9235 66.168 17.4415 64.873 18.4775 63.865C19.5135 62.843 20.8645 62.332 22.5305 62.332C24.1825 62.332 25.5265 62.843 26.5625 63.865C27.5985 64.873 28.1165 66.168 28.1165 67.75C28.1165 69.346 27.5985 70.655 26.5625 71.677C25.5265 72.699 24.1825 73.21 22.5305 73.21C20.8645 73.21 19.5135 72.706 18.4775 71.698C17.4415 70.676 16.9235 69.36 16.9235 67.75ZM18.9605 67.75C18.9605 68.842 19.2755 69.731 19.9055 70.417C20.5355 71.103 21.4105 71.446 22.5305 71.446C23.6365 71.446 24.4975 71.103 25.1135 70.417C25.7435 69.731 26.0585 68.842 26.0585 67.75C26.0585 66.672 25.7435 65.797 25.1135 65.125C24.4975 64.439 23.6365 64.096 22.5305 64.096C21.4105 64.096 20.5355 64.439 19.9055 65.125C19.2755 65.797 18.9605 66.672 18.9605 67.75ZM30.4431 68.926H32.4171C32.4171 69.962 32.6131 70.676 33.0051 71.068C33.3971 71.46 34.0831 71.656 35.0631 71.656C35.8891 71.656 36.4771 71.516 36.8271 71.236C37.1771 70.942 37.3521 70.487 37.3521 69.871C37.3521 68.807 36.7501 68.275 35.5461 68.275H34.2021V66.721H35.5461C36.1201 66.721 36.5261 66.602 36.7641 66.364C37.0161 66.126 37.1421 65.769 37.1421 65.293C37.1421 64.831 36.9811 64.481 36.6591 64.243C36.3511 64.005 35.7911 63.886 34.9791 63.886C34.0551 63.886 33.4321 64.033 33.1101 64.327C32.7881 64.621 32.6271 65.118 32.6271 65.818H30.6531C30.6531 64.698 31.0101 63.837 31.7241 63.235C32.4521 62.633 33.5371 62.332 34.9791 62.332C36.2951 62.332 37.3101 62.591 38.0241 63.109C38.7521 63.613 39.1161 64.271 39.1161 65.083C39.1161 66.357 38.4091 67.064 36.9951 67.204V67.771C37.6951 67.855 38.2551 68.086 38.6751 68.464C39.1091 68.842 39.3261 69.388 39.3261 70.102C39.3261 71.054 38.9481 71.81 38.1921 72.37C37.4501 72.93 36.4071 73.21 35.0631 73.21C31.9831 73.21 30.4431 71.782 30.4431 68.926ZM52.6166 71.236V75.793H50.5796V73H42.8726V75.793H40.8356V71.236H42.2216C42.7816 70.186 43.1806 68.996 43.4186 67.666C43.6566 66.322 43.7756 64.614 43.7756 62.542H51.2306V71.236H52.6166ZM44.2586 71.236H49.1936V64.306H45.7916C45.6656 67.246 45.1546 69.556 44.2586 71.236ZM54.3298 70.102C54.3298 68.31 55.5198 67.274 57.8998 66.994L61.9108 66.574C61.8268 64.866 60.8958 64.012 59.1178 64.012C58.3198 64.012 57.6618 64.215 57.1438 64.621C56.6258 65.013 56.3668 65.622 56.3668 66.448H54.3928C54.3928 65.272 54.8198 64.292 55.6738 63.508C56.5278 62.724 57.6758 62.332 59.1178 62.332C60.5878 62.332 61.7568 62.759 62.6248 63.613C63.5068 64.467 63.9478 65.622 63.9478 67.078V71.236H65.4808V73H63.5278C63.1218 73 62.7998 72.888 62.5618 72.664C62.3378 72.44 62.2258 72.118 62.2258 71.698V71.215L62.5408 70.102H61.9948C61.4768 72.174 60.1048 73.21 57.8788 73.21C57.1508 73.21 56.5348 73.105 56.0308 72.895C55.5268 72.685 55.1628 72.405 54.9388 72.055C54.7148 71.705 54.5538 71.376 54.4558 71.068C54.3718 70.76 54.3298 70.438 54.3298 70.102ZM56.3668 69.808C56.3668 70.34 56.5278 70.746 56.8498 71.026C57.1858 71.306 57.6268 71.446 58.1728 71.446C59.2928 71.446 60.1958 71.124 60.8818 70.48C61.5678 69.822 61.9108 68.996 61.9108 68.002L58.2568 68.38C57.5988 68.464 57.1158 68.611 56.8078 68.821C56.5138 69.031 56.3668 69.36 56.3668 69.808ZM66.573 67.624C66.573 65.972 67.042 64.677 67.98 63.739C68.932 62.801 70.178 62.332 71.718 62.332C73.244 62.332 74.462 62.787 75.372 63.697C76.282 64.593 76.737 65.832 76.737 67.414V68.17H68.547C68.589 69.164 68.883 69.969 69.429 70.585C69.989 71.201 70.843 71.509 71.991 71.509C73.671 71.509 74.693 70.781 75.057 69.325H77.094C76.884 70.333 76.359 71.236 75.519 72.034C74.693 72.818 73.517 73.21 71.991 73.21C70.185 73.21 68.827 72.685 67.917 71.635C67.021 70.585 66.573 69.248 66.573 67.624ZM68.547 66.742H74.763C74.763 65.958 74.497 65.307 73.965 64.789C73.447 64.271 72.698 64.012 71.718 64.012C70.738 64.012 69.961 64.278 69.387 64.81C68.827 65.328 68.547 65.972 68.547 66.742ZM79.2976 73V62.542H83.3716L85.5136 72.433H86.0806L88.2226 62.542H92.3176V73H90.2806V64.285L90.6166 63.088H90.0706L87.8236 73H83.7706L81.5446 63.088H80.9776L81.3346 64.285V73H79.2976ZM10.794 87.542V89.306H6.846V98H4.809V89.306H0.861V87.542H10.794ZM11.4685 92.624C11.4685 90.972 11.9375 89.677 12.8755 88.739C13.8275 87.801 15.0735 87.332 16.6135 87.332C18.1395 87.332 19.3575 87.787 20.2675 88.697C21.1775 89.593 21.6325 90.832 21.6325 92.414V93.17H13.4425C13.4845 94.164 13.7785 94.969 14.3245 95.585C14.8845 96.201 15.7385 96.509 16.8865 96.509C18.5665 96.509 19.5885 95.781 19.9525 94.325H21.9895C21.7795 95.333 21.2545 96.236 20.4145 97.034C19.5885 97.818 18.4125 98.21 16.8865 98.21C15.0805 98.21 13.7225 97.685 12.8125 96.635C11.9165 95.585 11.4685 94.248 11.4685 92.624ZM13.4425 91.742H19.6585C19.6585 90.958 19.3925 90.307 18.8605 89.789C18.3425 89.271 17.5935 89.012 16.6135 89.012C15.6335 89.012 14.8565 89.278 14.2825 89.81C13.7225 90.328 13.4425 90.972 13.4425 91.742ZM22.6608 98L26.6088 93.044V92.477L22.6608 87.542H25.0758L28.0998 91.574L31.1448 87.542H33.5598L29.6118 92.477V93.044L33.5598 98H31.1448L28.0998 93.947L25.0758 98H22.6608ZM43.426 87.542H45.484V98H43.426V93.632H37.735V98H35.698V87.542H37.735V91.868H43.426V87.542ZM47.8288 92.75C47.8288 91.168 48.3468 89.873 49.3828 88.865C50.4188 87.843 51.7698 87.332 53.4358 87.332C55.0878 87.332 56.4318 87.843 57.4678 88.865C58.5038 89.873 59.0218 91.168 59.0218 92.75C59.0218 94.346 58.5038 95.655 57.4678 96.677C56.4318 97.699 55.0878 98.21 53.4358 98.21C51.7698 98.21 50.4188 97.706 49.3828 96.698C48.3468 95.676 47.8288 94.36 47.8288 92.75ZM49.8658 92.75C49.8658 93.842 50.1808 94.731 50.8108 95.417C51.4408 96.103 52.3158 96.446 53.4358 96.446C54.5418 96.446 55.4028 96.103 56.0188 95.417C56.6488 94.731 56.9638 93.842 56.9638 92.75C56.9638 91.672 56.6488 90.797 56.0188 90.125C55.4028 89.439 54.5418 89.096 53.4358 89.096C52.3158 89.096 51.4408 89.439 50.8108 90.125C50.1808 90.797 49.8658 91.672 49.8658 92.75ZM69.7154 87.542V98H67.6574V89.306H63.9404C63.9264 90.342 63.8984 91.203 63.8564 91.889C63.8284 92.575 63.7654 93.282 63.6674 94.01C63.5834 94.724 63.4434 95.305 63.2474 95.753C63.0654 96.187 62.8274 96.593 62.5334 96.971C62.2534 97.335 61.8894 97.601 61.4414 97.769C61.0074 97.923 60.4894 98 59.8874 98V96.236C60.7974 96.236 61.3574 95.634 61.5674 94.43C61.7914 93.226 61.9034 90.93 61.9034 87.542H69.7154ZM72.2536 92.75C72.2536 91.168 72.7716 89.873 73.8076 88.865C74.8436 87.843 76.1946 87.332 77.8606 87.332C79.5126 87.332 80.8566 87.843 81.8926 88.865C82.9286 89.873 83.4466 91.168 83.4466 92.75C83.4466 94.346 82.9286 95.655 81.8926 96.677C80.8566 97.699 79.5126 98.21 77.8606 98.21C76.1946 98.21 74.8436 97.706 73.8076 96.698C72.7716 95.676 72.2536 94.36 72.2536 92.75ZM74.2906 92.75C74.2906 93.842 74.6056 94.731 75.2356 95.417C75.8656 96.103 76.7406 96.446 77.8606 96.446C78.9666 96.446 79.8276 96.103 80.4436 95.417C81.0736 94.731 81.3886 93.842 81.3886 92.75C81.3886 91.672 81.0736 90.797 80.4436 90.125C79.8276 89.439 78.9666 89.096 77.8606 89.096C76.7406 89.096 75.8656 89.439 75.2356 90.125C74.6056 90.797 74.2906 91.672 74.2906 92.75ZM85.6346 98V87.542H93.2366V89.306H87.6716V98H85.6346ZM105.609 98H103.551V89.243L103.908 88.088H103.341L99.1832 98H95.1092V87.542H97.1462V96.257L96.7892 97.433H97.3562L101.514 87.542H105.609V98ZM116.132 87.542H118.169V98H116.132V94.22L109.664 94.64C108.656 94.696 108.152 94.199 108.152 93.149V87.542H110.189V92.855L116.132 92.456V87.542ZM120.734 92.624C120.734 90.972 121.203 89.677 122.141 88.739C123.093 87.801 124.339 87.332 125.879 87.332C127.405 87.332 128.623 87.787 129.533 88.697C130.443 89.593 130.898 90.832 130.898 92.414V93.17H122.708C122.75 94.164 123.044 94.969 123.59 95.585C124.15 96.201 125.004 96.509 126.152 96.509C127.832 96.509 128.854 95.781 129.218 94.325H131.255C131.045 95.333 130.52 96.236 129.68 97.034C128.854 97.818 127.678 98.21 126.152 98.21C124.346 98.21 122.988 97.685 122.078 96.635C121.182 95.585 120.734 94.248 120.734 92.624ZM122.708 91.742H128.924C128.924 90.958 128.658 90.307 128.126 89.789C127.608 89.271 126.859 89.012 125.879 89.012C124.899 89.012 124.122 89.278 123.548 89.81C122.988 90.328 122.708 90.972 122.708 91.742ZM133.039 92.75C133.039 91.168 133.529 89.873 134.509 88.865C135.489 87.843 136.805 87.332 138.457 87.332C139.703 87.332 140.823 87.689 141.817 88.403C142.811 89.117 143.364 90.174 143.476 91.574H141.418C141.292 90.72 140.963 90.097 140.431 89.705C139.899 89.299 139.241 89.096 138.457 89.096C137.351 89.096 136.511 89.439 135.937 90.125C135.363 90.797 135.076 91.672 135.076 92.75C135.076 93.842 135.363 94.731 135.937 95.417C136.511 96.103 137.351 96.446 138.457 96.446C139.241 96.446 139.899 96.25 140.431 95.858C140.963 95.452 141.292 94.822 141.418 93.968H143.476C143.364 95.368 142.811 96.425 141.817 97.139C140.823 97.853 139.703 98.21 138.457 98.21C136.805 98.21 135.489 97.699 134.509 96.677C133.529 95.655 133.039 94.346 133.039 92.75ZM154.816 98H152.485L149.062 93.59C148.838 93.618 148.656 93.632 148.516 93.632H147.718V98H145.681V87.542H147.718V91.826H148.579L151.183 88.319C151.561 87.801 152.114 87.542 152.842 87.542H154.543V89.306H152.842L150.532 92.372L154.816 98ZM164.909 87.542H167.177L162.578 97.79V100.772C162.578 101.724 162.074 102.179 161.066 102.137L156.803 101.948V100.184L160.52 100.331V97.79L155.921 87.542H158.168L161.276 95.186V96.173H161.822V95.186L164.909 87.542ZM178.693 87.332C180.317 87.332 181.57 87.843 182.452 88.865C183.334 89.873 183.775 91.168 183.775 92.75C183.775 94.332 183.334 95.641 182.452 96.677C181.57 97.699 180.317 98.21 178.693 98.21C177.209 98.21 176.033 97.79 175.165 96.95C174.297 96.11 173.779 95.004 173.611 93.632H171.343V98H169.306V87.542H171.343V91.868H173.611C173.779 90.51 174.297 89.418 175.165 88.592C176.033 87.752 177.209 87.332 178.693 87.332ZM178.693 96.446C179.743 96.446 180.513 96.11 181.003 95.438C181.493 94.766 181.738 93.87 181.738 92.75C181.738 91.644 181.493 90.762 181.003 90.104C180.513 89.432 179.743 89.096 178.693 89.096C177.643 89.096 176.866 89.432 176.362 90.104C175.858 90.762 175.606 91.644 175.606 92.75C175.606 93.87 175.851 94.766 176.341 95.438C176.845 96.11 177.629 96.446 178.693 96.446ZM10.626 123H8.295L4.872 118.59C4.648 118.618 4.466 118.632 4.326 118.632H3.528V123H1.491V112.542H3.528V116.826H4.389L6.993 113.319C7.371 112.801 7.924 112.542 8.652 112.542H10.353V114.306H8.652L6.342 117.372L10.626 123ZM12.1452 120.102C12.1452 118.31 13.3352 117.274 15.7152 116.994L19.7262 116.574C19.6422 114.866 18.7112 114.012 16.9332 114.012C16.1352 114.012 15.4772 114.215 14.9592 114.621C14.4412 115.013 14.1822 115.622 14.1822 116.448H12.2082C12.2082 115.272 12.6352 114.292 13.4892 113.508C14.3432 112.724 15.4912 112.332 16.9332 112.332C18.4032 112.332 19.5722 112.759 20.4402 113.613C21.3222 114.467 21.7632 115.622 21.7632 117.078V121.236H23.2962V123H21.3432C20.9372 123 20.6152 122.888 20.3772 122.664C20.1532 122.44 20.0412 122.118 20.0412 121.698V121.215L20.3562 120.102H19.8102C19.2922 122.174 17.9202 123.21 15.6942 123.21C14.9662 123.21 14.3502 123.105 13.8462 122.895C13.3422 122.685 12.9782 122.405 12.7542 122.055C12.5302 121.705 12.3692 121.376 12.2712 121.068C12.1872 120.76 12.1452 120.438 12.1452 120.102ZM14.1822 119.808C14.1822 120.34 14.3432 120.746 14.6652 121.026C15.0012 121.306 15.4422 121.446 15.9882 121.446C17.1082 121.446 18.0112 121.124 18.6972 120.48C19.3832 119.822 19.7262 118.996 19.7262 118.002L16.0722 118.38C15.4142 118.464 14.9312 118.611 14.6232 118.821C14.3292 119.031 14.1822 119.36 14.1822 119.808ZM25.157 112.542H27.194V113.886L26.837 115.209H27.404C27.656 114.355 28.132 113.662 28.832 113.13C29.532 112.598 30.456 112.332 31.604 112.332C33.102 112.332 34.292 112.843 35.174 113.865C36.07 114.887 36.518 116.189 36.518 117.771C36.518 119.353 36.07 120.655 35.174 121.677C34.292 122.699 33.102 123.21 31.604 123.21C30.456 123.21 29.532 122.944 28.832 122.412C28.132 121.88 27.656 121.18 27.404 120.312H26.837L27.194 121.656V126.843H25.157V112.542ZM28.202 115.02C27.53 115.622 27.194 116.539 27.194 117.771C27.194 119.003 27.53 119.927 28.202 120.543C28.888 121.145 29.791 121.446 30.911 121.446C32.003 121.446 32.871 121.145 33.515 120.543C34.159 119.927 34.481 119.003 34.481 117.771C34.481 116.539 34.159 115.622 33.515 115.02C32.871 114.404 32.003 114.096 30.911 114.096C29.791 114.096 28.888 114.404 28.202 115.02ZM47.1338 112.542V114.306H43.1858V123H41.1488V114.306H37.2008V112.542H47.1338ZM57.8373 112.542H60.1053L55.5063 122.79V125.772C55.5063 126.724 55.0023 127.179 53.9943 127.137L49.7313 126.948V125.184L53.4483 125.331V122.79L48.8493 112.542H51.0963L54.2043 120.186V121.173H54.7503V120.186L57.8373 112.542Z" fill="#181818"/> <path d="M7.686 1.985C9.73 1.985 11.319 2.692 12.453 4.106C13.587 5.506 14.154 7.333 14.154 9.587C14.154 11.855 13.587 13.696 12.453 15.11C11.319 16.51 9.73 17.21 7.686 17.21C5.628 17.21 4.032 16.51 2.898 15.11C1.764 13.696 1.197 11.855 1.197 9.587C1.197 7.333 1.764 5.506 2.898 4.106C4.032 2.692 5.628 1.985 7.686 1.985ZM7.686 3.749C6.258 3.749 5.159 4.281 4.389 5.345C3.633 6.395 3.255 7.809 3.255 9.587C3.255 10.833 3.444 11.911 3.822 12.821L10.542 4.841C9.786 4.113 8.834 3.749 7.686 3.749ZM7.686 15.446C9.114 15.446 10.206 14.921 10.962 13.871C11.718 12.807 12.096 11.379 12.096 9.587C12.096 8.313 11.907 7.228 11.529 6.332L4.809 14.354C5.565 15.082 6.524 15.446 7.686 15.446ZM16.1472 11.708H18.2052C18.2052 14.2 19.6332 15.446 22.4892 15.446C23.8052 15.446 24.8132 15.11 25.5132 14.438C26.2132 13.752 26.5632 12.772 26.5632 11.498C26.5632 10.406 26.2972 9.566 25.7652 8.978C25.2472 8.39 24.4632 8.096 23.4132 8.096C21.8592 8.096 20.6482 8.733 19.7802 10.007L17.2602 8.663V2.195H27.5292V3.959H19.2972V7.256L18.9612 8.579L19.4232 8.852C19.8432 8.082 20.4382 7.473 21.2082 7.025C21.9782 6.563 22.8672 6.332 23.8752 6.332C25.3172 6.332 26.4652 6.801 27.3192 7.739C28.1732 8.663 28.6002 9.937 28.6002 11.561C28.6002 13.353 28.0472 14.746 26.9412 15.74C25.8352 16.72 24.3512 17.21 22.4892 17.21C20.5292 17.21 18.9822 16.741 17.8482 15.803C16.7142 14.851 16.1472 13.486 16.1472 11.708Z" fill="#C8C6CD"/> <path fill-rule="evenodd" clip-rule="evenodd" d="M26.4545 204L61 210.364L37.3636 254.455L1 245.364L26.4545 204ZM23.8517 220.63L19 228.019L23.8517 237.454L33.4715 239.29L36.0646 236.827L41 229.397L36.0646 219.92L26.4867 218L23.8517 220.63ZM27.4902 226.558L27.5321 226.14L27.783 226.099L28.3267 226.14L29.0378 226.266L30.0416 226.683L30.7526 227.142L31.3381 227.727L31.7982 228.395L32.1746 229.104L32.4674 229.981L32.5092 230.607L32.4674 231.15L32.2583 231.192H31.5891L31.0454 231.066L30.1252 230.691L29.1632 230.064L28.4104 229.23L27.9085 228.478L27.6157 227.518L27.4902 226.558Z" fill="url(#paint0_linear_635_899)"/> <path d="M61 210.364L26.4545 204L1 245.364L37.3636 254.455L61 210.364Z" stroke="#939195"/> <path d="M23.8517 220.63L19 228.019L23.8517 237.454L33.4715 239.29M23.8517 220.63L33.4715 222.634M23.8517 220.63L26.4867 218L36.0646 219.92M33.4715 222.634L38.1977 232.068M33.4715 222.634L36.0646 219.92M38.1977 232.068L33.4715 239.29M38.1977 232.068L41 229.397M33.4715 239.29L36.0646 236.827L41 229.397M36.0646 219.92L41 229.397" stroke="#939195"/> <ellipse rx="4.18242" ry="3.45823" transform="matrix(0.707778 0.706435 -0.707778 0.706435 28.6571 229.945)" stroke="#939195"/> <path d="M27.5469 226.131C27.3706 227.348 27.8392 228.744 28.9041 229.806C29.9348 230.835 31.2779 231.306 32.4686 231.176" stroke="#939195"/> <defs> <linearGradient id="paint0_linear_635_899" x1="60.478" y1="208.977" x2="3.10753" y2="243.578" gradientUnits="userSpaceOnUse"> <stop offset="0.273341" stop-color="#C8C6CD"/> <stop offset="1" stop-color="#C8C6CD" stop-opacity="0"/> </linearGradient> </defs> </svg>