<svg xmlns="http://www.w3.org/2000/svg" width="260" height="260" viewBox="0 0 260 260" fill="none"> <rect x="259" width="1" height="260" fill="#C8C6CD"/> <path d="M1.491 73V58.195H5.649C7.637 58.195 9.093 58.454 10.017 58.972C10.955 59.49 11.424 60.442 11.424 61.828C11.424 63.732 10.402 64.768 8.358 64.936V65.482C11.13 65.566 12.516 66.763 12.516 69.073C12.516 70.515 11.998 71.53 10.962 72.118C9.926 72.706 8.428 73 6.468 73H1.491ZM3.528 64.411H5.796C7.042 64.411 7.952 64.271 8.526 63.991C9.1 63.697 9.387 63.095 9.387 62.185C9.387 61.779 9.324 61.436 9.198 61.156C9.086 60.876 8.939 60.659 8.757 60.505C8.589 60.337 8.337 60.218 8.001 60.148C7.665 60.064 7.343 60.015 7.035 60.001C6.727 59.973 6.314 59.959 5.796 59.959H3.528V64.411ZM3.528 71.236H6.615C7.959 71.236 8.939 71.075 9.555 70.753C10.171 70.417 10.479 69.738 10.479 68.716C10.479 67.75 10.157 67.085 9.513 66.721C8.883 66.357 7.917 66.175 6.615 66.175H3.528V71.236ZM19.3668 65.377C22.4328 65.377 23.9658 66.651 23.9658 69.199C23.9658 71.733 22.4328 73 19.3668 73H15.2928V62.542H17.3298V65.377H19.3668ZM25.4568 73V62.542H27.4938V73H25.4568ZM17.3298 71.236H19.1568C20.1228 71.236 20.8228 71.11 21.2568 70.858C21.7048 70.592 21.9288 70.039 21.9288 69.199C21.9288 68.345 21.7048 67.792 21.2568 67.54C20.8228 67.274 20.1228 67.141 19.1568 67.141H17.3298V71.236ZM29.8385 73L33.7865 68.044V67.477L29.8385 62.542H32.2535L35.2775 66.574L38.3225 62.542H40.7375L36.7895 67.477V68.044L40.7375 73H38.3225L35.2775 68.947L32.2535 73H29.8385ZM41.4099 67.75C41.4099 66.168 41.9279 64.873 42.9639 63.865C43.9999 62.843 45.3509 62.332 47.0169 62.332C48.6689 62.332 50.0129 62.843 51.0489 63.865C52.0849 64.873 52.6029 66.168 52.6029 67.75C52.6029 69.346 52.0849 70.655 51.0489 71.677C50.0129 72.699 48.6689 73.21 47.0169 73.21C45.3509 73.21 43.9999 72.706 42.9639 71.698C41.9279 70.676 41.4099 69.36 41.4099 67.75ZM43.4469 67.75C43.4469 68.842 43.7619 69.731 44.3919 70.417C45.0219 71.103 45.8969 71.446 47.0169 71.446C48.1229 71.446 48.9839 71.103 49.5999 70.417C50.2299 69.731 50.5449 68.842 50.5449 67.75C50.5449 66.672 50.2299 65.797 49.5999 65.125C48.9839 64.439 48.1229 64.096 47.0169 64.096C45.8969 64.096 45.0219 64.439 44.3919 65.125C43.7619 65.797 43.4469 66.672 43.4469 67.75ZM65.2495 71.236V75.793H63.2125V73H55.5055V75.793H53.4685V71.236H54.8545C55.4145 70.186 55.8135 68.996 56.0515 67.666C56.2895 66.322 56.4085 64.614 56.4085 62.542H63.8635V71.236H65.2495ZM56.8915 71.236H61.8265V64.306H58.4245C58.2985 67.246 57.7875 69.556 56.8915 71.236ZM77.8826 73H75.8246V64.243L76.1816 63.088H75.6146L71.4566 73H67.3826V62.542H69.4196V71.257L69.0626 72.433H69.6296L73.7876 62.542H77.8826V73ZM80.4256 73V62.542H84.4996L86.6416 72.433H87.2086L89.3506 62.542H93.4456V73H91.4086V64.285L91.7446 63.088H91.1986L88.9516 73H84.8986L82.6726 63.088H82.1056L82.4626 64.285V73H80.4256ZM9.219 87.542H11.277V98H9.219V93.632H3.528V98H1.491V87.542H3.528V91.868H9.219V87.542ZM13.8269 95.102C13.8269 93.31 15.0169 92.274 17.3969 91.994L21.4079 91.574C21.3239 89.866 20.3929 89.012 18.6149 89.012C17.8169 89.012 17.1589 89.215 16.6409 89.621C16.1229 90.013 15.8639 90.622 15.8639 91.448H13.8899C13.8899 90.272 14.3169 89.292 15.1709 88.508C16.0249 87.724 17.1729 87.332 18.6149 87.332C20.0849 87.332 21.2539 87.759 22.1219 88.613C23.0039 89.467 23.4449 90.622 23.4449 92.078V96.236H24.9779V98H23.0249C22.6189 98 22.2969 97.888 22.0589 97.664C21.8349 97.44 21.7229 97.118 21.7229 96.698V96.215L22.0379 95.102H21.4919C20.9739 97.174 19.6019 98.21 17.3759 98.21C16.6479 98.21 16.0319 98.105 15.5279 97.895C15.0239 97.685 14.6599 97.405 14.4359 97.055C14.2119 96.705 14.0509 96.376 13.9529 96.068C13.8689 95.76 13.8269 95.438 13.8269 95.102ZM15.8639 94.808C15.8639 95.34 16.0249 95.746 16.3469 96.026C16.6829 96.306 17.1239 96.446 17.6699 96.446C18.7899 96.446 19.6929 96.124 20.3789 95.48C21.0649 94.822 21.4079 93.996 21.4079 93.002L17.7539 93.38C17.0959 93.464 16.6129 93.611 16.3049 93.821C16.0109 94.031 15.8639 94.36 15.8639 94.808ZM42.6983 87.542V98H40.6613V89.306H35.6843V98H33.6473V87.542H42.6983ZM55.0933 87.542V98H53.0353V89.306H49.3183C49.3043 90.342 49.2763 91.203 49.2343 91.889C49.2063 92.575 49.1433 93.282 49.0453 94.01C48.9613 94.724 48.8213 95.305 48.6253 95.753C48.4433 96.187 48.2053 96.593 47.9113 96.971C47.6313 97.335 47.2673 97.601 46.8193 97.769C46.3853 97.923 45.8673 98 45.2653 98V96.236C46.1753 96.236 46.7353 95.634 46.9453 94.43C47.1693 93.226 47.2813 90.93 47.2813 87.542H55.0933ZM57.6315 95.102C57.6315 93.31 58.8215 92.274 61.2015 91.994L65.2125 91.574C65.1285 89.866 64.1975 89.012 62.4195 89.012C61.6215 89.012 60.9635 89.215 60.4455 89.621C59.9275 90.013 59.6685 90.622 59.6685 91.448H57.6945C57.6945 90.272 58.1215 89.292 58.9755 88.508C59.8295 87.724 60.9775 87.332 62.4195 87.332C63.8895 87.332 65.0585 87.759 65.9265 88.613C66.8085 89.467 67.2495 90.622 67.2495 92.078V96.236H68.7825V98H66.8295C66.4235 98 66.1015 97.888 65.8635 97.664C65.6395 97.44 65.5275 97.118 65.5275 96.698V96.215L65.8425 95.102H65.2965C64.7785 97.174 63.4065 98.21 61.1805 98.21C60.4525 98.21 59.8365 98.105 59.3325 97.895C58.8285 97.685 58.4645 97.405 58.2405 97.055C58.0165 96.705 57.8555 96.376 57.7575 96.068C57.6735 95.76 57.6315 95.438 57.6315 95.102ZM59.6685 94.808C59.6685 95.34 59.8295 95.746 60.1515 96.026C60.4875 96.306 60.9285 96.446 61.4745 96.446C62.5945 96.446 63.4975 96.124 64.1835 95.48C64.8695 94.822 65.2125 93.996 65.2125 93.002L61.5585 93.38C60.9005 93.464 60.4175 93.611 60.1095 93.821C59.8155 94.031 59.6685 94.36 59.6685 94.808ZM78.3713 87.542H80.4293V98H78.3713V93.632H72.6803V98H70.6433V87.542H72.6803V91.868H78.3713V87.542ZM82.7741 92.75C82.7741 91.168 83.2921 89.873 84.3281 88.865C85.3641 87.843 86.7151 87.332 88.3811 87.332C90.0331 87.332 91.3771 87.843 92.4131 88.865C93.4491 89.873 93.9671 91.168 93.9671 92.75C93.9671 94.346 93.4491 95.655 92.4131 96.677C91.3771 97.699 90.0331 98.21 88.3811 98.21C86.7151 98.21 85.3641 97.706 84.3281 96.698C83.2921 95.676 82.7741 94.36 82.7741 92.75ZM84.8111 92.75C84.8111 93.842 85.1261 94.731 85.7561 95.417C86.3861 96.103 87.2611 96.446 88.3811 96.446C89.4871 96.446 90.3481 96.103 90.9641 95.417C91.5941 94.731 91.9091 93.842 91.9091 92.75C91.9091 91.672 91.5941 90.797 90.9641 90.125C90.3481 89.439 89.4871 89.096 88.3811 89.096C87.2611 89.096 86.3861 89.439 85.7561 90.125C85.1261 90.797 84.8111 91.672 84.8111 92.75ZM96.1551 98V87.542H100.145C101.531 87.542 102.588 87.724 103.316 88.088C104.044 88.452 104.408 89.103 104.408 90.041C104.408 90.811 104.198 91.364 103.778 91.7C103.358 92.022 102.868 92.204 102.308 92.246V92.792C104.226 92.82 105.185 93.639 105.185 95.249C105.185 97.083 103.764 98 100.922 98H96.1551ZM98.1291 91.805H100.145C101.027 91.805 101.629 91.728 101.951 91.574C102.273 91.406 102.434 91.007 102.434 90.377C102.434 89.845 102.266 89.502 101.93 89.348C101.594 89.18 100.999 89.096 100.145 89.096H98.1291V91.805ZM98.1291 96.446H100.922C101.748 96.446 102.336 96.348 102.686 96.152C103.036 95.956 103.211 95.564 103.211 94.976C103.211 94.332 103.036 93.905 102.686 93.695C102.336 93.471 101.748 93.359 100.922 93.359H98.1291V96.446ZM111.59 90.377C114.656 90.377 116.189 91.651 116.189 94.199C116.189 96.733 114.656 98 111.59 98H107.516V87.542H109.553V90.377H111.59ZM117.68 98V87.542H119.717V98H117.68ZM109.553 96.236H111.38C112.346 96.236 113.046 96.11 113.48 95.858C113.928 95.592 114.152 95.039 114.152 94.199C114.152 93.345 113.928 92.792 113.48 92.54C113.046 92.274 112.346 92.141 111.38 92.141H109.553V96.236ZM122.272 92.624C122.272 90.972 122.741 89.677 123.679 88.739C124.631 87.801 125.877 87.332 127.417 87.332C128.943 87.332 130.161 87.787 131.071 88.697C131.981 89.593 132.436 90.832 132.436 92.414V93.17H124.246C124.288 94.164 124.582 94.969 125.128 95.585C125.688 96.201 126.542 96.509 127.69 96.509C129.37 96.509 130.392 95.781 130.756 94.325H132.793C132.583 95.333 132.058 96.236 131.218 97.034C130.392 97.818 129.216 98.21 127.69 98.21C125.884 98.21 124.526 97.685 123.616 96.635C122.72 95.585 122.272 94.248 122.272 92.624ZM124.246 91.742H130.462C130.462 90.958 130.196 90.307 129.664 89.789C129.146 89.271 128.397 89.012 127.417 89.012C126.437 89.012 125.66 89.278 125.086 89.81C124.526 90.328 124.246 90.972 124.246 91.742ZM1.491 123V112.542H5.565L7.707 122.433H8.274L10.416 112.542H14.511V123H12.474V114.285L12.81 113.088H12.264L10.017 123H5.964L3.738 113.088H3.171L3.528 114.285V123H1.491ZM17.0671 117.75C17.0671 116.168 17.5851 114.873 18.6211 113.865C19.6571 112.843 21.0081 112.332 22.6741 112.332C24.3261 112.332 25.6701 112.843 26.7061 113.865C27.7421 114.873 28.2601 116.168 28.2601 117.75C28.2601 119.346 27.7421 120.655 26.7061 121.677C25.6701 122.699 24.3261 123.21 22.6741 123.21C21.0081 123.21 19.6571 122.706 18.6211 121.698C17.5851 120.676 17.0671 119.36 17.0671 117.75ZM19.1041 117.75C19.1041 118.842 19.4191 119.731 20.0491 120.417C20.6791 121.103 21.5541 121.446 22.6741 121.446C23.7801 121.446 24.6411 121.103 25.2571 120.417C25.8871 119.731 26.2021 118.842 26.2021 117.75C26.2021 116.672 25.8871 115.797 25.2571 115.125C24.6411 114.439 23.7801 114.096 22.6741 114.096C21.5541 114.096 20.6791 114.439 20.0491 115.125C19.4191 115.797 19.1041 116.672 19.1041 117.75ZM45.7277 121.236C46.1617 121.236 46.4977 121.355 46.7357 121.593C46.9737 121.831 47.0927 122.167 47.0927 122.601V125.793H45.0347V123H30.7967V112.542H32.8337V121.236H36.4457V112.542H38.4827V121.236H42.0947V112.542H44.1317V121.236H45.7277ZM56.9407 112.542H58.9987V123H56.9407V118.632H51.2497V123H49.2127V112.542H51.2497V116.868H56.9407V112.542ZM61.3435 117.75C61.3435 116.168 61.8615 114.873 62.8975 113.865C63.9335 112.843 65.2845 112.332 66.9505 112.332C68.6025 112.332 69.9465 112.843 70.9825 113.865C72.0185 114.873 72.5365 116.168 72.5365 117.75C72.5365 119.346 72.0185 120.655 70.9825 121.677C69.9465 122.699 68.6025 123.21 66.9505 123.21C65.2845 123.21 63.9335 122.706 62.8975 121.698C61.8615 120.676 61.3435 119.36 61.3435 117.75ZM63.3805 117.75C63.3805 118.842 63.6955 119.731 64.3255 120.417C64.9555 121.103 65.8305 121.446 66.9505 121.446C68.0565 121.446 68.9175 121.103 69.5335 120.417C70.1635 119.731 70.4785 118.842 70.4785 117.75C70.4785 116.672 70.1635 115.797 69.5335 115.125C68.9175 114.439 68.0565 114.096 66.9505 114.096C65.8305 114.096 64.9555 114.439 64.3255 115.125C63.6955 115.797 63.3805 116.672 63.3805 117.75ZM74.3044 117.75C74.3044 116.168 74.7944 114.873 75.7744 113.865C76.7544 112.843 78.0704 112.332 79.7224 112.332C80.9684 112.332 82.0884 112.689 83.0824 113.403C84.0764 114.117 84.6294 115.174 84.7414 116.574H82.6834C82.5574 115.72 82.2284 115.097 81.6964 114.705C81.1644 114.299 80.5064 114.096 79.7224 114.096C78.6164 114.096 77.7764 114.439 77.2024 115.125C76.6284 115.797 76.3414 116.672 76.3414 117.75C76.3414 118.842 76.6284 119.731 77.2024 120.417C77.7764 121.103 78.6164 121.446 79.7224 121.446C80.5064 121.446 81.1644 121.25 81.6964 120.858C82.2284 120.452 82.5574 119.822 82.6834 118.968H84.7414C84.6294 120.368 84.0764 121.425 83.0824 122.139C82.0884 122.853 80.9684 123.21 79.7224 123.21C78.0704 123.21 76.7544 122.699 75.7744 121.677C74.7944 120.655 74.3044 119.346 74.3044 117.75ZM95.5528 112.542V114.306H91.6048V123H89.5678V114.306H85.6198V112.542H95.5528ZM107.988 123H105.93V114.243L106.287 113.088H105.72L101.562 123H97.4881V112.542H99.5251V121.257L99.1681 122.433H99.7351L103.893 112.542H107.988V123Z" fill="#181818"/> <path fill-rule="evenodd" clip-rule="evenodd" d="M1 209.019L5.85171 201.63L8.48669 199L18.0646 200.92L23 210.397L18.0646 217.827L15.4715 220.29L5.85171 218.454L1 209.019ZM9.53304 207.141L9.49121 207.558L9.61669 208.518L9.90946 209.478L10.4114 210.23L11.1642 211.065L12.1262 211.691L13.0463 212.066L13.5901 212.192H14.2593L14.4684 212.15L14.5102 211.607L14.4684 210.981L14.1756 210.104L13.7992 209.395L13.3391 208.727L12.7536 208.142L12.0425 207.683L11.0387 207.266L10.3277 207.141L9.78399 207.099L9.53304 207.141Z" fill="url(#paint0_linear_635_854)"/> <path d="M5.85171 201.63L1 209.019L5.85171 218.454L15.4715 220.29M5.85171 201.63L15.4715 203.634M5.85171 201.63L8.48669 199L18.0646 200.92M15.4715 203.634L20.1977 213.068M15.4715 203.634L18.0646 200.92M20.1977 213.068L15.4715 220.29M20.1977 213.068L23 210.397M15.4715 220.29L18.0646 217.827L23 210.397M18.0646 200.92L23 210.397" stroke="#939195"/> <ellipse rx="4.18242" ry="3.45823" transform="matrix(0.707778 0.706435 -0.707778 0.706435 10.6571 210.945)" stroke="#939195"/> <path d="M9.5459 207.131C9.36961 208.348 9.83823 209.744 10.9032 210.806C11.9338 211.835 13.2769 212.306 14.4676 212.176" stroke="#939195"/> <path fill-rule="evenodd" clip-rule="evenodd" d="M39 209.019L43.8517 201.63L46.4867 199L56.0646 200.92L61 210.397L56.0646 217.827L53.4715 220.29L43.8517 218.454L39 209.019ZM47.533 207.141L47.4912 207.558L47.6167 208.518L47.9095 209.478L48.4114 210.23L49.1642 211.065L50.1262 211.691L51.0463 212.066L51.5901 212.192H52.2593L52.4684 212.15L52.5102 211.607L52.4684 210.981L52.1756 210.104L51.7992 209.395L51.3391 208.727L50.7536 208.142L50.0425 207.683L49.0387 207.266L48.3277 207.141L47.784 207.099L47.533 207.141Z" fill="url(#paint1_linear_635_854)"/> <path d="M43.8517 201.63L39 209.019L43.8517 218.454L53.4715 220.29M43.8517 201.63L53.4715 203.634M43.8517 201.63L46.4867 199L56.0646 200.92M53.4715 203.634L58.1977 213.068M53.4715 203.634L56.0646 200.92M58.1977 213.068L53.4715 220.29M58.1977 213.068L61 210.397M53.4715 220.29L56.0646 217.827L61 210.397M56.0646 200.92L61 210.397" stroke="#939195"/> <ellipse rx="4.18242" ry="3.45823" transform="matrix(0.707778 0.706435 -0.707778 0.706435 48.6571 210.945)" stroke="#939195"/> <path d="M47.5459 207.131C47.3696 208.348 47.8382 209.744 48.9032 210.806C49.9338 211.835 51.2769 212.306 52.4676 212.176" stroke="#939195"/> <path fill-rule="evenodd" clip-rule="evenodd" d="M20 228.019L24.8517 220.63L27.4867 218L37.0646 219.92L42 229.397L37.0646 236.827L34.4715 239.29L24.8517 237.454L20 228.019ZM28.5321 226.14L28.4902 226.558L28.6157 227.518L28.9085 228.478L29.4104 229.23L30.1632 230.064L31.1252 230.691L32.0454 231.066L32.5891 231.192H33.2583L33.4674 231.15L33.5092 230.607L33.4674 229.981L33.1746 229.104L32.7982 228.395L32.3381 227.727L31.7526 227.142L31.0416 226.683L30.0378 226.266L29.3267 226.14L28.783 226.099L28.5321 226.14Z" fill="url(#paint2_linear_635_854)"/> <path d="M24.8517 220.63L20 228.019L24.8517 237.454L34.4715 239.29M24.8517 220.63L34.4715 222.634M24.8517 220.63L27.4867 218L37.0646 219.92M34.4715 222.634L39.1977 232.068M34.4715 222.634L37.0646 219.92M39.1977 232.068L34.4715 239.29M39.1977 232.068L42 229.397M34.4715 239.29L37.0646 236.827L42 229.397M37.0646 219.92L42 229.397" stroke="#939195"/> <ellipse rx="4.18242" ry="3.45823" transform="matrix(0.707778 0.706435 -0.707778 0.706435 29.6571 229.945)" stroke="#939195"/> <path d="M28.5469 226.131C28.3706 227.348 28.8392 228.744 29.9041 229.806C30.9348 230.835 32.2779 231.306 33.4686 231.176" stroke="#939195"/> <path fill-rule="evenodd" clip-rule="evenodd" d="M39 248.019L43.8517 240.63L46.4867 238L56.0646 239.92L61 249.397L56.0646 256.827L53.4715 259.29L43.8517 257.454L39 248.019ZM47.5321 246.14L47.4902 246.558L47.6157 247.518L47.9085 248.478L48.4104 249.23L49.1632 250.064L50.1252 250.691L51.0454 251.066L51.5891 251.192H52.2583L52.4674 251.15L52.5092 250.607L52.4674 249.981L52.1746 249.104L51.7982 248.395L51.3381 247.727L50.7526 247.142L50.0416 246.683L49.0378 246.266L48.3267 246.14L47.783 246.099L47.5321 246.14Z" fill="url(#paint3_linear_635_854)"/> <path d="M43.8517 240.63L39 248.019L43.8517 257.454L53.4715 259.29M43.8517 240.63L53.4715 242.634M43.8517 240.63L46.4867 238L56.0646 239.92M53.4715 242.634L58.1977 252.068M53.4715 242.634L56.0646 239.92M58.1977 252.068L53.4715 259.29M58.1977 252.068L61 249.397M53.4715 259.29L56.0646 256.827L61 249.397M56.0646 239.92L61 249.397" stroke="#939195"/> <ellipse rx="4.18242" ry="3.45823" transform="matrix(0.707778 0.706435 -0.707778 0.706435 48.6571 249.945)" stroke="#939195"/> <path d="M47.5469 246.131C47.3706 247.348 47.8392 248.744 48.9041 249.806C49.9348 250.835 51.2779 251.306 52.4686 251.176" stroke="#939195"/> <path fill-rule="evenodd" clip-rule="evenodd" d="M1 248.019L5.85171 240.63L8.48669 238L18.0646 239.92L23 249.397L18.0646 256.827L15.4715 259.29L5.85171 257.454L1 248.019ZM9.53206 246.14L9.49023 246.558L9.61571 247.518L9.90849 248.478L10.4104 249.23L11.1632 250.064L12.1252 250.691L13.0454 251.066L13.5891 251.192H14.2583L14.4674 251.15L14.5092 250.607L14.4674 249.981L14.1746 249.104L13.7982 248.395L13.3381 247.727L12.7526 247.142L12.0416 246.683L11.0378 246.266L10.3267 246.14L9.78301 246.099L9.53206 246.14Z" fill="url(#paint4_linear_635_854)"/> <path d="M5.85171 240.63L1 248.019L5.85171 257.454L15.4715 259.29M5.85171 240.63L15.4715 242.634M5.85171 240.63L8.48669 238L18.0646 239.92M15.4715 242.634L20.1977 252.068M15.4715 242.634L18.0646 239.92M20.1977 252.068L15.4715 259.29M20.1977 252.068L23 249.397M15.4715 259.29L18.0646 256.827L23 249.397M18.0646 239.92L23 249.397" stroke="#939195"/> <ellipse rx="4.18242" ry="3.45823" transform="matrix(0.707778 0.706435 -0.707778 0.706435 10.6571 249.945)" stroke="#939195"/> <path d="M9.54688 246.131C9.37058 247.348 9.83921 248.744 10.9041 249.806C11.9348 250.835 13.2779 251.306 14.4686 251.176" stroke="#939195"/> <path d="M7.686 1.985C9.73 1.985 11.319 2.692 12.453 4.106C13.587 5.506 14.154 7.333 14.154 9.587C14.154 11.855 13.587 13.696 12.453 15.11C11.319 16.51 9.73 17.21 7.686 17.21C5.628 17.21 4.032 16.51 2.898 15.11C1.764 13.696 1.197 11.855 1.197 9.587C1.197 7.333 1.764 5.506 2.898 4.106C4.032 2.692 5.628 1.985 7.686 1.985ZM7.686 3.749C6.258 3.749 5.159 4.281 4.389 5.345C3.633 6.395 3.255 7.809 3.255 9.587C3.255 10.833 3.444 11.911 3.822 12.821L10.542 4.841C9.786 4.113 8.834 3.749 7.686 3.749ZM7.686 15.446C9.114 15.446 10.206 14.921 10.962 13.871C11.718 12.807 12.096 11.379 12.096 9.587C12.096 8.313 11.907 7.228 11.529 6.332L4.809 14.354C5.565 15.082 6.524 15.446 7.686 15.446ZM16.6414 9.986C16.6414 8.754 16.7604 7.648 16.9984 6.668C17.2504 5.674 17.6284 4.799 18.1324 4.043C18.6364 3.287 19.3294 2.727 20.2114 2.363C21.0934 1.999 22.1224 1.873 23.2984 1.985L27.7294 2.405V4.169L23.2984 3.749C20.4424 3.469 18.7484 5.107 18.2164 8.663L17.6494 9.986H18.2164C18.3984 8.908 18.9724 8.033 19.9384 7.361C20.9184 6.675 22.0734 6.332 23.4034 6.332C25.0834 6.332 26.4064 6.822 27.3724 7.802C28.3384 8.768 28.8214 10.056 28.8214 11.666C28.8214 13.304 28.2684 14.641 27.1624 15.677C26.0704 16.699 24.5934 17.21 22.7314 17.21C20.8554 17.21 19.3714 16.601 18.2794 15.383C17.1874 14.151 16.6414 12.352 16.6414 9.986ZM18.6784 11.876C18.6784 12.828 19.0424 13.661 19.7704 14.375C20.4984 15.089 21.4854 15.446 22.7314 15.446C24.0334 15.446 25.0344 15.124 25.7344 14.48C26.4344 13.836 26.7844 12.898 26.7844 11.666C26.7844 10.546 26.4624 9.671 25.8184 9.041C25.1744 8.411 24.2574 8.096 23.0674 8.096C21.7514 8.096 20.6874 8.439 19.8754 9.125C19.0774 9.797 18.6784 10.714 18.6784 11.876Z" fill="#C8C6CD"/> <defs> <linearGradient id="paint0_linear_635_854" x1="22.8086" y1="201.1" x2="0.302341" y2="212.895" gradientUnits="userSpaceOnUse"> <stop offset="0.273341" stop-color="#C8C6CD"/> <stop offset="1" stop-color="#C8C6CD" stop-opacity="0"/> </linearGradient> <linearGradient id="paint1_linear_635_854" x1="60.8086" y1="201.1" x2="38.3023" y2="212.895" gradientUnits="userSpaceOnUse"> <stop offset="0.273341" stop-color="#C8C6CD"/> <stop offset="1" stop-color="#C8C6CD" stop-opacity="0"/> </linearGradient> <linearGradient id="paint2_linear_635_854" x1="41.8086" y1="220.1" x2="19.3023" y2="231.895" gradientUnits="userSpaceOnUse"> <stop offset="0.273341" stop-color="#C8C6CD"/> <stop offset="1" stop-color="#C8C6CD" stop-opacity="0"/> </linearGradient> <linearGradient id="paint3_linear_635_854" x1="60.8086" y1="240.1" x2="38.3023" y2="251.895" gradientUnits="userSpaceOnUse"> <stop offset="0.273341" stop-color="#C8C6CD"/> <stop offset="1" stop-color="#C8C6CD" stop-opacity="0"/> </linearGradient> <linearGradient id="paint4_linear_635_854" x1="22.8086" y1="240.1" x2="0.302341" y2="251.895" gradientUnits="userSpaceOnUse"> <stop offset="0.273341" stop-color="#C8C6CD"/> <stop offset="1" stop-color="#C8C6CD" stop-opacity="0"/> </linearGradient> </defs> </svg>