<svg xmlns="http://www.w3.org/2000/svg" width="260" height="260" viewBox="0 0 260 260" fill="none"> <rect x="259" width="1" height="260" fill="#C8C6CD"/> <path d="M13.062 58.195V73H11.025V59.959H3.528V73H1.491V58.195H13.062ZM15.99 62.542H18.027V63.886L17.67 65.209H18.237C18.489 64.355 18.965 63.662 19.665 63.13C20.365 62.598 21.289 62.332 22.437 62.332C23.935 62.332 25.125 62.843 26.007 63.865C26.903 64.887 27.351 66.189 27.351 67.771C27.351 69.353 26.903 70.655 26.007 71.677C25.125 72.699 23.935 73.21 22.437 73.21C21.289 73.21 20.365 72.944 19.665 72.412C18.965 71.88 18.489 71.18 18.237 70.312H17.67L18.027 71.656V76.843H15.99V62.542ZM19.035 65.02C18.363 65.622 18.027 66.539 18.027 67.771C18.027 69.003 18.363 69.927 19.035 70.543C19.721 71.145 20.624 71.446 21.744 71.446C22.836 71.446 23.704 71.145 24.348 70.543C24.992 69.927 25.314 69.003 25.314 67.771C25.314 66.539 24.992 65.622 24.348 65.02C23.704 64.404 22.836 64.096 21.744 64.096C20.624 64.096 19.721 64.404 19.035 65.02ZM29.4948 67.75C29.4948 66.168 30.0128 64.873 31.0488 63.865C32.0848 62.843 33.4358 62.332 35.1018 62.332C36.7538 62.332 38.0978 62.843 39.1338 63.865C40.1698 64.873 40.6878 66.168 40.6878 67.75C40.6878 69.346 40.1698 70.655 39.1338 71.677C38.0978 72.699 36.7538 73.21 35.1018 73.21C33.4358 73.21 32.0848 72.706 31.0488 71.698C30.0128 70.676 29.4948 69.36 29.4948 67.75ZM31.5318 67.75C31.5318 68.842 31.8468 69.731 32.4768 70.417C33.1068 71.103 33.9818 71.446 35.1018 71.446C36.2078 71.446 37.0688 71.103 37.6848 70.417C38.3148 69.731 38.6298 68.842 38.6298 67.75C38.6298 66.672 38.3148 65.797 37.6848 65.125C37.0688 64.439 36.2078 64.096 35.1018 64.096C33.9818 64.096 33.1068 64.439 32.4768 65.125C31.8468 65.797 31.5318 66.672 31.5318 67.75ZM42.8758 73V62.542H46.8658C48.2518 62.542 49.3088 62.724 50.0368 63.088C50.7648 63.452 51.1288 64.103 51.1288 65.041C51.1288 65.811 50.9188 66.364 50.4988 66.7C50.0788 67.022 49.5888 67.204 49.0288 67.246V67.792C50.9468 67.82 51.9058 68.639 51.9058 70.249C51.9058 72.083 50.4848 73 47.6428 73H42.8758ZM44.8498 66.805H46.8658C47.7478 66.805 48.3498 66.728 48.6718 66.574C48.9938 66.406 49.1548 66.007 49.1548 65.377C49.1548 64.845 48.9868 64.502 48.6508 64.348C48.3148 64.18 47.7198 64.096 46.8658 64.096H44.8498V66.805ZM44.8498 71.446H47.6428C48.4688 71.446 49.0568 71.348 49.4068 71.152C49.7568 70.956 49.9318 70.564 49.9318 69.976C49.9318 69.332 49.7568 68.905 49.4068 68.695C49.0568 68.471 48.4688 68.359 47.6428 68.359H44.8498V71.446ZM53.8171 67.75C53.8171 66.168 54.3351 64.873 55.3711 63.865C56.4071 62.843 57.7581 62.332 59.4241 62.332C61.0761 62.332 62.4201 62.843 63.4561 63.865C64.4921 64.873 65.0101 66.168 65.0101 67.75C65.0101 69.346 64.4921 70.655 63.4561 71.677C62.4201 72.699 61.0761 73.21 59.4241 73.21C57.7581 73.21 56.4071 72.706 55.3711 71.698C54.3351 70.676 53.8171 69.36 53.8171 67.75ZM55.8541 67.75C55.8541 68.842 56.1691 69.731 56.7991 70.417C57.4291 71.103 58.3041 71.446 59.4241 71.446C60.5301 71.446 61.3911 71.103 62.0071 70.417C62.6371 69.731 62.9521 68.842 62.9521 67.75C62.9521 66.672 62.6371 65.797 62.0071 65.125C61.3911 64.439 60.5301 64.096 59.4241 64.096C58.3041 64.096 57.4291 64.439 56.7991 65.125C56.1691 65.797 55.8541 66.672 55.8541 67.75ZM77.6567 71.236V75.793H75.6197V73H67.9127V75.793H65.8757V71.236H67.2617C67.8217 70.186 68.2207 68.996 68.4587 67.666C68.6967 66.322 68.8157 64.614 68.8157 62.542H76.2707V71.236H77.6567ZM69.2987 71.236H74.2337V64.306H70.8317C70.7057 67.246 70.1947 69.556 69.2987 71.236ZM90.2898 73H88.2318V64.243L88.5888 63.088H88.0218L83.8638 73H79.7898V62.542H81.8268V71.257L81.4698 72.433H82.0368L86.1948 62.542H90.2898V73ZM92.8328 73V62.542H96.9068L99.0488 72.433H99.6158L101.758 62.542H105.853V73H103.816V64.285L104.152 63.088H103.606L101.359 73H97.3058L95.0798 63.088H94.5128L94.8698 64.285V73H92.8328ZM124.711 73H122.38L118.957 68.59C118.733 68.618 118.551 68.632 118.411 68.632H117.613V73H115.576V62.542H117.613V66.826H118.474L121.078 63.319C121.456 62.801 122.009 62.542 122.737 62.542H124.438V64.306H122.737L120.427 67.372L124.711 73ZM125.8 67.75C125.8 66.168 126.318 64.873 127.354 63.865C128.39 62.843 129.741 62.332 131.407 62.332C133.059 62.332 134.403 62.843 135.439 63.865C136.475 64.873 136.993 66.168 136.993 67.75C136.993 69.346 136.475 70.655 135.439 71.677C134.403 72.699 133.059 73.21 131.407 73.21C129.741 73.21 128.39 72.706 127.354 71.698C126.318 70.676 125.8 69.36 125.8 67.75ZM127.837 67.75C127.837 68.842 128.152 69.731 128.782 70.417C129.412 71.103 130.287 71.446 131.407 71.446C132.513 71.446 133.374 71.103 133.99 70.417C134.62 69.731 134.935 68.842 134.935 67.75C134.935 66.672 134.62 65.797 133.99 65.125C133.374 64.439 132.513 64.096 131.407 64.096C130.287 64.096 129.412 64.439 128.782 65.125C128.152 65.797 127.837 66.672 127.837 67.75ZM146.908 62.542H148.966V73H146.908V68.632H141.217V73H139.18V62.542H141.217V66.868H146.908V62.542ZM161.239 62.542V64.306H157.291V73H155.254V64.306H151.306V62.542H161.239ZM163.175 62.542H165.212V63.886L164.855 65.209H165.422C165.674 64.355 166.15 63.662 166.85 63.13C167.55 62.598 168.474 62.332 169.622 62.332C171.12 62.332 172.31 62.843 173.192 63.865C174.088 64.887 174.536 66.189 174.536 67.771C174.536 69.353 174.088 70.655 173.192 71.677C172.31 72.699 171.12 73.21 169.622 73.21C168.474 73.21 167.55 72.944 166.85 72.412C166.15 71.88 165.674 71.18 165.422 70.312H164.855L165.212 71.656V76.843H163.175V62.542ZM166.22 65.02C165.548 65.622 165.212 66.539 165.212 67.771C165.212 69.003 165.548 69.927 166.22 70.543C166.906 71.145 167.809 71.446 168.929 71.446C170.021 71.446 170.889 71.145 171.533 70.543C172.177 69.927 172.499 69.003 172.499 67.771C172.499 66.539 172.177 65.622 171.533 65.02C170.889 64.404 170.021 64.096 168.929 64.096C167.809 64.096 166.906 64.404 166.22 65.02ZM176.679 67.75C176.679 66.168 177.197 64.873 178.233 63.865C179.269 62.843 180.62 62.332 182.286 62.332C183.938 62.332 185.282 62.843 186.318 63.865C187.354 64.873 187.872 66.168 187.872 67.75C187.872 69.346 187.354 70.655 186.318 71.677C185.282 72.699 183.938 73.21 182.286 73.21C180.62 73.21 179.269 72.706 178.233 71.698C177.197 70.676 176.679 69.36 176.679 67.75ZM178.716 67.75C178.716 68.842 179.031 69.731 179.661 70.417C180.291 71.103 181.166 71.446 182.286 71.446C183.392 71.446 184.253 71.103 184.869 70.417C185.499 69.731 185.814 68.842 185.814 67.75C185.814 66.672 185.499 65.797 184.869 65.125C184.253 64.439 183.392 64.096 182.286 64.096C181.166 64.096 180.291 64.439 179.661 65.125C179.031 65.797 178.716 66.672 178.716 67.75ZM198.566 62.542V73H196.508V64.306H192.791C192.777 65.342 192.749 66.203 192.707 66.889C192.679 67.575 192.616 68.282 192.518 69.01C192.434 69.724 192.294 70.305 192.098 70.753C191.916 71.187 191.678 71.593 191.384 71.971C191.104 72.335 190.74 72.601 190.292 72.769C189.858 72.923 189.34 73 188.738 73V71.236C189.648 71.236 190.208 70.634 190.418 69.43C190.642 68.226 190.754 65.93 190.754 62.542H198.566ZM205.598 65.377C208.664 65.377 210.197 66.651 210.197 69.199C210.197 71.733 208.664 73 205.598 73H201.524V62.542H203.561V65.377H205.598ZM203.561 71.236H205.388C206.354 71.236 207.054 71.11 207.488 70.858C207.936 70.592 208.16 70.039 208.16 69.199C208.16 68.345 207.936 67.792 207.488 67.54C207.054 67.274 206.354 67.141 205.388 67.141H203.561V71.236ZM10.626 98H8.295L4.872 93.59C4.648 93.618 4.466 93.632 4.326 93.632H3.528V98H1.491V87.542H3.528V91.826H4.389L6.993 88.319C7.371 87.801 7.924 87.542 8.652 87.542H10.353V89.306H8.652L6.342 92.372L10.626 98ZM12.1452 95.102C12.1452 93.31 13.3352 92.274 15.7152 91.994L19.7262 91.574C19.6422 89.866 18.7112 89.012 16.9332 89.012C16.1352 89.012 15.4772 89.215 14.9592 89.621C14.4412 90.013 14.1822 90.622 14.1822 91.448H12.2082C12.2082 90.272 12.6352 89.292 13.4892 88.508C14.3432 87.724 15.4912 87.332 16.9332 87.332C18.4032 87.332 19.5722 87.759 20.4402 88.613C21.3222 89.467 21.7632 90.622 21.7632 92.078V96.236H23.2962V98H21.3432C20.9372 98 20.6152 97.888 20.3772 97.664C20.1532 97.44 20.0412 97.118 20.0412 96.698V96.215L20.3562 95.102H19.8102C19.2922 97.174 17.9202 98.21 15.6942 98.21C14.9662 98.21 14.3502 98.105 13.8462 97.895C13.3422 97.685 12.9782 97.405 12.7542 97.055C12.5302 96.705 12.3692 96.376 12.2712 96.068C12.1872 95.76 12.1452 95.438 12.1452 95.102ZM14.1822 94.808C14.1822 95.34 14.3432 95.746 14.6652 96.026C15.0012 96.306 15.4422 96.446 15.9882 96.446C17.1082 96.446 18.0112 96.124 18.6972 95.48C19.3832 94.822 19.7262 93.996 19.7262 93.002L16.0722 93.38C15.4142 93.464 14.9312 93.611 14.6232 93.821C14.3292 94.031 14.1822 94.36 14.1822 94.808ZM31.9476 87.542H33.9846V98H31.9476V94.22L25.4796 94.64C24.4716 94.696 23.9676 94.199 23.9676 93.149V87.542H26.0046V92.855L31.9476 92.456V87.542ZM36.5495 92.624C36.5495 90.972 37.0185 89.677 37.9565 88.739C38.9085 87.801 40.1545 87.332 41.6945 87.332C43.2205 87.332 44.4385 87.787 45.3485 88.697C46.2585 89.593 46.7135 90.832 46.7135 92.414V93.17H38.5235C38.5655 94.164 38.8595 94.969 39.4055 95.585C39.9655 96.201 40.8195 96.509 41.9675 96.509C43.6475 96.509 44.6695 95.781 45.0335 94.325H47.0705C46.8605 95.333 46.3355 96.236 45.4955 97.034C44.6695 97.818 43.4935 98.21 41.9675 98.21C40.1615 98.21 38.8035 97.685 37.8935 96.635C36.9975 95.585 36.5495 94.248 36.5495 92.624ZM38.5235 91.742H44.7395C44.7395 90.958 44.4735 90.307 43.9415 89.789C43.4235 89.271 42.6745 89.012 41.6945 89.012C40.7145 89.012 39.9375 89.278 39.3635 89.81C38.8035 90.328 38.5235 90.972 38.5235 91.742ZM48.8542 92.75C48.8542 91.168 49.3442 89.873 50.3242 88.865C51.3042 87.843 52.6202 87.332 54.2722 87.332C55.5182 87.332 56.6382 87.689 57.6322 88.403C58.6262 89.117 59.1792 90.174 59.2912 91.574H57.2332C57.1072 90.72 56.7782 90.097 56.2462 89.705C55.7142 89.299 55.0562 89.096 54.2722 89.096C53.1662 89.096 52.3262 89.439 51.7522 90.125C51.1782 90.797 50.8912 91.672 50.8912 92.75C50.8912 93.842 51.1782 94.731 51.7522 95.417C52.3262 96.103 53.1662 96.446 54.2722 96.446C55.0562 96.446 55.7142 96.25 56.2462 95.858C56.7782 95.452 57.1072 94.822 57.2332 93.968H59.2912C59.1792 95.368 58.6262 96.425 57.6322 97.139C56.6382 97.853 55.5182 98.21 54.2722 98.21C52.6202 98.21 51.3042 97.699 50.3242 96.677C49.3442 95.655 48.8542 94.346 48.8542 92.75ZM70.1026 87.542V89.306H66.1546V98H64.1176V89.306H60.1696V87.542H70.1026ZM72.0379 98V87.542H76.0279C77.4139 87.542 78.4709 87.724 79.1989 88.088C79.9269 88.452 80.2909 89.103 80.2909 90.041C80.2909 90.811 80.0809 91.364 79.6609 91.7C79.2409 92.022 78.7509 92.204 78.1909 92.246V92.792C80.1089 92.82 81.0679 93.639 81.0679 95.249C81.0679 97.083 79.6469 98 76.8049 98H72.0379ZM74.0119 91.805H76.0279C76.9099 91.805 77.5119 91.728 77.8339 91.574C78.1559 91.406 78.3169 91.007 78.3169 90.377C78.3169 89.845 78.1489 89.502 77.8129 89.348C77.4769 89.18 76.8819 89.096 76.0279 89.096H74.0119V91.805ZM74.0119 96.446H76.8049C77.6309 96.446 78.2189 96.348 78.5689 96.152C78.9189 95.956 79.0939 95.564 79.0939 94.976C79.0939 94.332 78.9189 93.905 78.5689 93.695C78.2189 93.471 77.6309 93.359 76.8049 93.359H74.0119V96.446ZM82.9792 95.102C82.9792 93.31 84.1692 92.274 86.5492 91.994L90.5602 91.574C90.4762 89.866 89.5452 89.012 87.7672 89.012C86.9692 89.012 86.3112 89.215 85.7932 89.621C85.2752 90.013 85.0162 90.622 85.0162 91.448H83.0422C83.0422 90.272 83.4692 89.292 84.3232 88.508C85.1772 87.724 86.3252 87.332 87.7672 87.332C89.2372 87.332 90.4062 87.759 91.2742 88.613C92.1562 89.467 92.5972 90.622 92.5972 92.078V96.236H94.1302V98H92.1772C91.7712 98 91.4492 97.888 91.2112 97.664C90.9872 97.44 90.8752 97.118 90.8752 96.698V96.215L91.1902 95.102H90.6442C90.1262 97.174 88.7542 98.21 86.5282 98.21C85.8002 98.21 85.1842 98.105 84.6802 97.895C84.1762 97.685 83.8122 97.405 83.5882 97.055C83.3642 96.705 83.2032 96.376 83.1052 96.068C83.0212 95.76 82.9792 95.438 82.9792 95.102ZM85.0162 94.808C85.0162 95.34 85.1772 95.746 85.4992 96.026C85.8352 96.306 86.2762 96.446 86.8222 96.446C87.9422 96.446 88.8452 96.124 89.5312 95.48C90.2172 94.822 90.5602 93.996 90.5602 93.002L86.9062 93.38C86.2482 93.464 85.7652 93.611 85.4572 93.821C85.1632 94.031 85.0162 94.36 85.0162 94.808ZM102.8 98V87.542H110.402V89.306H104.837V98H102.8ZM111.28 92.75C111.28 91.168 111.798 89.873 112.834 88.865C113.87 87.843 115.221 87.332 116.887 87.332C118.539 87.332 119.883 87.843 120.919 88.865C121.955 89.873 122.473 91.168 122.473 92.75C122.473 94.346 121.955 95.655 120.919 96.677C119.883 97.699 118.539 98.21 116.887 98.21C115.221 98.21 113.87 97.706 112.834 96.698C111.798 95.676 111.28 94.36 111.28 92.75ZM113.317 92.75C113.317 93.842 113.632 94.731 114.262 95.417C114.892 96.103 115.767 96.446 116.887 96.446C117.993 96.446 118.854 96.103 119.47 95.417C120.1 94.731 120.415 93.842 120.415 92.75C120.415 91.672 120.1 90.797 119.47 90.125C118.854 89.439 117.993 89.096 116.887 89.096C115.767 89.096 114.892 89.439 114.262 90.125C113.632 90.797 113.317 91.672 113.317 92.75ZM133.267 87.542V89.306H129.319V98H127.282V89.306H123.334V87.542H133.267ZM133.941 92.75C133.941 91.168 134.459 89.873 135.495 88.865C136.531 87.843 137.882 87.332 139.548 87.332C141.2 87.332 142.544 87.843 143.58 88.865C144.616 89.873 145.134 91.168 145.134 92.75C145.134 94.346 144.616 95.655 143.58 96.677C142.544 97.699 141.2 98.21 139.548 98.21C137.882 98.21 136.531 97.706 135.495 96.698C134.459 95.676 133.941 94.36 133.941 92.75ZM135.978 92.75C135.978 93.842 136.293 94.731 136.923 95.417C137.553 96.103 138.428 96.446 139.548 96.446C140.654 96.446 141.515 96.103 142.131 95.417C142.761 94.731 143.076 93.842 143.076 92.75C143.076 91.672 142.761 90.797 142.131 90.125C141.515 89.439 140.654 89.096 139.548 89.096C138.428 89.096 137.553 89.439 136.923 90.125C136.293 90.797 135.978 91.672 135.978 92.75ZM147.322 98V87.542H151.312C152.698 87.542 153.755 87.724 154.483 88.088C155.211 88.452 155.575 89.103 155.575 90.041C155.575 90.811 155.365 91.364 154.945 91.7C154.525 92.022 154.035 92.204 153.475 92.246V92.792C155.393 92.82 156.352 93.639 156.352 95.249C156.352 97.083 154.931 98 152.089 98H147.322ZM149.296 91.805H151.312C152.194 91.805 152.796 91.728 153.118 91.574C153.44 91.406 153.601 91.007 153.601 90.377C153.601 89.845 153.433 89.502 153.097 89.348C152.761 89.18 152.166 89.096 151.312 89.096H149.296V91.805ZM149.296 96.446H152.089C152.915 96.446 153.503 96.348 153.853 96.152C154.203 95.956 154.378 95.564 154.378 94.976C154.378 94.332 154.203 93.905 153.853 93.695C153.503 93.471 152.915 93.359 152.089 93.359H149.296V96.446ZM158.263 92.75C158.263 91.168 158.781 89.873 159.817 88.865C160.853 87.843 162.204 87.332 163.87 87.332C165.522 87.332 166.866 87.843 167.902 88.865C168.938 89.873 169.456 91.168 169.456 92.75C169.456 94.346 168.938 95.655 167.902 96.677C166.866 97.699 165.522 98.21 163.87 98.21C162.204 98.21 160.853 97.706 159.817 96.698C158.781 95.676 158.263 94.36 158.263 92.75ZM160.3 92.75C160.3 93.842 160.615 94.731 161.245 95.417C161.875 96.103 162.75 96.446 163.87 96.446C164.976 96.446 165.837 96.103 166.453 95.417C167.083 94.731 167.398 93.842 167.398 92.75C167.398 91.672 167.083 90.797 166.453 90.125C165.837 89.439 164.976 89.096 163.87 89.096C162.75 89.096 161.875 89.439 161.245 90.125C160.615 90.797 160.3 91.672 160.3 92.75ZM180.317 82.481C180.317 83.587 180.016 84.49 179.414 85.19C178.826 85.876 177.993 86.219 176.915 86.219C175.837 86.219 175.004 85.876 174.416 85.19C173.828 84.49 173.534 83.587 173.534 82.481H175.151C175.151 83.251 175.291 83.811 175.571 84.161C175.851 84.497 176.299 84.665 176.915 84.665C177.531 84.665 177.979 84.497 178.259 84.161C178.553 83.811 178.7 83.251 178.7 82.481H180.317ZM182.144 98H180.086V89.243L180.443 88.088H179.876L175.718 98H171.644V87.542H173.681V96.257L173.324 97.433H173.891L178.049 87.542H182.144V98ZM10.542 112.542V123H8.505V114.306H3.528V123H1.491V112.542H10.542ZM13.5291 112.542H15.5661V113.886L15.2091 115.209H15.7761C16.0281 114.355 16.5041 113.662 17.2041 113.13C17.9041 112.598 18.8281 112.332 19.9761 112.332C21.4741 112.332 22.6641 112.843 23.5461 113.865C24.4421 114.887 24.8901 116.189 24.8901 117.771C24.8901 119.353 24.4421 120.655 23.5461 121.677C22.6641 122.699 21.4741 123.21 19.9761 123.21C18.8281 123.21 17.9041 122.944 17.2041 122.412C16.5041 121.88 16.0281 121.18 15.7761 120.312H15.2091L15.5661 121.656V126.843H13.5291V112.542ZM16.5741 115.02C15.9021 115.622 15.5661 116.539 15.5661 117.771C15.5661 119.003 15.9021 119.927 16.5741 120.543C17.2601 121.145 18.1631 121.446 19.2831 121.446C20.3751 121.446 21.2431 121.145 21.8871 120.543C22.5311 119.927 22.8531 119.003 22.8531 117.771C22.8531 116.539 22.5311 115.622 21.8871 115.02C21.2431 114.404 20.3751 114.096 19.2831 114.096C18.1631 114.096 17.2601 114.404 16.5741 115.02ZM27.0339 117.75C27.0339 116.168 27.5519 114.873 28.5879 113.865C29.6239 112.843 30.9749 112.332 32.6409 112.332C34.2929 112.332 35.6369 112.843 36.6729 113.865C37.7089 114.873 38.2269 116.168 38.2269 117.75C38.2269 119.346 37.7089 120.655 36.6729 121.677C35.6369 122.699 34.2929 123.21 32.6409 123.21C30.9749 123.21 29.6239 122.706 28.5879 121.698C27.5519 120.676 27.0339 119.36 27.0339 117.75ZM29.0709 117.75C29.0709 118.842 29.3859 119.731 30.0159 120.417C30.6459 121.103 31.5209 121.446 32.6409 121.446C33.7469 121.446 34.6079 121.103 35.2239 120.417C35.8539 119.731 36.1689 118.842 36.1689 117.75C36.1689 116.672 35.8539 115.797 35.2239 115.125C34.6079 114.439 33.7469 114.096 32.6409 114.096C31.5209 114.096 30.6459 114.439 30.0159 115.125C29.3859 115.797 29.0709 116.672 29.0709 117.75ZM50.8735 121.236V125.793H48.8365V123H41.1295V125.793H39.0925V121.236H40.4785C41.0385 120.186 41.4375 118.996 41.6755 117.666C41.9135 116.322 42.0325 114.614 42.0325 112.542H49.4875V121.236H50.8735ZM42.5155 121.236H47.4505V114.306H44.0485C43.9225 117.246 43.4115 119.556 42.5155 121.236ZM61.5902 112.542H63.8582L59.2592 122.79V125.772C59.2592 126.724 58.7552 127.179 57.7472 127.137L53.4842 126.948V125.184L57.2012 125.331V122.79L52.6022 112.542H54.8492L57.9572 120.186V121.173H58.5032V120.186L61.5902 112.542ZM75.1231 123H72.7921L69.3691 118.59C69.1451 118.618 68.9631 118.632 68.8231 118.632H68.0251V123H65.9881V112.542H68.0251V116.826H68.8861L71.4901 113.319C71.8681 112.801 72.4211 112.542 73.1491 112.542H74.8501V114.306H73.1491L70.8391 117.372L75.1231 123ZM87.9144 121.236C88.3484 121.236 88.6844 121.355 88.9224 121.593C89.1604 121.831 89.2794 122.167 89.2794 122.601V125.793H87.2214V123H77.2674V112.542H79.3044V121.236H84.2814V112.542H86.3184V121.236H87.9144ZM101.897 123H99.8393V114.243L100.196 113.088H99.6293L95.4713 123H91.3973V112.542H93.4343V121.257L93.0773 122.433H93.6443L97.8023 112.542H101.897V123ZM114.94 123H112.882V114.243L113.239 113.088H112.672L108.514 123H104.44V112.542H106.477V121.257L106.12 122.433H106.687L110.845 112.542H114.94V123Z" fill="#181818"/> <path d="M61 208.364L26.4545 202L1 243.364V247L37.3636 256.091L61 212V208.364Z" fill="url(#paint0_linear_635_834)"/> <path d="M61 208.364L26.4545 202L1 243.364M61 208.364L37.3636 252.455M61 208.364V212L37.3636 256.091M37.3636 252.455L1 243.364M37.3636 252.455V256.091M1 243.364V247L37.3636 256.091M28.7273 207.455V215.182L31 212.909M17.3636 229.727V237L19.6364 234.727M27.8182 205.182L6 241.545L35.0909 248.364L55.5455 210.636L27.8182 205.182ZM27.8182 210.636L24.6364 216.091L31 217.455L34.6364 212L27.8182 210.636ZM21.9091 221.545L18.2727 227.455L25.0909 228.818L28.7273 222.909L21.9091 221.545ZM16.4545 231.545L12.8182 237.909L19.6364 239.727L23.2727 233.364L16.4545 231.545Z" stroke="#939195"/> <path d="M7.686 1.985C9.73 1.985 11.319 2.692 12.453 4.106C13.587 5.506 14.154 7.333 14.154 9.587C14.154 11.855 13.587 13.696 12.453 15.11C11.319 16.51 9.73 17.21 7.686 17.21C5.628 17.21 4.032 16.51 2.898 15.11C1.764 13.696 1.197 11.855 1.197 9.587C1.197 7.333 1.764 5.506 2.898 4.106C4.032 2.692 5.628 1.985 7.686 1.985ZM7.686 3.749C6.258 3.749 5.159 4.281 4.389 5.345C3.633 6.395 3.255 7.809 3.255 9.587C3.255 10.833 3.444 11.911 3.822 12.821L10.542 4.841C9.786 4.113 8.834 3.749 7.686 3.749ZM7.686 15.446C9.114 15.446 10.206 14.921 10.962 13.871C11.718 12.807 12.096 11.379 12.096 9.587C12.096 8.313 11.907 7.228 11.529 6.332L4.809 14.354C5.565 15.082 6.524 15.446 7.686 15.446ZM17.1353 17C17.1353 13.836 17.8003 11.218 19.1303 9.146C20.4603 7.06 22.4693 5.401 25.1573 4.169V3.602L23.8133 3.959H14.7413V2.195H25.7033V5.492C23.4913 6.57 21.8603 8.033 20.8103 9.881C19.7743 11.715 19.2563 14.088 19.2563 17H17.1353Z" fill="#C8C6CD"/> <defs> <linearGradient id="paint0_linear_635_834" x1="65.5" y1="208.5" x2="24.5821" y2="191.25" gradientUnits="userSpaceOnUse"> <stop offset="0.0509945" stop-color="#C8C6CD"/> <stop offset="0.969286" stop-color="#C8C6CD" stop-opacity="0"/> </linearGradient> </defs> </svg>