<svg xmlns="http://www.w3.org/2000/svg" width="260" height="260" viewBox="0 0 260 260" fill="none"> <path d="M10.92 58.195H13.083L8.001 68.527V71.845C8.001 72.797 7.497 73.252 6.489 73.21L1.806 73.021V71.257L5.964 71.446V68.527L0.861 58.195H3.003L6.699 65.902V66.889H7.266V65.902L10.92 58.195ZM23.0928 62.542V73H21.0558V64.306H16.0788V73H14.0418V62.542H23.0928ZM25.6599 70.102C25.6599 68.31 26.8499 67.274 29.2299 66.994L33.2409 66.574C33.1569 64.866 32.2259 64.012 30.4479 64.012C29.6499 64.012 28.9919 64.215 28.4739 64.621C27.9559 65.013 27.6969 65.622 27.6969 66.448H25.7229C25.7229 65.272 26.1499 64.292 27.0039 63.508C27.8579 62.724 29.0059 62.332 30.4479 62.332C31.9179 62.332 33.0869 62.759 33.9549 63.613C34.8369 64.467 35.2779 65.622 35.2779 67.078V71.236H36.8109V73H34.8579C34.4519 73 34.1299 72.888 33.8919 72.664C33.6679 72.44 33.5559 72.118 33.5559 71.698V71.215L33.8709 70.102H33.3249C32.8069 72.174 31.4349 73.21 29.2089 73.21C28.4809 73.21 27.8649 73.105 27.3609 72.895C26.8569 72.685 26.4929 72.405 26.2689 72.055C26.0449 71.705 25.8839 71.376 25.7859 71.068C25.7019 70.76 25.6599 70.438 25.6599 70.102ZM27.6969 69.808C27.6969 70.34 27.8579 70.746 28.1799 71.026C28.5159 71.306 28.9569 71.446 29.5029 71.446C30.6229 71.446 31.5259 71.124 32.2119 70.48C32.8979 69.822 33.2409 68.996 33.2409 68.002L29.5869 68.38C28.9289 68.464 28.4459 68.611 28.1379 68.821C27.8439 69.031 27.6969 69.36 27.6969 69.808ZM47.8067 73H45.4757L42.0527 68.59C41.8287 68.618 41.6467 68.632 41.5067 68.632H40.7087V73H38.6717V62.542H40.7087V66.826H41.5697L44.1737 63.319C44.5517 62.801 45.1047 62.542 45.8327 62.542H47.5337V64.306H45.8327L43.5227 67.372L47.8067 73ZM48.8952 67.75C48.8952 66.168 49.4132 64.873 50.4492 63.865C51.4852 62.843 52.8362 62.332 54.5022 62.332C56.1542 62.332 57.4982 62.843 58.5342 63.865C59.5702 64.873 60.0882 66.168 60.0882 67.75C60.0882 69.346 59.5702 70.655 58.5342 71.677C57.4982 72.699 56.1542 73.21 54.5022 73.21C52.8362 73.21 51.4852 72.706 50.4492 71.698C49.4132 70.676 48.8952 69.36 48.8952 67.75ZM50.9322 67.75C50.9322 68.842 51.2472 69.731 51.8772 70.417C52.5072 71.103 53.3822 71.446 54.5022 71.446C55.6082 71.446 56.4692 71.103 57.0852 70.417C57.7152 69.731 58.0302 68.842 58.0302 67.75C58.0302 66.672 57.7152 65.797 57.0852 65.125C56.4692 64.439 55.6082 64.096 54.5022 64.096C53.3822 64.096 52.5072 64.439 51.8772 65.125C51.2472 65.797 50.9322 66.672 50.9322 67.75ZM62.2762 73V62.542H66.2662C67.6522 62.542 68.7092 62.724 69.4372 63.088C70.1652 63.452 70.5292 64.103 70.5292 65.041C70.5292 65.811 70.3192 66.364 69.8992 66.7C69.4792 67.022 68.9892 67.204 68.4292 67.246V67.792C70.3472 67.82 71.3062 68.639 71.3062 70.249C71.3062 72.083 69.8852 73 67.0432 73H62.2762ZM64.2502 66.805H66.2662C67.1482 66.805 67.7502 66.728 68.0722 66.574C68.3942 66.406 68.5552 66.007 68.5552 65.377C68.5552 64.845 68.3872 64.502 68.0512 64.348C67.7152 64.18 67.1202 64.096 66.2662 64.096H64.2502V66.805ZM64.2502 71.446H67.0432C67.8692 71.446 68.4572 71.348 68.8072 71.152C69.1572 70.956 69.3322 70.564 69.3322 69.976C69.3322 69.332 69.1572 68.905 68.8072 68.695C68.4572 68.471 67.8692 68.359 67.0432 68.359H64.2502V71.446ZM77.7115 65.377C80.7775 65.377 82.3105 66.651 82.3105 69.199C82.3105 71.733 80.7775 73 77.7115 73H73.6375V62.542H75.6745V65.377H77.7115ZM83.8015 73V62.542H85.8385V73H83.8015ZM75.6745 71.236H77.5015C78.4675 71.236 79.1675 71.11 79.6015 70.858C80.0495 70.592 80.2735 70.039 80.2735 69.199C80.2735 68.345 80.0495 67.792 79.6015 67.54C79.1675 67.274 78.4675 67.141 77.5015 67.141H75.6745V71.236ZM88.8133 73V62.542H92.8033C94.1893 62.542 95.2463 62.724 95.9743 63.088C96.7023 63.452 97.0663 64.103 97.0663 65.041C97.0663 65.811 96.8563 66.364 96.4363 66.7C96.0163 67.022 95.5263 67.204 94.9663 67.246V67.792C96.8843 67.82 97.8433 68.639 97.8433 70.249C97.8433 72.083 96.4223 73 93.5803 73H88.8133ZM90.7873 66.805H92.8033C93.6853 66.805 94.2873 66.728 94.6093 66.574C94.9313 66.406 95.0923 66.007 95.0923 65.377C95.0923 64.845 94.9243 64.502 94.5883 64.348C94.2523 64.18 93.6573 64.096 92.8033 64.096H90.7873V66.805ZM90.7873 71.446H93.5803C94.4063 71.446 94.9943 71.348 95.3443 71.152C95.6943 70.956 95.8693 70.564 95.8693 69.976C95.8693 69.332 95.6943 68.905 95.3443 68.695C94.9943 68.471 94.4063 68.359 93.5803 68.359H90.7873V71.446ZM99.7546 70.102C99.7546 68.31 100.945 67.274 103.325 66.994L107.336 66.574C107.252 64.866 106.321 64.012 104.543 64.012C103.745 64.012 103.087 64.215 102.569 64.621C102.051 65.013 101.792 65.622 101.792 66.448H99.8176C99.8176 65.272 100.245 64.292 101.099 63.508C101.953 62.724 103.101 62.332 104.543 62.332C106.013 62.332 107.182 62.759 108.05 63.613C108.932 64.467 109.373 65.622 109.373 67.078V71.236H110.906V73H108.953C108.547 73 108.225 72.888 107.987 72.664C107.763 72.44 107.651 72.118 107.651 71.698V71.215L107.966 70.102H107.42C106.902 72.174 105.53 73.21 103.304 73.21C102.576 73.21 101.96 73.105 101.456 72.895C100.952 72.685 100.588 72.405 100.364 72.055C100.14 71.705 99.9786 71.376 99.8806 71.068C99.7966 70.76 99.7546 70.438 99.7546 70.102ZM101.792 69.808C101.792 70.34 101.953 70.746 102.275 71.026C102.611 71.306 103.052 71.446 103.598 71.446C104.718 71.446 105.621 71.124 106.307 70.48C106.993 69.822 107.336 68.996 107.336 68.002L103.682 68.38C103.024 68.464 102.541 68.611 102.233 68.821C101.939 69.031 101.792 69.36 101.792 69.808ZM111.998 67.624C111.998 65.972 112.467 64.677 113.405 63.739C114.357 62.801 115.603 62.332 117.143 62.332C118.669 62.332 119.887 62.787 120.797 63.697C121.707 64.593 122.162 65.832 122.162 67.414V68.17H113.972C114.014 69.164 114.308 69.969 114.854 70.585C115.414 71.201 116.268 71.509 117.416 71.509C119.096 71.509 120.118 70.781 120.482 69.325H122.519C122.309 70.333 121.784 71.236 120.944 72.034C120.118 72.818 118.942 73.21 117.416 73.21C115.61 73.21 114.252 72.685 113.342 71.635C112.446 70.585 111.998 69.248 111.998 67.624ZM113.972 66.742H120.188C120.188 65.958 119.922 65.307 119.39 64.789C118.872 64.271 118.123 64.012 117.143 64.012C116.163 64.012 115.386 64.278 114.812 64.81C114.252 65.328 113.972 65.972 113.972 66.742ZM124.722 73V62.542H128.796L130.938 72.433H131.505L133.647 62.542H137.742V73H135.705V64.285L136.041 63.088H135.495L133.248 73H129.195L126.969 63.088H126.402L126.759 64.285V73H124.722ZM11.991 98H9.933V89.243L10.29 88.088H9.723L5.565 98H1.491V87.542H3.528V96.257L3.171 97.433H3.738L7.896 87.542H11.991V98ZM34.574 92.75C34.574 94.248 34.056 95.494 33.02 96.488C31.998 97.468 30.549 98.028 28.673 98.168V101.78H26.762V98.168C24.886 98.028 23.43 97.468 22.394 96.488C21.372 95.508 20.861 94.262 20.861 92.75C20.861 91.266 21.372 90.034 22.394 89.054C23.43 88.074 24.886 87.514 26.762 87.374V83.825H28.673V87.374C30.549 87.514 31.998 88.074 33.02 89.054C34.056 90.034 34.574 91.266 34.574 92.75ZM28.673 96.404C29.961 96.278 30.92 95.893 31.55 95.249C32.194 94.591 32.516 93.758 32.516 92.75C32.516 91.742 32.194 90.923 31.55 90.293C30.92 89.649 29.961 89.264 28.673 89.138V96.404ZM22.898 92.75C22.898 93.772 23.213 94.605 23.843 95.249C24.487 95.893 25.46 96.278 26.762 96.404V89.138C25.46 89.264 24.487 89.649 23.843 90.293C23.213 90.923 22.898 91.742 22.898 92.75ZM36.488 95.102C36.488 93.31 37.678 92.274 40.058 91.994L44.069 91.574C43.985 89.866 43.054 89.012 41.276 89.012C40.478 89.012 39.82 89.215 39.302 89.621C38.784 90.013 38.525 90.622 38.525 91.448H36.551C36.551 90.272 36.978 89.292 37.832 88.508C38.686 87.724 39.834 87.332 41.276 87.332C42.746 87.332 43.915 87.759 44.783 88.613C45.665 89.467 46.106 90.622 46.106 92.078V96.236H47.639V98H45.686C45.28 98 44.958 97.888 44.72 97.664C44.496 97.44 44.384 97.118 44.384 96.698V96.215L44.699 95.102H44.153C43.635 97.174 42.263 98.21 40.037 98.21C39.309 98.21 38.693 98.105 38.189 97.895C37.685 97.685 37.321 97.405 37.097 97.055C36.873 96.705 36.712 96.376 36.614 96.068C36.53 95.76 36.488 95.438 36.488 95.102ZM38.525 94.808C38.525 95.34 38.686 95.746 39.008 96.026C39.344 96.306 39.785 96.446 40.331 96.446C41.451 96.446 42.354 96.124 43.04 95.48C43.726 94.822 44.069 93.996 44.069 93.002L40.415 93.38C39.757 93.464 39.274 93.611 38.966 93.821C38.672 94.031 38.525 94.36 38.525 94.808ZM48.7312 92.75C48.7312 91.168 49.2212 89.873 50.2012 88.865C51.1812 87.843 52.4972 87.332 54.1492 87.332C55.3952 87.332 56.5152 87.689 57.5092 88.403C58.5032 89.117 59.0562 90.174 59.1682 91.574H57.1102C56.9842 90.72 56.6552 90.097 56.1232 89.705C55.5912 89.299 54.9332 89.096 54.1492 89.096C53.0432 89.096 52.2032 89.439 51.6292 90.125C51.0552 90.797 50.7682 91.672 50.7682 92.75C50.7682 93.842 51.0552 94.731 51.6292 95.417C52.2032 96.103 53.0432 96.446 54.1492 96.446C54.9332 96.446 55.5912 96.25 56.1232 95.858C56.6552 95.452 56.9842 94.822 57.1102 93.968H59.1682C59.0562 95.368 58.5032 96.425 57.5092 97.139C56.5152 97.853 55.3952 98.21 54.1492 98.21C52.4972 98.21 51.1812 97.699 50.2012 96.677C49.2212 95.655 48.7312 94.346 48.7312 92.75ZM69.0345 87.542H71.3025L66.7035 97.79V100.772C66.7035 101.724 66.1995 102.179 65.1915 102.137L60.9285 101.948V100.184L64.6455 100.331V97.79L60.0465 87.542H62.2935L65.4015 95.186V96.173H65.9475V95.186L69.0345 87.542ZM71.9665 92.624C71.9665 90.972 72.4355 89.677 73.3735 88.739C74.3255 87.801 75.5715 87.332 77.1115 87.332C78.6375 87.332 79.8555 87.787 80.7655 88.697C81.6755 89.593 82.1305 90.832 82.1305 92.414V93.17H73.9405C73.9825 94.164 74.2765 94.969 74.8225 95.585C75.3825 96.201 76.2365 96.509 77.3845 96.509C79.0645 96.509 80.0865 95.781 80.4505 94.325H82.4875C82.2775 95.333 81.7525 96.236 80.9125 97.034C80.0865 97.818 78.9105 98.21 77.3845 98.21C75.5785 98.21 74.2205 97.685 73.3105 96.635C72.4145 95.585 71.9665 94.248 71.9665 92.624ZM73.9405 91.742H80.1565C80.1565 90.958 79.8905 90.307 79.3585 89.789C78.8405 89.271 78.0915 89.012 77.1115 89.012C76.1315 89.012 75.3545 89.278 74.7805 89.81C74.2205 90.328 73.9405 90.972 73.9405 91.742ZM84.6912 98V87.542H88.7652L90.9072 97.433H91.4742L93.6162 87.542H97.7112V98H95.6742V89.285L96.0102 88.088H95.4642L93.2172 98H89.1642L86.9382 88.088H86.3712L86.7282 89.285V98H84.6912Z" fill="#181818"/> <rect x="259" width="1" height="260" fill="#C8C6CD"/> <path fill-rule="evenodd" clip-rule="evenodd" d="M5 243.904V214.096L30.6051 199L41.8971 205.559L16 220.5V250.39L5 243.904ZM45 207.5L43.3883 206.426L56.5924 214.096V243.904L30.6051 259L19.5 252.453V222.5L45 207.5ZM42 247.5L35 251.5V244.5L42 241V247.5Z" fill="url(#paint0_linear_635_842)"/> <path d="M5 214.096V243.904L16.2022 250.509M5 214.096L30.6051 199L41.9745 205.604M5 214.096L16.2022 220.616M30.6051 259V229M30.6051 259L56.5924 243.904V214.096M30.6051 259L19.4029 252.396M30.6051 229L56.5924 214.096M30.6051 229L19.4029 222.479M56.5924 214.096L45.2229 207.491M16.2022 220.616L41.9745 205.604M16.2022 220.616L19.4029 222.479M16.2022 220.616V250.509M41.9745 205.604L45.2229 207.491M45.2229 207.491L19.4029 222.479M19.4029 222.479V252.396M19.4029 252.396L16.2022 250.509" stroke="#939195"/> <path d="M35 251.5L42 247.5V240.5L35 244.5V251.5Z" stroke="#939195"/> <path d="M7.686 1.985C9.73 1.985 11.319 2.692 12.453 4.106C13.587 5.506 14.154 7.333 14.154 9.587C14.154 11.855 13.587 13.696 12.453 15.11C11.319 16.51 9.73 17.21 7.686 17.21C5.628 17.21 4.032 16.51 2.898 15.11C1.764 13.696 1.197 11.855 1.197 9.587C1.197 7.333 1.764 5.506 2.898 4.106C4.032 2.692 5.628 1.985 7.686 1.985ZM7.686 3.749C6.258 3.749 5.159 4.281 4.389 5.345C3.633 6.395 3.255 7.809 3.255 9.587C3.255 10.833 3.444 11.911 3.822 12.821L10.542 4.841C9.786 4.113 8.834 3.749 7.686 3.749ZM7.686 15.446C9.114 15.446 10.206 14.921 10.962 13.871C11.718 12.807 12.096 11.379 12.096 9.587C12.096 8.313 11.907 7.228 11.529 6.332L4.809 14.354C5.565 15.082 6.524 15.446 7.686 15.446ZM15.9357 12.905C15.9357 11.855 16.2507 11.036 16.8807 10.448C17.5107 9.86 18.4277 9.419 19.6317 9.125V8.579C18.7077 8.327 18.0007 7.97 17.5107 7.508C17.0207 7.046 16.7757 6.367 16.7757 5.471C16.7757 4.295 17.2727 3.42 18.2667 2.846C19.2607 2.272 20.5417 1.985 22.1097 1.985C23.6637 1.985 24.9307 2.272 25.9107 2.846C26.9047 3.42 27.4017 4.295 27.4017 5.471C27.4017 6.367 27.1567 7.053 26.6667 7.529C26.1907 7.991 25.4907 8.341 24.5667 8.579V9.125C25.7567 9.419 26.6667 9.867 27.2967 10.469C27.9267 11.057 28.2417 11.869 28.2417 12.905C28.2417 14.235 27.6957 15.285 26.6037 16.055C25.5257 16.825 24.0277 17.21 22.1097 17.21C20.1917 17.21 18.6797 16.825 17.5737 16.055C16.4817 15.285 15.9357 14.235 15.9357 12.905ZM18.8127 5.87C18.8127 6.64 19.0857 7.186 19.6317 7.508C20.1777 7.83 21.0037 7.991 22.1097 7.991C23.1877 7.991 23.9997 7.83 24.5457 7.508C25.0917 7.186 25.3647 6.64 25.3647 5.87C25.3647 5.114 25.0917 4.575 24.5457 4.253C23.9997 3.917 23.1877 3.749 22.1097 3.749C21.0177 3.749 20.1917 3.917 19.6317 4.253C19.0857 4.575 18.8127 5.114 18.8127 5.87ZM19.0017 10.511C18.3157 11.001 17.9727 11.694 17.9727 12.59C17.9727 13.486 18.3157 14.186 19.0017 14.69C19.6877 15.194 20.7237 15.446 22.1097 15.446C23.4817 15.446 24.5037 15.194 25.1757 14.69C25.8617 14.186 26.2047 13.486 26.2047 12.59C26.2047 11.694 25.8617 11.001 25.1757 10.511C24.5037 10.007 23.4817 9.755 22.1097 9.755C20.7237 9.755 19.6877 10.007 19.0017 10.511Z" fill="#C8C6CD"/> <defs> <linearGradient id="paint0_linear_635_842" x1="60.2229" y1="249.828" x2="51.4763" y2="198.241" gradientUnits="userSpaceOnUse"> <stop offset="0.0509945" stop-color="#C8C6CD"/> <stop offset="0.969286" stop-color="#C8C6CD" stop-opacity="0"/> </linearGradient> </defs> </svg>