<?xml version="1.0" encoding="utf-8"?>
<!-- Generator: Adobe Illustrator 27.7.0, SVG Export Plug-In . SVG Version: 6.00 Build 0)  -->
<svg version="1.1" id="Layer_1" xmlns="http://www.w3.org/2000/svg" xmlns:xlink="http://www.w3.org/1999/xlink" x="0px" y="0px"
	 viewBox="0 0 274.2 96.5" style="enable-background:new 0 0 274.2 96.5;" xml:space="preserve">
<style type="text/css">
	.st0{fill:#5380B7;}
	.st1{fill:none;stroke:#5380B7;stroke-width:6.1415;stroke-miterlimit:10;}
</style>
<g>
	<path class="st0" d="M41.7,30.3l-10.4,3.2v28.4l10.4,3.2v6.6l-17.9-5.5c-1.5-0.4-2.5-1.8-2.5-3.3V32.5c0-1.5,1-2.9,2.5-3.3
		l17.9-5.5V30.3z"/>
	<path class="st0" d="M65.1,39.8V19l9.9,3v51.4l-9.9,3V56.5L57,76.4l0,0l-9.9-3V22.1l9.9-3v40.7L65.1,39.8z"/>
	<path class="st0" d="M99,43.4l-4.1,4.8l4.4,5.9c1,1.3,1.5,2.9,1.5,4.6v4.2c0,1.5-1,2.9-2.5,3.3l-17.9,5.5v-6.6l10.4-3.2v-5.7
		l-6.4-9.6l6.4-7.4V33l-10.4-3.2v-6.2l17.9,5.5c1.5,0.4,2.5,1.8,2.5,3.3v5.9C100.9,40.2,100.2,42,99,43.4z"/>
	<g>
		<path class="st0" d="M138.2,34.8c-0.5,0.3-1.6,0.5-3,0.5c-3.2,0-5.5-2-5.5-5.7c0-3.5,2.4-5.9,5.9-5.9c1.4,0,2.3,0.3,2.7,0.5
			l-0.3,1.2c-0.5-0.3-1.3-0.5-2.3-0.5c-2.6,0-4.4,1.7-4.4,4.6c0,2.7,1.6,4.5,4.3,4.5c0.9,0,1.8-0.2,2.4-0.5L138.2,34.8z"/>
		<path class="st0" d="M146.9,31.1c0,3-2.1,4.3-4,4.3c-2.2,0-3.9-1.6-3.9-4.1c0-2.7,1.8-4.3,4-4.3C145.4,26.9,146.9,28.6,146.9,31.1
			z M140.6,31.1c0,1.8,1,3.1,2.4,3.1c1.4,0,2.4-1.3,2.4-3.1c0-1.4-0.7-3.1-2.4-3.1C141.3,28,140.6,29.6,140.6,31.1z"/>
		<path class="st0" d="M148.8,29.7c0-1,0-1.9-0.1-2.6h1.3l0.1,1.4h0c0.6-1,1.5-1.6,2.9-1.6c1.9,0,3.4,1.6,3.4,4.1
			c0,2.9-1.8,4.3-3.7,4.3c-1.1,0-2-0.5-2.5-1.3h0v4.4h-1.4V29.7z M150.2,31.9c0,0.2,0,0.4,0.1,0.6c0.3,1,1.1,1.7,2.2,1.7
			c1.5,0,2.4-1.3,2.4-3.1c0-1.6-0.8-3-2.4-3c-1,0-1.9,0.7-2.2,1.8c0,0.2-0.1,0.4-0.1,0.6V31.9z"/>
		<path class="st0" d="M158.8,27.1l2.7,3.5h0.3v-3.5h1.4v3.5h0.3l2.7-3.5h1.7l-3.2,3.7c1.2,0.1,1.9,0.8,2.4,2.1
			c0.3,0.8,0.5,1.6,0.9,2.3h-1.5c-0.3-0.5-0.5-1.1-0.7-1.8c-0.5-1.3-1.2-1.7-2.3-1.7h-0.2v3.6h-1.4v-3.6h-0.3
			c-1.1,0-1.8,0.4-2.3,1.7c-0.3,0.7-0.5,1.3-0.8,1.8H157c0.3-0.6,0.6-1.5,0.9-2.2c0.5-1.3,1.2-2,2.4-2.1l-3.2-3.7H158.8z"/>
		<path class="st0" d="M170.5,27.1v3.4c0,1.3,0,2.1-0.1,3.2l0,0c0.5-1,0.8-1.5,1.3-2.5l2.5-4.2h1.7v8h-1.4v-3.4c0-1.3,0-2,0.1-3.3h0
			c-0.5,1-0.9,1.7-1.3,2.5c-0.8,1.2-1.6,2.8-2.5,4.2h-1.7v-8H170.5z"/>
		<path class="st0" d="M179.8,27.1v3.2h3.8v-3.2h1.4v8h-1.4v-3.6h-3.8v3.6h-1.4v-8H179.8z"/>
		<path class="st0" d="M193.2,34.8c-0.4,0.2-1.2,0.5-2.3,0.5c-2.4,0-4-1.6-4-4.1c0-2.5,1.7-4.3,4.3-4.3c0.9,0,1.6,0.2,2,0.4
			l-0.3,1.1c-0.3-0.2-0.9-0.4-1.7-0.4c-1.8,0-2.8,1.4-2.8,3c0,1.9,1.2,3,2.8,3c0.8,0,1.4-0.2,1.8-0.4L193.2,34.8z"/>
		<path class="st0" d="M196.4,27.1v3.5h0.3l3-3.5h1.8l-3.5,3.6c1.3,0.1,2.1,1,2.7,2.4c0.2,0.5,0.5,1.3,0.9,2h-1.5
			c-0.2-0.3-0.5-1-0.7-1.6c-0.5-1.3-1.3-1.9-2.7-1.9h-0.3v3.5h-1.4v-8H196.4z"/>
		<path class="st0" d="M204.3,27.1v3.4c0,1.3,0,2.1-0.1,3.2l0,0c0.5-1,0.8-1.5,1.3-2.5l2.5-4.2h1.7v8h-1.4v-3.4c0-1.3,0-2,0.1-3.3h0
			c-0.5,1-0.9,1.7-1.3,2.5c-0.8,1.2-1.6,2.8-2.5,4.2h-1.7v-8H204.3z"/>
		<path class="st0" d="M213.5,27.1v3.4c0,1.3,0,2.1-0.1,3.2l0,0c0.5-1,0.8-1.5,1.3-2.5l2.5-4.2h1.7v8h-1.4v-3.4c0-1.3,0-2,0.1-3.3h0
			c-0.5,1-0.9,1.7-1.3,2.5c-0.8,1.2-1.6,2.8-2.5,4.2h-1.7v-8H213.5z M214.4,23.8c0,0.7,0.4,1.3,1.1,1.3c0.7,0,1-0.5,1.1-1.3h1
			c-0.1,1.4-0.9,2.1-2.2,2.1c-1.5,0-2-0.9-2.1-2.1H214.4z"/>
		<path class="st0" d="M131.7,42.4v4.7c0,1.8,0,3.2-0.1,4.7l0,0c0.6-1.2,1.3-2.4,2.1-3.7l3.6-5.8h1.4v11.2h-1.4v-4.8
			c0-1.8,0-3.1,0.1-4.6l0,0c-0.5,1.2-1.3,2.5-2.1,3.8l-3.5,5.6h-1.5V42.4H131.7z"/>
		<path class="st0" d="M142.6,45.5v3.2h3.8v-3.2h1.4v8h-1.4v-3.6h-3.8v3.6h-1.4v-8H142.6z"/>
		<path class="st0" d="M156,53.3c-0.4,0.2-1.2,0.5-2.3,0.5c-2.4,0-4-1.6-4-4.1c0-2.5,1.7-4.3,4.3-4.3c0.9,0,1.6,0.2,2,0.4l-0.3,1.1
			c-0.3-0.2-0.9-0.4-1.7-0.4c-1.8,0-2.8,1.4-2.8,3c0,1.9,1.2,3,2.8,3c0.8,0,1.4-0.2,1.8-0.4L156,53.3z"/>
		<path class="st0" d="M163.5,45.5v1.2h-2.5v6.9h-1.4v-6.9H157v-1.2H163.5z"/>
		<path class="st0" d="M164.7,48.2c0-1,0-1.9-0.1-2.6h1.3l0.1,1.4h0c0.6-1,1.5-1.6,2.9-1.6c1.9,0,3.4,1.6,3.4,4.1
			c0,2.9-1.8,4.3-3.7,4.3c-1.1,0-2-0.5-2.5-1.3h0v4.4h-1.4V48.2z M166.2,50.3c0,0.2,0,0.4,0.1,0.6c0.3,1,1.1,1.7,2.2,1.7
			c1.5,0,2.4-1.3,2.4-3.1c0-1.6-0.8-3-2.4-3c-1,0-1.9,0.7-2.2,1.8c0,0.2-0.1,0.4-0.1,0.6V50.3z"/>
		<path class="st0" d="M174.6,45.5l1.8,4.8c0.2,0.5,0.4,1.2,0.5,1.6h0c0.2-0.5,0.3-1.1,0.5-1.7l1.6-4.7h1.5l-2.2,5.7
			c-1,2.8-1.8,4.2-2.8,5c-0.7,0.6-1.4,0.9-1.8,0.9l-0.4-1.2c0.4-0.1,0.8-0.3,1.3-0.7c0.4-0.3,0.9-0.9,1.2-1.6
			c0.1-0.1,0.1-0.3,0.1-0.3s0-0.2-0.1-0.4l-3-7.4H174.6z"/>
		<path class="st0" d="M181.9,45.5h1.8l1.5,4.1c0.2,0.6,0.5,1.6,0.7,2.2h0c0.2-0.6,0.6-1.9,0.9-2.8l1.3-3.5h1.8l0.6,8h-1.4l-0.2-3.8
			c0-0.9-0.1-1.9-0.1-2.9h0c-0.2,0.7-0.4,1.4-0.9,2.6l-1.5,4.1h-1.1l-1.4-4c-0.2-0.8-0.6-1.9-0.8-2.7h-0.1c0,0.9-0.1,2-0.1,2.9
			l-0.2,3.8h-1.3L181.9,45.5z"/>
		<path class="st0" d="M193.2,49.8c0,2,1.3,2.8,2.8,2.8c1,0,1.7-0.2,2.2-0.4l0.2,1c-0.5,0.2-1.4,0.5-2.7,0.5c-2.5,0-4-1.6-4-4.1
			c0-2.4,1.4-4.3,3.8-4.3c2.6,0,3.3,2.3,3.3,3.8c0,0.3,0,0.5-0.1,0.7H193.2z M197.5,48.8c0-0.9-0.4-2.4-2-2.4
			c-1.5,0-2.1,1.4-2.2,2.4H197.5z"/>
		<path class="st0" d="M202.1,45.5v3.2h3.8v-3.2h1.4v8H206v-3.6h-3.8v3.6h-1.4v-8H202.1z"/>
		<path class="st0" d="M215.2,45.5v1.2h-2.5v6.9h-1.4v-6.9h-2.5v-1.2H215.2z"/>
		<path class="st0" d="M220.8,53.6l-0.1-1h0c-0.4,0.6-1.3,1.2-2.5,1.2c-1.6,0-2.5-1.1-2.5-2.3c0-1.9,1.7-3,4.8-3v-0.2
			c0-0.7-0.2-1.9-1.8-1.9c-0.7,0-1.5,0.2-2.1,0.6l-0.3-1c0.7-0.4,1.6-0.7,2.6-0.7c2.5,0,3.1,1.7,3.1,3.3v3c0,0.7,0,1.4,0.1,1.9
			H220.8z M220.6,49.5c-1.6,0-3.4,0.2-3.4,1.8c0,0.9,0.6,1.4,1.4,1.4c1,0,1.7-0.7,1.9-1.3c0-0.1,0.1-0.3,0.1-0.5V49.5z"/>
		<path class="st0" d="M230.5,45.5v8h-1.4v-6.9h-2.8v2.1c0,2.3-0.2,3.8-1.3,4.5c-0.4,0.3-0.8,0.5-1.6,0.5l-0.1-1.1
			c0.3,0,0.6-0.2,0.8-0.3c0.7-0.5,0.8-1.7,0.8-3.5v-3.2H230.5z"/>
		<path class="st0" d="M234.3,45.5v2.7c0.3-0.1,0.9-0.1,1.3-0.1c1.8,0,3.7,0.6,3.7,2.7c0,0.8-0.3,1.4-0.8,1.8
			c-0.9,0.7-2.3,0.9-3.5,0.9c-0.8,0-1.6,0-2.2-0.1v-8H234.3z M234.3,52.6c0.3,0,0.6,0.1,1.1,0.1c1.1,0,2.5-0.4,2.5-1.7
			c0-1.4-1.5-1.7-2.5-1.7c-0.4,0-0.7,0-1,0.1V52.6z"/>
		<path class="st0" d="M242.6,45.5v3.2h3.8v-3.2h1.4v8h-1.4v-3.6h-3.8v3.6h-1.4v-8H242.6z"/>
		<path class="st0" d="M251.7,45.5v2.7c0.3-0.1,0.8-0.1,1.3-0.1c1.7,0,3.5,0.7,3.5,2.7c0,0.8-0.3,1.4-0.8,1.9
			c-0.9,0.7-2.2,0.9-3.2,0.9c-0.8,0-1.6,0-2.2-0.1v-8H251.7z M251.7,52.6c0.3,0,0.6,0.1,1,0.1c1.1,0,2.3-0.5,2.3-1.7
			c0-1.3-1.2-1.7-2.3-1.7c-0.4,0-0.8,0-1.1,0.1V52.6z M258.9,45.5v8h-1.4v-8H258.9z"/>
		<path class="st0" d="M262.7,45.5v3.4c0,1.3,0,2.1-0.1,3.2l0,0c0.5-1,0.8-1.5,1.3-2.5l2.5-4.2h1.7v8h-1.4v-3.4c0-1.3,0-2,0.1-3.3h0
			c-0.5,1-0.9,1.7-1.3,2.5c-0.8,1.2-1.6,2.8-2.5,4.2h-1.7v-8H262.7z M263.6,42.3c0,0.7,0.4,1.3,1.1,1.3c0.7,0,1-0.5,1.1-1.3h1
			c-0.1,1.4-0.9,2.1-2.2,2.1c-1.5,0-2-0.9-2.1-2.1H263.6z"/>
		<path class="st0" d="M129.9,61.5c0.8-0.5,1.7-0.8,3-0.8c1.9,0,3.3,1,3.3,2.7c0,1.4-1,2.4-2.3,2.7v0c1.6,0.2,2.7,1.2,2.7,2.8
			c0,2.3-2,3.3-4.1,3.3c-1,0-2.1-0.2-2.9-0.7l0.4-1.1c0.6,0.3,1.6,0.7,2.5,0.7c1.7,0,2.6-0.9,2.6-2.1c0-1.7-1.6-2.2-3-2.2h-0.7v-1.1
			h0.7c1.5,0,2.6-0.9,2.6-2.1c0-1.1-0.8-1.8-2-1.8c-0.8,0-1.7,0.3-2.3,0.7L129.9,61.5z"/>
		<path class="st0" d="M142.9,72l-0.1-1h0c-0.4,0.6-1.3,1.2-2.5,1.2c-1.6,0-2.5-1.1-2.5-2.3c0-1.9,1.7-3,4.8-3v-0.2
			c0-0.7-0.2-1.9-1.8-1.9c-0.7,0-1.5,0.2-2.1,0.6l-0.3-1c0.7-0.4,1.6-0.7,2.6-0.7c2.5,0,3.1,1.7,3.1,3.3v3c0,0.7,0,1.4,0.1,1.9
			H142.9z M142.7,67.9c-1.6,0-3.4,0.2-3.4,1.8c0,0.9,0.6,1.4,1.4,1.4c1,0,1.7-0.7,1.9-1.3c0-0.1,0.1-0.3,0.1-0.5V67.9z"/>
		<path class="st0" d="M146.4,64.1c0.6-0.1,1.6-0.2,2.6-0.2c1.3,0,3.6,0.2,3.6,2c0,1-0.8,1.6-1.7,1.8v0c1.2,0.2,2,0.8,2,2
			c0,2.1-2.7,2.4-4.2,2.4c-0.9,0-1.8-0.1-2.3-0.1V64.1z M147.8,71.1c0.4,0,0.7,0.1,1.2,0.1c1,0,2.4-0.2,2.4-1.4s-1.2-1.4-2.6-1.4
			h-1.1V71.1z M147.8,67.4h1.1c1.1,0,2.2-0.3,2.2-1.3c0-0.8-0.7-1.2-2.2-1.2c-0.5,0-0.8,0-1.1,0.1V67.4z"/>
		<path class="st0" d="M162.1,67.9c0,3-2.1,4.3-4,4.3c-2.2,0-3.9-1.6-3.9-4.1c0-2.7,1.8-4.3,4-4.3C160.5,63.8,162.1,65.5,162.1,67.9
			z M155.7,68c0,1.8,1,3.1,2.4,3.1c1.4,0,2.4-1.3,2.4-3.1c0-1.4-0.7-3.1-2.4-3.1S155.7,66.5,155.7,68z"/>
		<path class="st0" d="M170,64v7l0.8,0l-0.1,3.6h-1.1l-0.1-2.6H164l-0.1,2.6h-1.1l-0.1-3.6l0.7,0c0.3-0.5,0.6-1.1,0.8-1.6
			c0.3-1,0.5-2.1,0.5-3.2V64H170z M166,66.4c0,1.1-0.2,2.1-0.4,3c-0.2,0.5-0.4,1-0.6,1.5h3.7v-5.8H166V66.4z"/>
	</g>
	<path class="st1" d="M61.1,7.7L107.9,22c2.1,0.6,3.5,2.6,3.5,4.8v41.6c0,2.2-1.4,4.1-3.5,4.8L61.1,87.5L14.3,73.2
		c-2.1-0.6-3.5-2.6-3.5-4.8V26.8c0-2.2,1.4-4.1,3.5-4.8L61.1,7.7z"/>
</g>
</svg>
